<?xml version="1.0" encoding="UTF-8" standalone="no"?>
<!DOCTYPE svg PUBLIC "-//W3C//DTD SVG 1.1//EN" "http://www.w3.org/Graphics/SVG/1.1/DTD/svg11.dtd">
<svg width="612" height="612" viewBox="-50 -50 612 612" xmlns="http://www.w3.org/2000/svg" xmlns:xlink="http://www.w3.org/1999/xlink">
<rect x="-50" y="-50" width="612" height="612" rx="auto" ry="auto" fill="#FFFFFF" fill-opacity="1e0" stroke="none" stroke-opacity="1e0" stroke-width="1" opacity="1e0" />
<line x1="0" y1="0" x2="0" y2="512" stroke="#000000" stroke-opacity="1" stroke-width="2" stroke-linecap="butt" opacity="0.2" />
<line x1="85.333336" y1="0" x2="85.333336" y2="512" stroke="#000000" stroke-opacity="1" stroke-width="2" stroke-linecap="butt" opacity="0.2" />
<line x1="170.66667" y1="0" x2="170.66667" y2="512" stroke="#000000" stroke-opacity="1" stroke-width="2" stroke-linecap="butt" opacity="0.2" />
<line x1="256" y1="0" x2="256" y2="512" stroke="#000000" stroke-opacity="1" stroke-width="2" stroke-linecap="butt" opacity="0.2" />
<line x1="341.33334" y1="0" x2="341.33334" y2="512" stroke="#000000" stroke-opacity="1" stroke-width="2" stroke-linecap="butt" opacity="0.2" />
<line x1="426.6667" y1="0" x2="426.6667" y2="512" stroke="#000000" stroke-opacity="1" stroke-width="2" stroke-linecap="butt" opacity="0.2" />
<line x1="0" y1="341.27124" x2="512" y2="341.27124" stroke="#000000" stroke-opacity="1" stroke-width="2" stroke-linecap="butt" opacity="0.2" />
<line x1="0" y1="284.3927" x2="512" y2="284.3927" stroke="#000000" stroke-opacity="1" stroke-width="2" stroke-linecap="butt" opacity="0.2" />
<line x1="0" y1="227.51416" x2="512" y2="227.51416" stroke="#000000" stroke-opacity="1" stroke-width="2" stroke-linecap="butt" opacity="0.2" />
<line x1="0" y1="170.63562" x2="512" y2="170.63562" stroke="#000000" stroke-opacity="1" stroke-width="2" stroke-linecap="butt" opacity="0.2" />
<line x1="0" y1="113.75708" x2="512" y2="113.75708" stroke="#000000" stroke-opacity="1" stroke-width="2" stroke-linecap="butt" opacity="0.2" />
<line x1="0" y1="56.87854" x2="512" y2="56.87854" stroke="#000000" stroke-opacity="1" stroke-width="2" stroke-linecap="butt" opacity="0.2" />
<line x1="0" y1="398.14978" x2="512" y2="398.14978" stroke="#000000" stroke-opacity="1" stroke-width="2" stroke-linecap="butt" opacity="0.2" />
<line x1="0" y1="455.02832" x2="512" y2="455.02832" stroke="#000000" stroke-opacity="1" stroke-width="2" stroke-linecap="butt" opacity="0.2" />
<line x1="0" y1="511.90686" x2="512" y2="511.90686" stroke="#000000" stroke-opacity="1" stroke-width="2" stroke-linecap="butt" opacity="0.2" />
<polyline points="0 341.27124 0 185.95337 18.962963 147.52716 37.925926 111.49005 56.88889 80.08273 75.85185 55.257965 94.81482 38.559143 113.77778 31.024658 132.74074 33.122833 151.7037 44.723267 170.66667 65.10477 189.62964 93 208.59259 126.67462 227.55556 164.03494 246.51852 202.75803 265.48148 240.43628 284.44446 274.72705 303.4074 303.4983 322.37036 324.96118 341.33334 337.78125 360.2963 341.16138 379.25928 334.89142 398.22223 319.36124 417.18518 295.53638 436.14816 264.8982 455.1111 229.3516 474.07407 191.10672 493.03705 152.54144 512 116.05353 512 341.27124 " fill="#808080" fill-opacity="0.5" stroke="#808080" stroke-opacity="1" stroke-width="2" opacity="1" />
<polyline points="0 341.27124 0 341.27124 18.962963 302.84497 37.925926 266.8079 56.88889 235.40054 75.85185 210.57578 94.81482 193.87698 113.77778 186.34247 132.74074 188.44064 151.7037 200.04114 170.66667 220.42258 189.62964 248.31784 208.59259 281.99243 227.55556 319.35278 246.51852 358.07587 265.48148 395.7541 284.44446 430.0449 303.4074 458.81613 322.37036 480.27902 341.33334 493.09906 360.2963 496.4792 379.25928 490.20926 398.22223 474.67908 417.18518 450.85422 436.14816 420.216 455.1111 384.66943 474.07407 346.42453 493.03705 307.85925 512 271.37134 512 341.27124 " fill="#0000FF" fill-opacity="0.5" stroke="#0000FF" stroke-opacity="1" stroke-width="2" opacity="1" />
<line x1="0" y1="341.27124" x2="512" y2="341.27124" stroke="#000000" stroke-opacity="1" stroke-width="2" stroke-linecap="butt" opacity="1" />
<rect x="0" y="0" width="512" height="512" rx="auto" ry="auto" fill="none" fill-opacity="1e0" stroke="#000000" stroke-opacity="1e0" stroke-width="4" opacity="1e0" />
<text x="0" y="522" dx="0" dy="0" textLength="none" fill="#000000" fill-opacity="1" stroke="none" stroke-opacity="1" stroke-width="1" opacity="1" font-family="sans-serif" font-size="10px" font-weight="normal" text-anchor="middle" dominant-baseline="hanging" >0.00</text>
<text x="85.333336" y="522" dx="0" dy="0" textLength="none" fill="#000000" fill-opacity="1" stroke="none" stroke-opacity="1" stroke-width="1" opacity="1" font-family="sans-serif" font-size="10px" font-weight="normal" text-anchor="middle" dominant-baseline="hanging" >4.50</text>
<text x="170.66667" y="522" dx="0" dy="0" textLength="none" fill="#000000" fill-opacity="1" stroke="none" stroke-opacity="1" stroke-width="1" opacity="1" font-family="sans-serif" font-size="10px" font-weight="normal" text-anchor="middle" dominant-baseline="hanging" >9.00</text>
<text x="256" y="522" dx="0" dy="0" textLength="none" fill="#000000" fill-opacity="1" stroke="none" stroke-opacity="1" stroke-width="1" opacity="1" font-family="sans-serif" font-size="10px" font-weight="normal" text-anchor="middle" dominant-baseline="hanging" >13.50</text>
<text x="341.33334" y="522" dx="0" dy="0" textLength="none" fill="#000000" fill-opacity="1" stroke="none" stroke-opacity="1" stroke-width="1" opacity="1" font-family="sans-serif" font-size="10px" font-weight="normal" text-anchor="middle" dominant-baseline="hanging" >18.00</text>
<text x="426.6667" y="522" dx="0" dy="0" textLength="none" fill="#000000" fill-opacity="1" stroke="none" stroke-opacity="1" stroke-width="1" opacity="1" font-family="sans-serif" font-size="10px" font-weight="normal" text-anchor="middle" dominant-baseline="hanging" >22.50</text>
<text x="-10" y="341.27124" dx="0" dy="0" textLength="none" fill="#000000" fill-opacity="1" stroke="none" stroke-opacity="1" stroke-width="1" opacity="1" font-family="sans-serif" font-size="10px" font-weight="normal" text-anchor="end" dominant-baseline="middle" >-0.00</text>
<text x="-10" y="284.3927" dx="0" dy="0" textLength="none" fill="#000000" fill-opacity="1" stroke="none" stroke-opacity="1" stroke-width="1" opacity="1" font-family="sans-serif" font-size="10px" font-weight="normal" text-anchor="end" dominant-baseline="middle" >0.37</text>
<text x="-10" y="227.51416" dx="0" dy="0" textLength="none" fill="#000000" fill-opacity="1" stroke="none" stroke-opacity="1" stroke-width="1" opacity="1" font-family="sans-serif" font-size="10px" font-weight="normal" text-anchor="end" dominant-baseline="middle" >0.73</text>
<text x="-10" y="170.63562" dx="0" dy="0" textLength="none" fill="#000000" fill-opacity="1" stroke="none" stroke-opacity="1" stroke-width="1" opacity="1" font-family="sans-serif" font-size="10px" font-weight="normal" text-anchor="end" dominant-baseline="middle" >1.10</text>
<text x="-10" y="113.75708" dx="0" dy="0" textLength="none" fill="#000000" fill-opacity="1" stroke="none" stroke-opacity="1" stroke-width="1" opacity="1" font-family="sans-serif" font-size="10px" font-weight="normal" text-anchor="end" dominant-baseline="middle" >1.46</text>
<text x="-10" y="56.87854" dx="0" dy="0" textLength="none" fill="#000000" fill-opacity="1" stroke="none" stroke-opacity="1" stroke-width="1" opacity="1" font-family="sans-serif" font-size="10px" font-weight="normal" text-anchor="end" dominant-baseline="middle" >1.83</text>
<text x="-10" y="398.14978" dx="0" dy="0" textLength="none" fill="#000000" fill-opacity="1" stroke="none" stroke-opacity="1" stroke-width="1" opacity="1" font-family="sans-serif" font-size="10px" font-weight="normal" text-anchor="end" dominant-baseline="middle" >-0.37</text>
<text x="-10" y="455.02832" dx="0" dy="0" textLength="none" fill="#000000" fill-opacity="1" stroke="none" stroke-opacity="1" stroke-width="1" opacity="1" font-family="sans-serif" font-size="10px" font-weight="normal" text-anchor="end" dominant-baseline="middle" >-0.73</text>
<text x="-10" y="511.90686" dx="0" dy="0" textLength="none" fill="#000000" fill-opacity="1" stroke="none" stroke-opacity="1" stroke-width="1" opacity="1" font-family="sans-serif" font-size="10px" font-weight="normal" text-anchor="end" dominant-baseline="middle" >-1.10</text>
</svg>