<?xml version="1.0" encoding="UTF-8" standalone="no"?>
<!DOCTYPE svg PUBLIC "-//W3C//DTD SVG 1.1//EN" "http://www.w3.org/Graphics/SVG/1.1/DTD/svg11.dtd">
<svg width="612" height="612" viewBox="-50 -50 612 612" xmlns="http://www.w3.org/2000/svg" xmlns:xlink="http://www.w3.org/1999/xlink">
<rect x="-50" y="-50" width="612" height="612" rx="auto" ry="auto" fill="#FFFFFF" fill-opacity="1.0e+00" stroke="none" stroke-opacity="1.0e+00" stroke-width="1" opacity="1.0e+00" />
<line x1="17.65517234802246" y1="0" x2="17.65517234802246" y2="512" stroke="#000000" stroke-opacity="1" stroke-width="2" stroke-linecap="butt" opacity="0.20000000298023224" />
<line x1="100.04597473144531" y1="0" x2="100.04597473144531" y2="512" stroke="#000000" stroke-opacity="1" stroke-width="2" stroke-linecap="butt" opacity="0.20000000298023224" />
<line x1="182.436767578125" y1="0" x2="182.436767578125" y2="512" stroke="#000000" stroke-opacity="1" stroke-width="2" stroke-linecap="butt" opacity="0.20000000298023224" />
<line x1="264.82757568359375" y1="0" x2="264.82757568359375" y2="512" stroke="#000000" stroke-opacity="1" stroke-width="2" stroke-linecap="butt" opacity="0.20000000298023224" />
<line x1="347.2183837890625" y1="0" x2="347.2183837890625" y2="512" stroke="#000000" stroke-opacity="1" stroke-width="2" stroke-linecap="butt" opacity="0.20000000298023224" />
<line x1="429.60919189453125" y1="0" x2="429.60919189453125" y2="512" stroke="#000000" stroke-opacity="1" stroke-width="2" stroke-linecap="butt" opacity="0.20000000298023224" />
<line x1="0" y1="341.271240234375" x2="512" y2="341.271240234375" stroke="#000000" stroke-opacity="1" stroke-width="2" stroke-linecap="butt" opacity="0.20000000298023224" />
<line x1="0" y1="284.3927001953125" x2="512" y2="284.3927001953125" stroke="#000000" stroke-opacity="1" stroke-width="2" stroke-linecap="butt" opacity="0.20000000298023224" />
<line x1="0" y1="227.51416015625" x2="512" y2="227.51416015625" stroke="#000000" stroke-opacity="1" stroke-width="2" stroke-linecap="butt" opacity="0.20000000298023224" />
<line x1="0" y1="170.6356201171875" x2="512" y2="170.6356201171875" stroke="#000000" stroke-opacity="1" stroke-width="2" stroke-linecap="butt" opacity="0.20000000298023224" />
<line x1="0" y1="113.757080078125" x2="512" y2="113.757080078125" stroke="#000000" stroke-opacity="1" stroke-width="2" stroke-linecap="butt" opacity="0.20000000298023224" />
<line x1="0" y1="56.8785400390625" x2="512" y2="56.8785400390625" stroke="#000000" stroke-opacity="1" stroke-width="2" stroke-linecap="butt" opacity="0.20000000298023224" />
<line x1="0" y1="398.1497802734375" x2="512" y2="398.1497802734375" stroke="#000000" stroke-opacity="1" stroke-width="2" stroke-linecap="butt" opacity="0.20000000298023224" />
<line x1="0" y1="455.0283203125" x2="512" y2="455.0283203125" stroke="#000000" stroke-opacity="1" stroke-width="2" stroke-linecap="butt" opacity="0.20000000298023224" />
<line x1="0" y1="511.9068603515625" x2="512" y2="511.9068603515625" stroke="#000000" stroke-opacity="1" stroke-width="2" stroke-linecap="butt" opacity="0.20000000298023224" />
<path d="M 17.65517234802246 341.271240234375 C 21.186206817626953 333.58599853515625 28.248275756835938 317.7376403808594 35.31034469604492 302.844970703125 C 42.372413635253906 287.9523010253906 45.903446197509766 280.2967834472656 52.96551513671875 266.8078918457031 C 60.027584075927734 253.31900024414062 63.55862045288086 246.64697265625 70.62068939208984 235.40054321289062 C 77.6827621459961 224.15411376953125 81.21379852294922 218.8804931640625 88.27586364746094 210.57577514648438 C 95.33792877197266 202.27105712890625 98.86896514892578 198.72364807128906 105.9310302734375 193.87698364257812 C 112.99309539794922 189.0303192138672 116.52413177490234 187.4297332763672 123.5862045288086 186.34246826171875 C 130.6482696533203 185.2552032470703 134.17930603027344 185.70091247558594 141.2413787841797 188.44064331054688 C 148.30345153808594 191.1803741455078 151.83447265625 193.64474487304688 158.89654541015625 200.0411376953125 C 165.9586181640625 206.43753051757812 169.48965454101562 210.76724243164062 176.55172729492188 220.42257690429688 C 183.61380004882812 230.07791137695312 187.1448211669922 236.00387573242188 194.20689392089844 248.31784057617188 C 201.2689666748047 260.6318054199219 204.79998779296875 267.7854309082031 211.862060546875 281.992431640625 C 218.92413330078125 296.1994323730469 222.45516967773438 304.1361083984375 229.51724243164062 319.352783203125 C 236.57931518554688 334.5694580078125 240.11033630371094 342.79559326171875 247.1724090576172 358.07586669921875 C 254.23448181152344 373.35614013671875 257.7655029296875 381.36029052734375 264.82757568359375 395.75408935546875 C 271.8896484375 410.14788818359375 275.4206848144531 417.4324951171875 282.4827575683594 430.0448913574219 C 289.5448303222656 442.65728759765625 293.07586669921875 448.7693176269531 300.137939453125 458.8161315917969 C 307.20001220703125 468.8629455566406 310.73101806640625 473.42242431640625 317.7930908203125 480.2790222167969 C 324.85516357421875 487.1356201171875 328.3861999511719 489.8590393066406 335.4482727050781 493.09906005859375 C 342.5103454589844 496.3390808105469 346.0413818359375 497.0571594238281 353.10345458984375 496.47918701171875 C 360.16552734375 495.9012145996094 363.696533203125 494.56927490234375 370.75860595703125 490.2092590332031 C 377.8206787109375 485.8492431640625 381.3517150878906 482.5500793457031 388.4137878417969 474.6790771484375 C 395.4758605957031 466.8080749511719 399.00689697265625 461.746826171875 406.0689697265625 450.8542175292969 C 413.13104248046875 439.96160888671875 416.66204833984375 433.4529724121094 423.72412109375 420.21600341796875 C 430.78619384765625 406.9790344238281 434.3172302246094 399.427734375 441.3793029785156 384.66943359375 C 448.4413757324219 369.9111328125 451.972412109375 361.78656005859375 459.03448486328125 346.4245300292969 C 466.0965576171875 331.0625 469.6275939941406 322.8699035644531 476.6896667480469 307.8592529296875 C 483.7517395019531 292.8486022949219 490.81378173828125 278.6689147949219 494.3448181152344 271.371337890625 " fill="none" fill-opacity="1" stroke="#0000FF" stroke-opacity="1" stroke-width="2" opacity="1" />
<path d="M 17.65517234802246 185.953369140625 C 21.186206817626953 178.26812744140625 28.248275756835938 162.41983032226562 35.31034469604492 147.52716064453125 C 42.372413635253906 132.63449096679688 45.903446197509766 124.97893524169922 52.96551513671875 111.49005126953125 C 60.027584075927734 98.00116729736328 63.55862045288086 91.32914733886719 70.62068939208984 80.08273315429688 C 77.6827621459961 68.83631896972656 81.21379852294922 63.56268310546875 88.27586364746094 55.257965087890625 C 95.33792877197266 46.9532470703125 98.86896514892578 43.40580368041992 105.9310302734375 38.55914306640625 C 112.99309539794922 33.71248245239258 116.52413177490234 32.11191940307617 123.5862045288086 31.024658203125 C 130.6482696533203 29.937397003173828 134.17930603027344 30.38311195373535 141.2413787841797 33.122833251953125 C 148.30345153808594 35.86255645751953 151.83447265625 38.326881408691406 158.89654541015625 44.7232666015625 C 165.9586181640625 51.119651794433594 169.48965454101562 55.44942092895508 176.55172729492188 65.10476684570312 C 183.61380004882812 74.76011657714844 187.1448211669922 80.68602752685547 194.20689392089844 93 C 201.2689666748047 105.31397247314453 204.79998779296875 112.46763610839844 211.862060546875 126.67462158203125 C 218.92413330078125 140.88160705566406 222.45516967773438 148.81826782226562 229.51724243164062 164.03494262695312 C 236.57931518554688 179.25161743164062 240.11033630371094 187.47775268554688 247.1724090576172 202.75802612304688 C 254.23448181152344 218.03829956054688 257.7655029296875 226.04248046875 264.82757568359375 240.436279296875 C 271.8896484375 254.830078125 275.4206848144531 262.1146545410156 282.4827575683594 274.72705078125 C 289.5448303222656 287.3394470214844 293.07586669921875 293.45147705078125 300.137939453125 303.498291015625 C 307.20001220703125 313.54510498046875 310.73101806640625 318.1045837402344 317.7930908203125 324.961181640625 C 324.85516357421875 331.8177795410156 328.3861999511719 334.54119873046875 335.4482727050781 337.78125 C 342.5103454589844 341.02130126953125 346.0413818359375 341.7393493652344 353.10345458984375 341.161376953125 C 360.16552734375 340.5834045410156 363.696533203125 339.2514343261719 370.75860595703125 334.89141845703125 C 377.8206787109375 330.5314025878906 381.3517150878906 327.23223876953125 388.4137878417969 319.3612365722656 C 395.4758605957031 311.490234375 399.00689697265625 306.4289855957031 406.0689697265625 295.536376953125 C 413.13104248046875 284.6437683105469 416.66204833984375 278.1351623535156 423.72412109375 264.898193359375 C 430.78619384765625 251.66123962402344 434.3172302246094 244.10989379882812 441.3793029785156 229.35159301757812 C 448.4413757324219 214.59329223632812 451.972412109375 206.46875 459.03448486328125 191.10671997070312 C 466.0965576171875 175.74468994140625 469.6275939941406 167.5520782470703 476.6896667480469 152.54144287109375 C 483.7517395019531 137.5308074951172 490.81378173828125 123.35111236572266 494.3448181152344 116.05352783203125 " fill="none" fill-opacity="1" stroke="#808080" stroke-opacity="1" stroke-width="2" stroke-dasharray="4 " opacity="1" />
<line x1="0" y1="341.271240234375" x2="512" y2="341.271240234375" stroke="#000000" stroke-opacity="1" stroke-width="2" stroke-linecap="butt" opacity="1" />
<rect x="0" y="0" width="512" height="512" rx="auto" ry="auto" fill="none" fill-opacity="1.0e+00" stroke="#000000" stroke-opacity="1.0e+00" stroke-width="4" opacity="1.0e+00" />
<text x="17.65517234802246" y="522" dx="0" dy="0" textLength="none" fill="#000000" fill-opacity="1" stroke="none" stroke-opacity="1" stroke-width="1" opacity="1" font-family="sans-serif" font-size="10px" font-weight="normal" text-anchor="middle" dominant-baseline="hanging" >0.00</text>
<text x="100.04597473144531" y="522" dx="0" dy="0" textLength="none" fill="#000000" fill-opacity="1" stroke="none" stroke-opacity="1" stroke-width="1" opacity="1" font-family="sans-serif" font-size="10px" font-weight="normal" text-anchor="middle" dominant-baseline="hanging" >4.67</text>
<text x="182.436767578125" y="522" dx="0" dy="0" textLength="none" fill="#000000" fill-opacity="1" stroke="none" stroke-opacity="1" stroke-width="1" opacity="1" font-family="sans-serif" font-size="10px" font-weight="normal" text-anchor="middle" dominant-baseline="hanging" >9.33</text>
<text x="264.82757568359375" y="522" dx="0" dy="0" textLength="none" fill="#000000" fill-opacity="1" stroke="none" stroke-opacity="1" stroke-width="1" opacity="1" font-family="sans-serif" font-size="10px" font-weight="normal" text-anchor="middle" dominant-baseline="hanging" >14.00</text>
<text x="347.2183837890625" y="522" dx="0" dy="0" textLength="none" fill="#000000" fill-opacity="1" stroke="none" stroke-opacity="1" stroke-width="1" opacity="1" font-family="sans-serif" font-size="10px" font-weight="normal" text-anchor="middle" dominant-baseline="hanging" >18.67</text>
<text x="429.60919189453125" y="522" dx="0" dy="0" textLength="none" fill="#000000" fill-opacity="1" stroke="none" stroke-opacity="1" stroke-width="1" opacity="1" font-family="sans-serif" font-size="10px" font-weight="normal" text-anchor="middle" dominant-baseline="hanging" >23.33</text>
<text x="-10" y="341.271240234375" dx="0" dy="0" textLength="none" fill="#000000" fill-opacity="1" stroke="none" stroke-opacity="1" stroke-width="1" opacity="1" font-family="sans-serif" font-size="10px" font-weight="normal" text-anchor="end" dominant-baseline="middle" >-0.00</text>
<text x="-10" y="284.3927001953125" dx="0" dy="0" textLength="none" fill="#000000" fill-opacity="1" stroke="none" stroke-opacity="1" stroke-width="1" opacity="1" font-family="sans-serif" font-size="10px" font-weight="normal" text-anchor="end" dominant-baseline="middle" >0.37</text>
<text x="-10" y="227.51416015625" dx="0" dy="0" textLength="none" fill="#000000" fill-opacity="1" stroke="none" stroke-opacity="1" stroke-width="1" opacity="1" font-family="sans-serif" font-size="10px" font-weight="normal" text-anchor="end" dominant-baseline="middle" >0.73</text>
<text x="-10" y="170.6356201171875" dx="0" dy="0" textLength="none" fill="#000000" fill-opacity="1" stroke="none" stroke-opacity="1" stroke-width="1" opacity="1" font-family="sans-serif" font-size="10px" font-weight="normal" text-anchor="end" dominant-baseline="middle" >1.10</text>
<text x="-10" y="113.757080078125" dx="0" dy="0" textLength="none" fill="#000000" fill-opacity="1" stroke="none" stroke-opacity="1" stroke-width="1" opacity="1" font-family="sans-serif" font-size="10px" font-weight="normal" text-anchor="end" dominant-baseline="middle" >1.46</text>
<text x="-10" y="56.8785400390625" dx="0" dy="0" textLength="none" fill="#000000" fill-opacity="1" stroke="none" stroke-opacity="1" stroke-width="1" opacity="1" font-family="sans-serif" font-size="10px" font-weight="normal" text-anchor="end" dominant-baseline="middle" >1.83</text>
<text x="-10" y="398.1497802734375" dx="0" dy="0" textLength="none" fill="#000000" fill-opacity="1" stroke="none" stroke-opacity="1" stroke-width="1" opacity="1" font-family="sans-serif" font-size="10px" font-weight="normal" text-anchor="end" dominant-baseline="middle" >-0.37</text>
<text x="-10" y="455.0283203125" dx="0" dy="0" textLength="none" fill="#000000" fill-opacity="1" stroke="none" stroke-opacity="1" stroke-width="1" opacity="1" font-family="sans-serif" font-size="10px" font-weight="normal" text-anchor="end" dominant-baseline="middle" >-0.73</text>
<text x="-10" y="511.9068603515625" dx="0" dy="0" textLength="none" fill="#000000" fill-opacity="1" stroke="none" stroke-opacity="1" stroke-width="1" opacity="1" font-family="sans-serif" font-size="10px" font-weight="normal" text-anchor="end" dominant-baseline="middle" >-1.10</text>
</svg>