<?xml version="1.0" encoding="UTF-8" standalone="no"?>
<!DOCTYPE svg PUBLIC "-//W3C//DTD SVG 1.1//EN" "http://www.w3.org/Graphics/SVG/1.1/DTD/svg11.dtd">
<svg width="612" height="612" viewBox="-50 -50 612 612" xmlns="http://www.w3.org/2000/svg" xmlns:xlink="http://www.w3.org/1999/xlink">
<rect x="-50" y="-50" width="612" height="612" rx="auto" ry="auto" fill="#FFFFFF" fill-opacity="1e0" stroke="none" stroke-opacity="1e0" stroke-width="1" opacity="1e0" />
<line x1="17.655172" y1="0" x2="17.655172" y2="512" stroke="#000000" stroke-opacity="1" stroke-width="2" stroke-linecap="butt" opacity="0.2" />
<line x1="100.045975" y1="0" x2="100.045975" y2="512" stroke="#000000" stroke-opacity="1" stroke-width="2" stroke-linecap="butt" opacity="0.2" />
<line x1="182.43677" y1="0" x2="182.43677" y2="512" stroke="#000000" stroke-opacity="1" stroke-width="2" stroke-linecap="butt" opacity="0.2" />
<line x1="264.82758" y1="0" x2="264.82758" y2="512" stroke="#000000" stroke-opacity="1" stroke-width="2" stroke-linecap="butt" opacity="0.2" />
<line x1="347.21838" y1="0" x2="347.21838" y2="512" stroke="#000000" stroke-opacity="1" stroke-width="2" stroke-linecap="butt" opacity="0.2" />
<line x1="429.6092" y1="0" x2="429.6092" y2="512" stroke="#000000" stroke-opacity="1" stroke-width="2" stroke-linecap="butt" opacity="0.2" />
<line x1="0" y1="341.27124" x2="512" y2="341.27124" stroke="#000000" stroke-opacity="1" stroke-width="2" stroke-linecap="butt" opacity="0.2" />
<line x1="0" y1="284.3927" x2="512" y2="284.3927" stroke="#000000" stroke-opacity="1" stroke-width="2" stroke-linecap="butt" opacity="0.2" />
<line x1="0" y1="227.51416" x2="512" y2="227.51416" stroke="#000000" stroke-opacity="1" stroke-width="2" stroke-linecap="butt" opacity="0.2" />
<line x1="0" y1="170.63562" x2="512" y2="170.63562" stroke="#000000" stroke-opacity="1" stroke-width="2" stroke-linecap="butt" opacity="0.2" />
<line x1="0" y1="113.75708" x2="512" y2="113.75708" stroke="#000000" stroke-opacity="1" stroke-width="2" stroke-linecap="butt" opacity="0.2" />
<line x1="0" y1="56.87854" x2="512" y2="56.87854" stroke="#000000" stroke-opacity="1" stroke-width="2" stroke-linecap="butt" opacity="0.2" />
<line x1="0" y1="398.14978" x2="512" y2="398.14978" stroke="#000000" stroke-opacity="1" stroke-width="2" stroke-linecap="butt" opacity="0.2" />
<line x1="0" y1="455.02832" x2="512" y2="455.02832" stroke="#000000" stroke-opacity="1" stroke-width="2" stroke-linecap="butt" opacity="0.2" />
<line x1="0" y1="511.90686" x2="512" y2="511.90686" stroke="#000000" stroke-opacity="1" stroke-width="2" stroke-linecap="butt" opacity="0.2" />
<path d="M 17.655172 341.27124 C 21.186207 333.586 28.248276 317.73764 35.310345 302.84497 C 42.372414 287.9523 45.903446 280.29678 52.965515 266.8079 C 60.027584 253.319 63.55862 246.64697 70.62069 235.40054 C 77.68276 224.15411 81.2138 218.8805 88.27586 210.57578 C 95.33793 202.27106 98.868965 198.72365 105.93103 193.87698 C 112.993095 189.03032 116.52413 187.42973 123.586205 186.34247 C 130.64827 185.2552 134.1793 185.70091 141.24138 188.44064 C 148.30345 191.18037 151.83447 193.64474 158.89655 200.04114 C 165.95862 206.43753 169.48965 210.76724 176.55173 220.42258 C 183.6138 230.07791 187.14482 236.00388 194.2069 248.31784 C 201.26897 260.6318 204.79999 267.78543 211.86206 281.99243 C 218.92413 296.19943 222.45517 304.1361 229.51724 319.35278 C 236.57932 334.56946 240.11034 342.7956 247.17241 358.07587 C 254.23448 373.35614 257.7655 381.3603 264.82758 395.7541 C 271.88965 410.1479 275.4207 417.4325 282.48276 430.0449 C 289.54483 442.6573 293.07587 448.76932 300.13794 458.81613 C 307.2 468.86295 310.73102 473.42242 317.7931 480.27902 C 324.85516 487.13562 328.3862 489.85904 335.44827 493.09906 C 342.51035 496.33908 346.04138 497.05716 353.10345 496.4792 C 360.16553 495.9012 363.69653 494.56927 370.7586 490.20926 C 377.82068 485.84924 381.3517 482.55008 388.4138 474.67908 C 395.47586 466.80807 399.0069 461.74683 406.06897 450.85422 C 413.13104 439.9616 416.66205 433.45297 423.72412 420.216 C 430.7862 406.97903 434.31723 399.42773 441.3793 384.66943 C 448.44138 369.91113 451.9724 361.78656 459.0345 346.42453 C 466.09656 331.0625 469.6276 322.8699 476.68967 307.85925 C 483.75174 292.8486 490.81378 278.6689 494.34482 271.37134 " fill="none" fill-opacity="1" stroke="#0000FF" stroke-opacity="1" stroke-width="2" opacity="1" />
<path d="M 17.655172 185.95337 C 21.186207 178.26813 28.248276 162.41983 35.310345 147.52716 C 42.372414 132.63449 45.903446 124.978935 52.965515 111.49005 C 60.027584 98.00117 63.55862 91.32915 70.62069 80.08273 C 77.68276 68.83632 81.2138 63.562683 88.27586 55.257965 C 95.33793 46.953247 98.868965 43.405804 105.93103 38.559143 C 112.993095 33.712482 116.52413 32.11192 123.586205 31.024658 C 130.64827 29.937397 134.1793 30.383112 141.24138 33.122833 C 148.30345 35.862556 151.83447 38.32688 158.89655 44.723267 C 165.95862 51.11965 169.48965 55.44942 176.55173 65.10477 C 183.6138 74.76012 187.14482 80.68603 194.2069 93 C 201.26897 105.31397 204.79999 112.467636 211.86206 126.67462 C 218.92413 140.8816 222.45517 148.81827 229.51724 164.03494 C 236.57932 179.25162 240.11034 187.47775 247.17241 202.75803 C 254.23448 218.0383 257.7655 226.04248 264.82758 240.43628 C 271.88965 254.83008 275.4207 262.11465 282.48276 274.72705 C 289.54483 287.33945 293.07587 293.45148 300.13794 303.4983 C 307.2 313.5451 310.73102 318.10458 317.7931 324.96118 C 324.85516 331.81778 328.3862 334.5412 335.44827 337.78125 C 342.51035 341.0213 346.04138 341.73935 353.10345 341.16138 C 360.16553 340.5834 363.69653 339.25143 370.7586 334.89142 C 377.82068 330.5314 381.3517 327.23224 388.4138 319.36124 C 395.47586 311.49023 399.0069 306.429 406.06897 295.53638 C 413.13104 284.64377 416.66205 278.13516 423.72412 264.8982 C 430.7862 251.66124 434.31723 244.1099 441.3793 229.3516 C 448.44138 214.59329 451.9724 206.46875 459.0345 191.10672 C 466.09656 175.74469 469.6276 167.55208 476.68967 152.54144 C 483.75174 137.5308 490.81378 123.35111 494.34482 116.05353 " fill="none" fill-opacity="1" stroke="#808080" stroke-opacity="1" stroke-width="2" stroke-dasharray="4 " opacity="1" />
<line x1="0" y1="341.27124" x2="512" y2="341.27124" stroke="#000000" stroke-opacity="1" stroke-width="2" stroke-linecap="butt" opacity="1" />
<rect x="0" y="0" width="512" height="512" rx="auto" ry="auto" fill="none" fill-opacity="1e0" stroke="#000000" stroke-opacity="1e0" stroke-width="4" opacity="1e0" />
<text x="17.655172" y="522" dx="0" dy="0" textLength="none" fill="#000000" fill-opacity="1" stroke="none" stroke-opacity="1" stroke-width="1" opacity="1" font-family="sans-serif" font-size="10px" font-weight="normal" text-anchor="middle" dominant-baseline="hanging" >0.00</text>
<text x="100.045975" y="522" dx="0" dy="0" textLength="none" fill="#000000" fill-opacity="1" stroke="none" stroke-opacity="1" stroke-width="1" opacity="1" font-family="sans-serif" font-size="10px" font-weight="normal" text-anchor="middle" dominant-baseline="hanging" >4.67</text>
<text x="182.43677" y="522" dx="0" dy="0" textLength="none" fill="#000000" fill-opacity="1" stroke="none" stroke-opacity="1" stroke-width="1" opacity="1" font-family="sans-serif" font-size="10px" font-weight="normal" text-anchor="middle" dominant-baseline="hanging" >9.33</text>
<text x="264.82758" y="522" dx="0" dy="0" textLength="none" fill="#000000" fill-opacity="1" stroke="none" stroke-opacity="1" stroke-width="1" opacity="1" font-family="sans-serif" font-size="10px" font-weight="normal" text-anchor="middle" dominant-baseline="hanging" >14.00</text>
<text x="347.21838" y="522" dx="0" dy="0" textLength="none" fill="#000000" fill-opacity="1" stroke="none" stroke-opacity="1" stroke-width="1" opacity="1" font-family="sans-serif" font-size="10px" font-weight="normal" text-anchor="middle" dominant-baseline="hanging" >18.67</text>
<text x="429.6092" y="522" dx="0" dy="0" textLength="none" fill="#000000" fill-opacity="1" stroke="none" stroke-opacity="1" stroke-width="1" opacity="1" font-family="sans-serif" font-size="10px" font-weight="normal" text-anchor="middle" dominant-baseline="hanging" >23.33</text>
<text x="-10" y="341.27124" dx="0" dy="0" textLength="none" fill="#000000" fill-opacity="1" stroke="none" stroke-opacity="1" stroke-width="1" opacity="1" font-family="sans-serif" font-size="10px" font-weight="normal" text-anchor="end" dominant-baseline="middle" >-0.00</text>
<text x="-10" y="284.3927" dx="0" dy="0" textLength="none" fill="#000000" fill-opacity="1" stroke="none" stroke-opacity="1" stroke-width="1" opacity="1" font-family="sans-serif" font-size="10px" font-weight="normal" text-anchor="end" dominant-baseline="middle" >0.37</text>
<text x="-10" y="227.51416" dx="0" dy="0" textLength="none" fill="#000000" fill-opacity="1" stroke="none" stroke-opacity="1" stroke-width="1" opacity="1" font-family="sans-serif" font-size="10px" font-weight="normal" text-anchor="end" dominant-baseline="middle" >0.73</text>
<text x="-10" y="170.63562" dx="0" dy="0" textLength="none" fill="#000000" fill-opacity="1" stroke="none" stroke-opacity="1" stroke-width="1" opacity="1" font-family="sans-serif" font-size="10px" font-weight="normal" text-anchor="end" dominant-baseline="middle" >1.10</text>
<text x="-10" y="113.75708" dx="0" dy="0" textLength="none" fill="#000000" fill-opacity="1" stroke="none" stroke-opacity="1" stroke-width="1" opacity="1" font-family="sans-serif" font-size="10px" font-weight="normal" text-anchor="end" dominant-baseline="middle" >1.46</text>
<text x="-10" y="56.87854" dx="0" dy="0" textLength="none" fill="#000000" fill-opacity="1" stroke="none" stroke-opacity="1" stroke-width="1" opacity="1" font-family="sans-serif" font-size="10px" font-weight="normal" text-anchor="end" dominant-baseline="middle" >1.83</text>
<text x="-10" y="398.14978" dx="0" dy="0" textLength="none" fill="#000000" fill-opacity="1" stroke="none" stroke-opacity="1" stroke-width="1" opacity="1" font-family="sans-serif" font-size="10px" font-weight="normal" text-anchor="end" dominant-baseline="middle" >-0.37</text>
<text x="-10" y="455.02832" dx="0" dy="0" textLength="none" fill="#000000" fill-opacity="1" stroke="none" stroke-opacity="1" stroke-width="1" opacity="1" font-family="sans-serif" font-size="10px" font-weight="normal" text-anchor="end" dominant-baseline="middle" >-0.73</text>
<text x="-10" y="511.90686" dx="0" dy="0" textLength="none" fill="#000000" fill-opacity="1" stroke="none" stroke-opacity="1" stroke-width="1" opacity="1" font-family="sans-serif" font-size="10px" font-weight="normal" text-anchor="end" dominant-baseline="middle" >-1.10</text>
<polyline points="176.37793 221.88919 177.87793 221.88919 182.37793 226.38919 186.87793 221.88919 188.37793 221.88919 188.37793 223.38919 183.87793 227.88919 188.37793 232.38919 188.37793 233.88919 186.87793 233.88919 182.37793 229.38919 177.87793 233.88919 176.37793 233.88919 176.37793 232.38919 180.87793 227.88919 176.37793 223.38919 176.37793 221.88919 " fill="#FF0000" fill-opacity="1" stroke="none" stroke-opacity="1" stroke-width="1" opacity="1" />
<circle cx="347.27725" cy="341.27124" r="8" fill="none" fill-opacity="1" stroke="#00FF00" stroke-opacity="1" stroke-width="2" opacity="1" />
<text x="363.27725" y="345.27124" dx="0" dy="0" textLength="none" fill="#00CC00" fill-opacity="1" stroke="none" stroke-opacity="1" stroke-width="1" opacity="1" font-family="sans-serif" font-size="12px" font-weight="700" text-anchor="start" dominant-baseline="auto" >Bottom</text>
</svg>