<?xml version="1.0" encoding="UTF-8" standalone="no"?>
<!DOCTYPE svg PUBLIC "-//W3C//DTD SVG 1.1//EN" "http://www.w3.org/Graphics/SVG/1.1/DTD/svg11.dtd">
<svg width="612" height="612" viewBox="-50 -50 612 612" xmlns="http://www.w3.org/2000/svg" xmlns:xlink="http://www.w3.org/1999/xlink">
<rect x="-50" y="-50" width="612" height="612" rx="auto" ry="auto" fill="#FFFFFF" fill-opacity="1.0e+00" stroke="none" stroke-opacity="1.0e+00" stroke-width="1" opacity="1.0e+00" />
<line x1="46.54545593261719" y1="0" x2="46.54545593261719" y2="512" stroke="#000000" stroke-opacity="1" stroke-width="2" stroke-linecap="butt" opacity="0.20000000298023224" />
<line x1="139.6363525390625" y1="0" x2="139.6363525390625" y2="512" stroke="#000000" stroke-opacity="1" stroke-width="2" stroke-linecap="butt" opacity="0.20000000298023224" />
<line x1="232.72726440429688" y1="0" x2="232.72726440429688" y2="512" stroke="#000000" stroke-opacity="1" stroke-width="2" stroke-linecap="butt" opacity="0.20000000298023224" />
<line x1="325.81817626953125" y1="0" x2="325.81817626953125" y2="512" stroke="#000000" stroke-opacity="1" stroke-width="2" stroke-linecap="butt" opacity="0.20000000298023224" />
<line x1="418.9090576171875" y1="0" x2="418.9090576171875" y2="512" stroke="#000000" stroke-opacity="1" stroke-width="2" stroke-linecap="butt" opacity="0.20000000298023224" />
<line x1="512" y1="0" x2="512" y2="512" stroke="#000000" stroke-opacity="1" stroke-width="2" stroke-linecap="butt" opacity="0.20000000298023224" />
<line x1="0" y1="512" x2="512" y2="512" stroke="#000000" stroke-opacity="1" stroke-width="2" stroke-linecap="butt" opacity="0.20000000298023224" />
<line x1="0" y1="384" x2="512" y2="384" stroke="#000000" stroke-opacity="1" stroke-width="2" stroke-linecap="butt" opacity="0.20000000298023224" />
<line x1="0" y1="256" x2="512" y2="256" stroke="#000000" stroke-opacity="1" stroke-width="2" stroke-linecap="butt" opacity="0.20000000298023224" />
<line x1="0" y1="128" x2="512" y2="128" stroke="#000000" stroke-opacity="1" stroke-width="2" stroke-linecap="butt" opacity="0.20000000298023224" />
<line x1="0" y1="0.000030517578125" x2="512" y2="0.000030517578125" stroke="#000000" stroke-opacity="1" stroke-width="2" stroke-linecap="butt" opacity="0.20000000298023224" />
<path d="M 0 512 C 0.46545466780662537 510.7200012207031 1.3963645696640015 508.1600036621094 2.327273368835449 505.6000061035156 C 3.2581820487976074 503.0400085449219 3.723635196685791 501.760009765625 4.654543876647949 499.20001220703125 C 5.585452556610107 496.6400146484375 6.050908088684082 495.3599853515625 6.981817245483398 492.79998779296875 C 7.912726402282715 490.239990234375 8.378181457519531 488.9599914550781 9.309090614318848 486.3999938964844 C 10.239999771118164 483.8399963378906 10.70545482635498 482.55999755859375 11.636363983154297 480 C 12.567273139953613 477.44000244140625 13.03272819519043 476.1600036621094 13.963637351989746 473.6000061035156 C 14.894546508789062 471.0400085449219 15.359999656677246 469.760009765625 16.290908813476562 467.20001220703125 C 17.221817016601562 464.6400146484375 17.687271118164062 463.3600158691406 18.618181228637695 460.8000183105469 C 19.549091339111328 458.2400207519531 20.014545440673828 456.9599914550781 20.94545555114746 454.3999938964844 C 21.876365661621094 451.8399963378906 22.341819763183594 450.55999755859375 23.272727966308594 448 C 24.203636169433594 445.44000244140625 24.66908836364746 444.1600036621094 25.599998474121094 441.6000061035156 C 26.530908584594727 439.0400085449219 26.99636459350586 437.760009765625 27.927274703979492 435.20001220703125 C 28.858184814453125 432.6400146484375 29.323637008666992 431.3599853515625 30.254545211791992 428.79998779296875 C 31.185453414916992 426.239990234375 31.650907516479492 424.96002197265625 32.581817626953125 422.4000244140625 C 33.512725830078125 419.84002685546875 33.97818374633789 418.55999755859375 34.90909194946289 416 C 35.84000015258789 413.44000244140625 36.305458068847656 412.1600036621094 37.236366271972656 409.6000061035156 C 38.167274475097656 407.0400085449219 38.632728576660156 405.760009765625 39.563636779785156 403.20001220703125 C 40.494544982910156 400.6400146484375 40.96000289916992 399.3600158691406 41.89091110229492 396.8000183105469 C 42.82181930541992 394.2400207519531 43.28727340698242 392.96002197265625 44.21818161010742 390.4000244140625 C 45.14908981323242 387.84002685546875 45.61454772949219 386.55999755859375 46.54545593261719 384 C 47.47636413574219 381.44000244140625 47.94181823730469 380.1600036621094 48.87272644042969 377.6000061035156 C 49.80363464355469 375.0400085449219 50.26909255981445 373.760009765625 51.20000076293945 371.20001220703125 C 52.13090896606445 368.6400146484375 52.59636688232422 367.3599853515625 53.52727508544922 364.79998779296875 C 54.45818328857422 362.239990234375 54.923641204833984 360.9599914550781 55.854549407958984 358.3999938964844 C 56.785457611083984 355.8399963378906 57.250911712646484 354.55999755859375 58.181819915771484 352 C 59.112728118896484 349.44000244140625 59.578182220458984 348.1600036621094 60.509090423583984 345.6000061035156 C 61.439998626708984 343.0400085449219 61.90545654296875 341.760009765625 62.83636474609375 339.20001220703125 C 63.76727294921875 336.6400146484375 64.23272705078125 335.3600158691406 65.16363525390625 332.8000183105469 C 66.09454345703125 330.2400207519531 66.56000518798828 328.9599914550781 67.49091339111328 326.3999938964844 C 68.42182159423828 323.8399963378906 68.88727569580078 322.55999755859375 69.81818389892578 320 C 70.74909210205078 317.44000244140625 71.21454620361328 316.1600341796875 72.14545440673828 313.60003662109375 C 73.07636260986328 311.0400390625 73.54182434082031 309.760009765625 74.47273254394531 307.20001220703125 C 75.40364074707031 304.6400146484375 75.86909484863281 303.3599853515625 76.80000305175781 300.79998779296875 C 77.73091125488281 298.239990234375 78.19636535644531 296.96002197265625 79.12727355957031 294.4000244140625 C 80.05818176269531 291.84002685546875 80.52363586425781 290.55999755859375 81.45454406738281 288 C 82.38545227050781 285.44000244140625 82.85091400146484 284.1600341796875 83.78182220458984 281.60003662109375 C 84.71273040771484 279.0400390625 85.17818450927734 277.760009765625 86.10909271240234 275.20001220703125 C 87.04000091552734 272.6400146484375 87.50546264648438 271.3599853515625 88.43637084960938 268.79998779296875 C 89.36727905273438 266.239990234375 89.83273315429688 264.96002197265625 90.76364135742188 262.4000244140625 C 91.69454956054688 259.84002685546875 92.16000366210938 258.55999755859375 93.09091186523438 256 C 94.02182006835938 253.44000244140625 94.4872817993164 252.16000366210938 95.4181900024414 249.60000610351562 C 96.3490982055664 247.04000854492188 96.81454467773438 245.760009765625 97.74545288085938 243.20001220703125 C 98.67636108398438 240.6400146484375 99.1418228149414 239.3599853515625 100.0727310180664 236.79998779296875 C 101.0036392211914 234.239990234375 101.4690933227539 232.96002197265625 102.4000015258789 230.4000244140625 C 103.3309097290039 227.84002685546875 103.79637145996094 226.5600128173828 104.72727966308594 224 C 105.65818786621094 221.4399871826172 106.12364959716797 220.15997314453125 107.05455780029297 217.5999755859375 C 107.98546600341797 215.03997802734375 108.45091247558594 213.76004028320312 109.38182067871094 211.20004272460938 C 110.31272888183594 208.64004516601562 110.77819061279297 207.36000061035156 111.70909881591797 204.79998779296875 C 112.64000701904297 202.23997497558594 113.10546112060547 200.95999145507812 114.03636932373047 198.39999389648438 C 114.96727752685547 195.83999633789062 115.43273162841797 194.56002807617188 116.36363983154297 192.00003051757812 C 117.29454803466797 189.44003295898438 117.760009765625 188.15997314453125 118.69091796875 185.5999755859375 C 119.621826171875 183.03997802734375 120.08727264404297 181.760009765625 121.01818084716797 179.20001220703125 C 121.94908905029297 176.6400146484375 122.41455078125 175.36001586914062 123.345458984375 172.80001831054688 C 124.2763671875 170.24002075195312 124.7418212890625 168.95999145507812 125.6727294921875 166.39999389648438 C 126.6036376953125 163.83999633789062 127.069091796875 162.55999755859375 128 160 C 128.930908203125 157.44000244140625 129.39637756347656 156.16000366210938 130.32728576660156 153.60000610351562 C 131.25819396972656 151.04000854492188 131.7236328125 149.760009765625 132.654541015625 147.20001220703125 C 133.58544921875 144.6400146484375 134.05091857910156 143.3599853515625 134.98182678222656 140.79998779296875 C 135.91273498535156 138.239990234375 136.37818908691406 136.96002197265625 137.30909729003906 134.4000244140625 C 138.24000549316406 131.84002685546875 138.70545959472656 130.55999755859375 139.63636779785156 128 C 140.56727600097656 125.44000244140625 141.03273010253906 124.1600341796875 141.96363830566406 121.60003662109375 C 142.89454650878906 119.0400390625 143.36001586914062 117.76001739501953 144.29092407226562 115.20001220703125 C 145.22183227539062 112.64000701904297 145.68728637695312 111.36001586914062 146.61819458007812 108.80001831054688 C 147.54910278320312 106.24002075195312 148.01455688476562 104.96002197265625 148.94546508789062 102.4000244140625 C 149.87637329101562 99.84002685546875 150.34182739257812 98.56002807617188 151.27273559570312 96.00003051757812 C 152.20364379882812 93.44003295898438 152.66909790039062 92.16004180908203 153.60000610351562 89.60003662109375 C 154.53091430664062 87.04003143310547 154.99636840820312 85.76001739501953 155.92727661132812 83.20001220703125 C 156.85818481445312 80.64000701904297 157.32363891601562 79.36001586914062 158.25454711914062 76.80001831054688 C 159.18545532226562 74.24002075195312 159.65090942382812 72.96002197265625 160.58181762695312 70.4000244140625 C 161.51272583007812 67.84002685546875 161.97817993164062 66.56002807617188 162.90908813476562 64.00003051757812 C 163.83999633789062 61.440032958984375 164.3054656982422 60.16004180908203 165.2363739013672 57.60003662109375 C 166.1672821044922 55.04003143310547 166.6327362060547 53.76001739501953 167.5636444091797 51.20001220703125 C 168.4945526123047 48.64000701904297 168.9600067138672 47.360015869140625 169.8909149169922 44.800018310546875 C 170.8218231201172 42.240020751953125 171.2872772216797 40.96002197265625 172.2181854248047 38.4000244140625 C 173.1490936279297 35.84002685546875 173.6145477294922 34.560028076171875 174.5454559326172 32.000030517578125 C 175.4763641357422 29.440032958984375 175.9418182373047 28.1600399017334 176.8727264404297 25.60003662109375 C 177.8036346435547 23.0400333404541 178.26910400390625 21.7600154876709 179.20001220703125 19.20001220703125 C 180.13092041015625 16.6400089263916 180.59637451171875 15.360015869140625 181.52728271484375 12.800018310546875 C 182.45819091796875 10.240020751953125 182.92364501953125 8.96002197265625 183.85455322265625 6.4000244140625 C 184.78546142578125 3.84002685546875 185.25091552734375 2.560028076171875 186.18182373046875 0.000030517578125 " fill="none" fill-opacity="1" stroke="#FF0000" stroke-opacity="1" stroke-width="2" opacity="1" />
<path d="M 51.20000076293945 512 C 52.13090896606445 499.78570556640625 52.59636688232422 497.16668701171875 53.52727508544922 489.4603271484375 C 54.45818328857422 481.75396728515625 54.923641204833984 479.1474914550781 55.854549407958984 473.4681701660156 C 56.785457611083984 467.7888488769531 57.250911712646484 465.5716247558594 58.181819915771484 461.0636901855469 C 59.112728118896484 456.5557556152344 59.578182220458984 454.6693420410156 60.509090423583984 450.928466796875 C 61.439998626708984 447.1875915527344 61.90545654296875 445.5577087402344 62.83636474609375 442.3592834472656 C 63.76727294921875 439.1608581542969 64.23272705078125 437.7304382324219 65.16363525390625 434.93634033203125 C 66.09454345703125 432.1422424316406 66.56000518798828 430.86968994140625 67.49091339111328 428.3887939453125 C 68.42182159423828 425.90789794921875 68.88727569580078 424.7629089355469 69.81818389892578 422.5318603515625 C 70.74909210205078 420.3008117675781 71.21454620361328 419.2606201171875 72.14545440673828 417.23358154296875 C 73.07636260986328 415.20654296875 73.54182434082031 414.2539367675781 74.47273254394531 412.3966369628906 C 75.40364074707031 410.5393371582031 75.86909484863281 409.6609191894531 76.80000305175781 407.94708251953125 C 77.73091125488281 406.2332458496094 78.19636535644531 405.4184265136719 79.12727355957031 403.82745361328125 C 80.05818176269531 402.2364807128906 80.52363586425781 401.47674560546875 81.45454406738281 399.9921569824219 C 82.38545227050781 398.507568359375 82.85091400146484 397.7960205078125 83.78182220458984 396.40447998046875 C 84.71273040771484 395.012939453125 85.17818450927734 394.3439025878906 86.10909271240234 393.0343933105469 C 87.04000091552734 391.7248840332031 87.50546264648438 391.09356689453125 88.43637084960938 389.8569641113281 C 89.36727905273438 388.620361328125 89.83273315429688 388.02276611328125 90.76364135742188 386.85137939453125 C 91.69454956054688 385.67999267578125 92.16000366210938 385.11273193359375 93.09091186523438 384 C 94.02182006835938 382.88726806640625 94.4872817993164 382.3474426269531 95.4181900024414 381.28778076171875 C 96.3490982055664 380.2281188964844 96.81454467773438 379.713134765625 97.74545288085938 378.70172119140625 C 98.67636108398438 377.6903076171875 99.1418228149414 377.19805908203125 100.0727310180664 376.2306823730469 C 101.0036392211914 375.2633056640625 101.4690933227539 374.7918395996094 102.4000015258789 373.86480712890625 C 103.3309097290039 372.9377746582031 103.79637145996094 372.4854431152344 104.72727966308594 371.59552001953125 C 105.65818786621094 370.7055969238281 106.12364959716797 370.2709045410156 107.05455780029297 369.4152526855469 C 107.98546600341797 368.5596008300781 108.45091247558594 368.14117431640625 109.38182067871094 367.3172607421875 C 110.31272888183594 366.49334716796875 110.77819061279297 366.090087890625 111.70909881591797 365.2956237792969 C 112.64000701904297 364.50115966796875 113.10546112060547 364.1119689941406 114.03636932373047 363.34490966796875 C 114.96727752685547 362.5778503417969 115.43273162841797 362.2017822265625 116.36363983154297 361.4603271484375 C 117.29454803466797 360.7188720703125 117.760009765625 360.3551025390625 118.69091796875 359.6375732421875 C 119.621826171875 358.9200439453125 120.08727264404297 358.5677795410156 121.01818084716797 357.8726806640625 C 121.94908905029297 357.1775817871094 122.41455078125 356.8360595703125 123.345458984375 356.16204833984375 C 124.2763671875 355.488037109375 124.7418212890625 355.15673828125 125.6727294921875 354.5025634765625 C 126.6036376953125 353.848388671875 127.069091796875 353.526611328125 128 352.89111328125 C 128.930908203125 352.255615234375 129.39637756347656 351.9429626464844 130.32728576660156 351.32513427734375 C 131.25819396972656 350.7073059082031 131.7236328125 350.4031677246094 132.654541015625 349.8020324707031 C 133.58544921875 349.2008972167969 134.05091857910156 348.9048156738281 134.98182678222656 348.31951904296875 C 135.91273498535156 347.7342224121094 136.37818908691406 347.44586181640625 137.30909729003906 346.8755798339844 C 138.24000549316406 346.3052978515625 138.70545959472656 346.0241394042969 139.63636779785156 345.4681396484375 C 140.56727600097656 344.9121398925781 141.03273010253906 344.6379699707031 141.96363830566406 344.09552001953125 C 142.89454650878906 343.5530700683594 143.36001586914062 343.28546142578125 144.29092407226562 342.75592041015625 C 145.22183227539062 342.22637939453125 145.68728637695312 341.965087890625 146.61819458007812 341.4478759765625 C 147.54910278320312 340.9306640625 148.01455688476562 340.6753234863281 148.94546508789062 340.1698913574219 C 149.87637329101562 339.6644592285156 150.34182739257812 339.41485595703125 151.27273559570312 338.920654296875 C 152.20364379882812 338.42645263671875 152.66909790039062 338.18231201171875 153.60000610351562 337.6988525390625 C 154.53091430664062 337.21539306640625 154.99636840820312 336.97650146484375 155.92727661132812 336.5033264160156 C 156.85818481445312 336.0301513671875 157.32363891601562 335.7962951660156 158.25454711914062 335.3329772949219 C 159.18545532226562 334.8696594238281 159.65090942382812 334.640625 160.58181762695312 334.186767578125 C 161.51272583007812 333.73291015625 161.97817993164062 333.5084533691406 162.90908813476562 333.0636901855469 C 163.83999633789062 332.6189270019531 164.3054656982422 332.3989562988281 165.2363739013672 331.962890625 C 166.1672821044922 331.5268249511719 166.6327362060547 331.31109619140625 167.5636444091797 330.8834228515625 C 168.4945526123047 330.45574951171875 168.9600067138672 330.2441101074219 169.8909149169922 329.82452392578125 C 170.8218231201172 329.4049377441406 171.2872772216797 329.197265625 172.2181854248047 328.78546142578125 C 173.1490936279297 328.3736572265625 173.6145477294922 328.1697692871094 174.5454559326172 327.76544189453125 C 175.4763641357422 327.3611145019531 175.9418182373047 327.1609191894531 176.8727264404297 326.7637939453125 C 177.8036346435547 326.3666687011719 178.26910400390625 326.16998291015625 179.20001220703125 325.77984619140625 C 180.13092041015625 325.38970947265625 180.59637451171875 325.19647216796875 181.52728271484375 324.81304931640625 C 182.45819091796875 324.42962646484375 182.92364501953125 324.2397155761719 183.85455322265625 323.86279296875 C 184.78546142578125 323.4858703613281 185.25091552734375 323.29913330078125 186.18182373046875 322.9284973144531 C 187.11273193359375 322.557861328125 187.5782012939453 322.37420654296875 188.5091094970703 322.0096435546875 C 189.4400177001953 321.64508056640625 189.9054718017578 321.4643859863281 190.8363800048828 321.105712890625 C 191.7672882080078 320.7470397949219 192.2327423095703 320.5692138671875 193.1636505126953 320.21624755859375 C 194.0945587158203 319.86328125 194.55999755859375 319.68829345703125 195.49090576171875 319.3408203125 C 196.42181396484375 318.99334716796875 196.8872833251953 318.821044921875 197.8181915283203 318.47894287109375 C 198.7490997314453 318.1368408203125 199.2145538330078 317.9671936035156 200.1454620361328 317.6302490234375 C 201.0763702392578 317.2933044433594 201.54183959960938 317.1261901855469 202.47274780273438 316.7942810058594 C 203.40365600585938 316.4623718261719 203.8690948486328 316.2977294921875 204.8000030517578 315.970703125 C 205.7309112548828 315.6436767578125 206.1963653564453 315.4814453125 207.1272735595703 315.1591796875 C 208.0581817626953 314.8369140625 208.52365112304688 314.677001953125 209.45455932617188 314.35931396484375 C 210.38546752929688 314.0416259765625 210.85092163085938 313.8840026855469 211.78182983398438 313.57080078125 C 212.71273803710938 313.2575988769531 213.17820739746094 313.10211181640625 214.10911560058594 312.79327392578125 C 215.04002380371094 312.48443603515625 215.50546264648438 312.3311767578125 216.43637084960938 312.02655029296875 C 217.36727905273438 311.721923828125 217.83273315429688 311.5706787109375 218.76364135742188 311.2701721191406 C 219.69454956054688 310.96966552734375 220.16000366210938 310.8204650878906 221.09091186523438 310.52398681640625 C 222.02182006835938 310.2275085449219 222.48728942871094 310.080322265625 223.41819763183594 309.7877197265625 C 224.34910583496094 309.4951171875 224.8145751953125 309.3498229980469 225.7454833984375 309.06103515625 C 226.6763916015625 308.7722473144531 227.14183044433594 308.62884521484375 228.07273864746094 308.34375 C 229.00364685058594 308.05865478515625 229.46908569335938 307.91705322265625 230.39999389648438 307.63555908203125 C 231.33090209960938 307.35406494140625 231.79637145996094 307.21429443359375 232.72727966308594 306.93634033203125 C 233.65818786621094 306.65838623046875 234.1236572265625 306.52032470703125 235.0545654296875 306.24578857421875 C 235.9854736328125 305.97125244140625 236.45091247558594 305.8348388671875 237.38182067871094 305.56365966796875 C 238.31272888183594 305.29248046875 238.7781982421875 305.1577453613281 239.7091064453125 304.88983154296875 C 240.6400146484375 304.6219177246094 241.10546875 304.4888000488281 242.036376953125 304.2240905761719 C 242.96728515625 303.9593811035156 243.4327392578125 303.82781982421875 244.3636474609375 303.56622314453125 C 245.2945556640625 303.30462646484375 245.760009765625 303.1746520996094 246.69091796875 302.91607666015625 C 247.621826171875 302.6575012207031 248.0872802734375 302.52899169921875 249.0181884765625 302.27337646484375 C 249.9490966796875 302.01776123046875 250.41455078125 301.8907470703125 251.345458984375 301.6380615234375 C 252.2763671875 301.3853759765625 252.74183654785156 301.2597961425781 253.67274475097656 301.00994873046875 C 254.60365295410156 300.7601013183594 255.069091796875 300.6358642578125 256 300.3887939453125 C 256.930908203125 300.1417236328125 257.3963928222656 300.0188903808594 258.3273010253906 299.7745361328125 C 259.2582092285156 299.5301818847656 259.7236328125 299.40869140625 260.654541015625 299.1669921875 C 261.58544921875 298.92529296875 262.0509338378906 298.8051452636719 262.9818420410156 298.5660400390625 C 263.9127502441406 298.3269348144531 264.3782043457031 298.2080383300781 265.3091125488281 297.9714660644531 C 266.2400207519531 297.7348937988281 266.7054748535156 297.6173095703125 267.6363830566406 297.38323974609375 C 268.5672912597656 297.149169921875 269.0327453613281 297.0327453613281 269.9636535644531 296.8011169433594 C 270.8945617675781 296.5694885253906 271.3600158691406 296.454345703125 272.2909240722656 296.22509765625 C 273.2218322753906 295.995849609375 273.6872863769531 295.8818054199219 274.6181945800781 295.6549072265625 C 275.5491027832031 295.4280090332031 276.0145568847656 295.3151550292969 276.9454650878906 295.0905456542969 C 277.8763732910156 294.8659362792969 278.3418273925781 294.7542419433594 279.2727355957031 294.5318603515625 C 280.2036437988281 294.3094787597656 280.6690979003906 294.1988525390625 281.6000061035156 293.97869873046875 C 282.5309143066406 293.758544921875 282.9963684082031 293.6490478515625 283.9272766113281 293.4310302734375 C 284.8581848144531 293.2130126953125 285.3236389160156 293.10455322265625 286.2545471191406 292.888671875 C 287.1854553222656 292.67279052734375 287.65093994140625 292.56536865234375 288.58184814453125 292.3515625 C 289.51275634765625 292.13775634765625 289.9781799316406 292.0314025878906 290.9090881347656 291.81964111328125 C 291.8399963378906 291.6078796386719 292.30548095703125 291.50250244140625 293.23638916015625 291.292724609375 C 294.16729736328125 291.08294677734375 294.6327209472656 290.97857666015625 295.5636291503906 290.770751953125 C 296.4945373535156 290.56292724609375 296.96002197265625 290.4595031738281 297.89093017578125 290.25360107421875 C 298.82183837890625 290.0476989746094 299.28729248046875 289.9452819824219 300.21820068359375 289.74127197265625 C 301.14910888671875 289.5372619628906 301.61456298828125 289.43572998046875 302.54547119140625 289.23358154296875 C 303.47637939453125 289.03143310546875 303.94183349609375 288.93084716796875 304.87274169921875 288.73052978515625 C 305.80364990234375 288.53021240234375 306.26910400390625 288.43048095703125 307.20001220703125 288.23193359375 C 308.13092041015625 288.03338623046875 308.59637451171875 287.9345703125 309.52728271484375 287.73779296875 C 310.45819091796875 287.541015625 310.92364501953125 287.443115234375 311.85455322265625 287.248046875 C 312.78546142578125 287.052978515625 313.25091552734375 286.95587158203125 314.18182373046875 286.76251220703125 C 315.11273193359375 286.56915283203125 315.57818603515625 286.472900390625 316.50909423828125 286.2812194824219 C 317.44000244140625 286.08953857421875 317.90545654296875 285.994140625 318.83636474609375 285.8040771484375 C 319.76727294921875 285.614013671875 320.23272705078125 285.5193786621094 321.16363525390625 285.3309326171875 C 322.09454345703125 285.1424865722656 322.5600280761719 285.0486755371094 323.4909362792969 284.86181640625 C 324.4218444824219 284.6749572753906 324.88726806640625 284.58197021484375 325.81817626953125 284.39666748046875 C 326.74908447265625 284.21136474609375 327.2145690917969 284.11907958984375 328.1454772949219 283.935302734375 C 329.0763854980469 283.75152587890625 329.5418395996094 283.6600341796875 330.4727478027344 283.477783203125 C 331.4036560058594 283.2955322265625 331.8691101074219 283.20477294921875 332.8000183105469 283.02398681640625 C 333.7309265136719 282.84320068359375 334.1963806152344 282.753173828125 335.1272888183594 282.5738525390625 C 336.0581970214844 282.39453125 336.5236511230469 282.3052673339844 337.4545593261719 282.12738037109375 C 338.3854675292969 281.9494934082031 338.8509216308594 281.86090087890625 339.7818298339844 281.6844177246094 C 340.7127380371094 281.5079345703125 341.1781921386719 281.4200744628906 342.1091003417969 281.2449951171875 C 343.0400085449219 281.0699157714844 343.5054626464844 280.9826965332031 344.4363708496094 280.8089599609375 C 345.3672790527344 280.6352233886719 345.832763671875 280.5487365722656 346.763671875 280.3763732910156 C 347.694580078125 280.2040100097656 348.1600036621094 280.1181335449219 349.0909118652344 279.94708251953125 C 350.0218200683594 279.7760314941406 350.4873046875 279.69085693359375 351.418212890625 279.5211181640625 C 352.34912109375 279.35137939453125 352.8145446777344 279.266845703125 353.7454528808594 279.098388671875 C 354.6763610839844 278.929931640625 355.141845703125 278.8460388183594 356.07275390625 278.6788330078125 C 357.003662109375 278.5116271972656 357.4691162109375 278.4283752441406 358.4000244140625 278.2624206542969 C 359.3309326171875 278.0964660644531 359.79638671875 278.0138244628906 360.727294921875 277.84912109375 C 361.658203125 277.6844177246094 362.1236572265625 277.6023864746094 363.0545654296875 277.4388732910156 C 363.9854736328125 277.2753601074219 364.450927734375 277.1939392089844 365.3818359375 277.0316162109375 C 366.312744140625 276.8692932128906 366.7781982421875 276.7884521484375 367.7091064453125 276.6273193359375 C 368.6400146484375 276.4661865234375 369.10546875 276.38592529296875 370.036376953125 276.2259521484375 C 370.96728515625 276.06597900390625 371.4327392578125 275.9862976074219 372.3636474609375 275.82745361328125 C 373.2945556640625 275.6686096191406 373.760009765625 275.5895080566406 374.69091796875 275.4317932128906 C 375.621826171875 275.2740783691406 376.0873107910156 275.1955261230469 377.0182189941406 275.0389404296875 C 377.9491271972656 274.8823547363281 378.41455078125 274.8043518066406 379.345458984375 274.64886474609375 C 380.2763671875 274.4933776855469 380.7418518066406 274.4158935546875 381.6727600097656 274.261474609375 C 382.6036682128906 274.1070556640625 383.069091796875 274.0301208496094 384 273.87677001953125 C 384.930908203125 273.7234191894531 385.3963928222656 273.6470031738281 386.3273010253906 273.49468994140625 C 387.2582092285156 273.3423767089844 387.7236633300781 273.2665100097656 388.6545715332031 273.115234375 C 389.5854797363281 272.9639587402344 390.0509033203125 272.8885803222656 390.9818115234375 272.73834228515625 C 391.9127197265625 272.5881042480469 392.37823486328125 272.51324462890625 393.30914306640625 272.364013671875 C 394.24005126953125 272.21478271484375 394.7054748535156 272.14044189453125 395.6363830566406 271.9921875 C 396.5672912597656 271.84393310546875 397.0327453613281 271.77008056640625 397.9636535644531 271.622802734375 C 398.8945617675781 271.47552490234375 399.3600158691406 271.40216064453125 400.2909240722656 271.255859375 C 401.2218322753906 271.10955810546875 401.687255859375 271.03668212890625 402.6181640625 270.891357421875 C 403.549072265625 270.74603271484375 404.01458740234375 270.673583984375 404.94549560546875 270.5291748046875 C 405.87640380859375 270.384765625 406.3418273925781 270.3128356933594 407.2727355957031 270.16937255859375 C 408.2036437988281 270.0259094238281 408.6690979003906 269.9544372558594 409.6000061035156 269.8118896484375 C 410.5309143066406 269.6693420410156 410.99639892578125 269.59832763671875 411.92730712890625 269.4566955566406 C 412.85821533203125 269.3150634765625 413.3236389160156 269.2445068359375 414.2545471191406 269.103759765625 C 415.1854553222656 268.9630126953125 415.6509704589844 268.89288330078125 416.5818786621094 268.7530212402344 C 417.5127868652344 268.6131591796875 417.97821044921875 268.54345703125 418.90911865234375 268.40447998046875 C 419.84002685546875 268.2655029296875 420.30548095703125 268.1962890625 421.23638916015625 268.05816650390625 C 422.16729736328125 267.9200439453125 422.63275146484375 267.8511962890625 423.56365966796875 267.71392822265625 C 424.49456787109375 267.57666015625 424.9600524902344 267.50823974609375 425.8909606933594 267.371826171875 C 426.8218688964844 267.23541259765625 427.28729248046875 267.1674499511719 428.21820068359375 267.0318603515625 C 429.14910888671875 266.8962707519531 429.61456298828125 266.82867431640625 430.54547119140625 266.69390869140625 C 431.47637939453125 266.55914306640625 431.94183349609375 266.4919738769531 432.87274169921875 266.3580322265625 C 433.80364990234375 266.2240905761719 434.2691345214844 266.1573181152344 435.2000427246094 266.024169921875 C 436.1309509277344 265.8910217285156 436.5964050292969 265.8246154785156 437.5273132324219 265.6922607421875 C 438.4582214355469 265.5599060058594 438.92364501953125 265.49395751953125 439.85455322265625 265.36236572265625 C 440.78546142578125 265.23077392578125 441.25091552734375 265.1651611328125 442.18182373046875 265.03436279296875 C 443.11273193359375 264.903564453125 443.5782165527344 264.8384094238281 444.5091247558594 264.7083740234375 C 445.4400329589844 264.5783386230469 445.9054870605469 264.51348876953125 446.8363952636719 264.38421630859375 C 447.7673034667969 264.25494384765625 448.2327575683594 264.19049072265625 449.1636657714844 264.06195068359375 C 450.0945739746094 263.93341064453125 450.55999755859375 263.8693542480469 451.49090576171875 263.7415466308594 C 452.42181396484375 263.6137390136719 452.8872985839844 263.550048828125 453.8182067871094 263.4229736328125 C 454.7491149902344 263.2958984375 455.2145690917969 263.2325439453125 456.1454772949219 263.106201171875 C 457.0763854980469 262.9798583984375 457.5418395996094 262.9168701171875 458.4727478027344 262.791259765625 C 459.4036560058594 262.6656494140625 459.869140625 262.6029968261719 460.800048828125 262.47808837890625 C 461.73095703125 262.3531799316406 462.1963806152344 262.2908935546875 463.1272888183594 262.16668701171875 C 464.0581970214844 262.04248046875 464.5236511230469 261.98052978515625 465.4545593261719 261.85699462890625 C 466.3854675292969 261.73345947265625 466.8509216308594 261.671875 467.7818298339844 261.54901123046875 C 468.7127380371094 261.4261474609375 469.17822265625 261.36492919921875 470.109130859375 261.24273681640625 C 471.0400390625 261.12054443359375 471.5054931640625 261.05963134765625 472.4364013671875 260.9381103515625 C 473.3673095703125 260.81658935546875 473.8327331542969 260.75604248046875 474.7636413574219 260.63519287109375 C 475.6945495605469 260.51434326171875 476.1600036621094 260.4540710449219 477.0909118652344 260.3338623046875 C 478.0218200683594 260.2136535644531 478.4873046875 260.1537170410156 479.418212890625 260.0341796875 C 480.34912109375 259.9146423339844 480.8145751953125 259.8550109863281 481.7454833984375 259.7361145019531 C 482.6763916015625 259.6172180175781 483.141845703125 259.55792236328125 484.07275390625 259.43963623046875 C 485.003662109375 259.32135009765625 485.4690856933594 259.26239013671875 486.3999938964844 259.1447448730469 C 487.3309020996094 259.027099609375 487.79638671875 258.9684143066406 488.727294921875 258.85137939453125 C 489.658203125 258.7343444824219 490.1236572265625 258.6759948730469 491.0545654296875 258.5595703125 C 491.9854736328125 258.4431457519531 492.450927734375 258.3851013183594 493.3818359375 258.269287109375 C 494.312744140625 258.1534729003906 494.7782287597656 258.0957336425781 495.7091369628906 257.98052978515625 C 496.6400451660156 257.8653259277344 497.10546875 257.807861328125 498.036376953125 257.6932373046875 C 498.96728515625 257.57861328125 499.4327392578125 257.5214538574219 500.3636474609375 257.40740966796875 C 501.2945556640625 257.2933654785156 501.760009765625 257.23651123046875 502.69091796875 257.1230773925781 C 503.621826171875 257.0096435546875 504.0873107910156 256.95306396484375 505.0182189941406 256.8401794433594 C 505.9491271972656 256.727294921875 506.4145812988281 256.6710205078125 507.3454895019531 256.5587158203125 C 508.2763977050781 256.4464111328125 508.7418212890625 256.39044189453125 509.6727294921875 256.2786865234375 C 510.6036376953125 256.16693115234375 511.5345458984375 256.05572509765625 512 256 " fill="none" fill-opacity="1" stroke="#00FF00" stroke-opacity="1" stroke-width="2" opacity="1" />
<path d="M 102.4000015258789 512 C 105.65818786621094 512.2935791015625 106.12364959716797 508.0382385253906 107.05455780029297 504.7438049316406 C 107.98546600341797 501.4493713378906 108.45091247558594 500.03863525390625 109.38182067871094 497.272705078125 C 110.31272888183594 494.50677490234375 110.77819061279297 493.2887878417969 111.70909881591797 490.91412353515625 C 112.64000701904297 488.5394592285156 113.10546112060547 487.47308349609375 114.03636932373047 485.3993835449219 C 114.96727752685547 483.32568359375 115.43273162841797 482.38092041015625 116.36363983154297 480.5455627441406 C 117.29454803466797 478.710205078125 117.760009765625 477.86474609375 118.69091796875 476.2225646972656 C 119.621826171875 474.58038330078125 120.08727264404297 473.8172912597656 121.01818084716797 472.33465576171875 C 121.94908905029297 470.8520202636719 122.41455078125 470.1581726074219 123.345458984375 468.809326171875 C 124.2763671875 467.4604797363281 124.7418212890625 466.8255920410156 125.6727294921875 465.5904541015625 C 126.6036376953125 464.3553161621094 127.069091796875 463.7710876464844 128 462.6336975097656 C 128.930908203125 461.4963073730469 129.39637756347656 460.9560546875 130.32728576660156 459.9034729003906 C 131.25819396972656 458.85089111328125 131.7236328125 458.3491516113281 132.654541015625 457.3708190917969 C 133.58544921875 456.3924865722656 134.05091857910156 455.9246520996094 134.98182678222656 455.01177978515625 C 135.91273498535156 454.0989074707031 136.37818908691406 453.66119384765625 137.30909729003906 452.8064270019531 C 138.24000549316406 451.95166015625 138.70545959472656 451.5408020019531 139.63636779785156 450.7379455566406 C 140.56727600097656 449.9350891113281 141.03273010253906 449.54833984375 141.96363830566406 448.7920837402344 C 142.89454650878906 448.03582763671875 143.36001586914062 447.67083740234375 144.29092407226562 446.95660400390625 C 145.22183227539062 446.24237060546875 145.68728637695312 445.8970642089844 146.61819458007812 445.220947265625 C 147.54910278320312 444.5448303222656 148.01455688476562 444.2174377441406 148.94546508789062 443.57598876953125 C 149.87637329101562 442.9345397949219 150.34182739257812 442.6235046386719 151.27273559570312 442.01373291015625 C 152.20364379882812 441.4039611816406 152.66909790039062 441.10784912109375 153.60000610351562 440.527099609375 C 154.53091430664062 439.94635009765625 154.99636840820312 439.6640319824219 155.92727661132812 439.1099853515625 C 156.85818481445312 438.5559387207031 157.32363891601562 438.2862548828125 158.25454711914062 437.7568054199219 C 159.18545532226562 437.22735595703125 159.65090942382812 436.9693908691406 160.58181762695312 436.46270751953125 C 161.51272583007812 435.9560241699219 161.97817993164062 435.70892333984375 162.90908813476562 435.22332763671875 C 163.83999633789062 434.73773193359375 164.3054656982422 434.500732421875 165.2363739013672 434.0347595214844 C 166.1672821044922 433.56878662109375 166.6327362060547 433.3411560058594 167.5636444091797 432.8934326171875 C 168.4945526123047 432.4457092285156 168.9600067138672 432.2268371582031 169.8909149169922 431.796142578125 C 170.8218231201172 431.3654479980469 171.2872772216797 431.1547546386719 172.2181854248047 430.7400207519531 C 173.1490936279297 430.3252868652344 173.6145477294922 430.12225341796875 174.5454559326172 429.7224426269531 C 175.4763641357422 429.3226318359375 175.9418182373047 429.1267395019531 176.8727264404297 428.740966796875 C 177.8036346435547 428.3551940917969 178.26910400390625 428.1661071777344 179.20001220703125 427.79351806640625 C 180.13092041015625 427.4209289550781 180.59637451171875 427.2381591796875 181.52728271484375 426.8779602050781 C 182.45819091796875 426.51776123046875 182.92364501953125 426.3410339355469 183.85455322265625 425.9925537109375 C 184.78546142578125 425.6440734863281 185.25091552734375 425.4729309082031 186.18182373046875 425.135498046875 C 187.11273193359375 424.7980651855469 187.5782012939453 424.63232421875 188.5091094970703 424.30535888671875 C 189.4400177001953 423.9783935546875 189.9054718017578 423.8177185058594 190.8363800048828 423.5006408691406 C 191.7672882080078 423.1835632324219 192.2327423095703 423.0276794433594 193.1636505126953 422.7200012207031 C 194.0945587158203 422.4123229980469 194.55999755859375 422.260986328125 195.49090576171875 421.96221923828125 C 196.42181396484375 421.6634521484375 196.8872833251953 421.51641845703125 197.8181915283203 421.2261047363281 C 198.7490997314453 420.935791015625 199.2145538330078 420.7929382324219 200.1454620361328 420.51068115234375 C 201.0763702392578 420.2284240722656 201.54183959960938 420.0894470214844 202.47274780273438 419.81488037109375 C 203.40365600585938 419.5403137207031 203.8690948486328 419.4050598144531 204.8000030517578 419.1377868652344 C 205.7309112548828 418.8705139160156 206.1963653564453 418.7388610839844 207.1272735595703 418.47857666015625 C 208.0581817626953 418.2182922363281 208.52365112304688 418.0899963378906 209.45455932617188 417.8363952636719 C 210.38546752929688 417.5827941894531 210.85092163085938 417.457763671875 211.78182983398438 417.21051025390625 C 212.71273803710938 416.9632568359375 213.17820739746094 416.8413391113281 214.10911560058594 416.6001892089844 C 215.04002380371094 416.3590393066406 215.50546264648438 416.2400817871094 216.43637084960938 416.0047912597656 C 217.36727905273438 415.7695007324219 217.83273315429688 415.65338134765625 218.76364135742188 415.4236755371094 C 219.69454956054688 415.1939697265625 220.16000366210938 415.0805969238281 221.09091186523438 414.85626220703125 C 222.02182006835938 414.6319274902344 222.48728942871094 414.52117919921875 223.41819763183594 414.3019714355469 C 224.34910583496094 414.082763671875 224.8145751953125 413.9745178222656 225.7454833984375 413.7602844238281 C 226.6763916015625 413.5460510253906 227.14183044433594 413.44024658203125 228.07273864746094 413.2307434082031 C 229.00364685058594 413.021240234375 229.46908569335938 412.9177551269531 230.39999389648438 412.71282958984375 C 231.33090209960938 412.5079040527344 231.79637145996094 412.4066467285156 232.72727966308594 412.20611572265625 C 233.65818786621094 412.0055847167969 234.1236572265625 411.906494140625 235.0545654296875 411.710205078125 C 235.9854736328125 411.513916015625 236.45091247558594 411.4168701171875 237.38182067871094 411.22467041015625 C 238.31272888183594 411.032470703125 238.7781982421875 410.9374084472656 239.7091064453125 410.7491455078125 C 240.6400146484375 410.5608825683594 241.10546875 410.4677734375 242.036376953125 410.2832946777344 C 242.96728515625 410.09881591796875 243.4327392578125 410.007568359375 244.3636474609375 409.8267517089844 C 245.2945556640625 409.64593505859375 245.760009765625 409.5564880371094 246.69091796875 409.37921142578125 C 247.621826171875 409.2019348144531 248.0872802734375 409.11419677734375 249.0181884765625 408.9403381347656 C 249.9490966796875 408.7664794921875 250.41455078125 408.6804504394531 251.345458984375 408.5098876953125 C 252.2763671875 408.3393249511719 252.74183654785156 408.2548828125 253.67274475097656 408.0875244140625 C 254.60365295410156 407.920166015625 255.069091796875 407.8373107910156 256 407.67303466796875 C 256.930908203125 407.5087585449219 257.3963928222656 407.4273986816406 258.3273010253906 407.26611328125 C 259.2582092285156 407.1048278808594 259.7236328125 407.02496337890625 260.654541015625 406.8665771484375 C 261.58544921875 406.70819091796875 262.0509338378906 406.6297607421875 262.9818420410156 406.47418212890625 C 263.9127502441406 406.318603515625 264.3782043457031 406.24151611328125 265.3091125488281 406.0886535644531 C 266.2400207519531 405.935791015625 266.7054748535156 405.8600769042969 267.6363830566406 405.7098388671875 C 268.5672912597656 405.5596008300781 269.0327453613281 405.48516845703125 269.9636535644531 405.3374938964844 C 270.8945617675781 405.1898193359375 271.3600158691406 405.11663818359375 272.2909240722656 404.971435546875 C 273.2218322753906 404.82623291015625 273.6872863769531 404.7543029785156 274.6181945800781 404.61151123046875 C 275.5491027832031 404.4687194824219 276.0145568847656 404.3979797363281 276.9454650878906 404.2575378417969 C 277.8763732910156 404.1170959472656 278.3418273925781 404.0474853515625 279.2727355957031 403.9093017578125 C 280.2036437988281 403.7711181640625 280.6690979003906 403.70263671875 281.6000061035156 403.5666809082031 C 282.5309143066406 403.43072509765625 282.9963684082031 403.3633117675781 283.9272766113281 403.2294921875 C 284.8581848144531 403.0956726074219 285.3236389160156 403.0293273925781 286.2545471191406 402.8976135253906 C 287.1854553222656 402.7658996582031 287.65093994140625 402.7005920410156 288.58184814453125 402.5708923339844 C 289.51275634765625 402.4411926269531 289.9781799316406 402.3768615722656 290.9090881347656 402.2491455078125 C 291.8399963378906 402.1214294433594 292.30548095703125 402.0580749511719 293.23638916015625 401.9322814941406 C 294.16729736328125 401.8064880371094 294.6327209472656 401.7441101074219 295.5636291503906 401.62017822265625 C 296.4945373535156 401.4962463378906 296.96002197265625 401.4347839355469 297.89093017578125 401.31268310546875 C 298.82183837890625 401.1905822753906 299.28729248046875 401.1300048828125 300.21820068359375 401.00970458984375 C 301.14910888671875 400.889404296875 301.61456298828125 400.8297119140625 302.54547119140625 400.71112060546875 C 303.47637939453125 400.592529296875 303.94183349609375 400.5336608886719 304.87274169921875 400.4167785644531 C 305.80364990234375 400.2998962402344 306.26910400390625 400.24188232421875 307.20001220703125 400.12664794921875 C 308.13092041015625 400.01141357421875 308.59637451171875 399.9541931152344 309.52728271484375 399.8405456542969 C 310.45819091796875 399.7268981933594 310.92364501953125 399.6705017089844 311.85455322265625 399.55841064453125 C 312.78546142578125 399.4463195800781 313.25091552734375 399.39068603515625 314.18182373046875 399.2801513671875 C 315.11273193359375 399.16961669921875 315.57818603515625 399.1147155761719 316.50909423828125 399.00567626953125 C 317.44000244140625 398.8966369628906 317.90545654296875 398.8424987792969 318.83636474609375 398.7348937988281 C 319.76727294921875 398.6272888183594 320.23272705078125 398.5738830566406 321.16363525390625 398.46771240234375 C 322.09454345703125 398.3615417480469 322.5600280761719 398.3088073730469 323.4909362792969 398.20404052734375 C 324.4218444824219 398.0992736816406 324.88726806640625 398.0472412109375 325.81817626953125 397.9438171386719 C 326.74908447265625 397.84039306640625 327.2145690917969 397.7890319824219 328.1454772949219 397.68695068359375 C 329.0763854980469 397.5848693847656 329.5418395996094 397.5341491699219 330.4727478027344 397.433349609375 C 331.4036560058594 397.3325500488281 331.8691101074219 397.282470703125 332.8000183105469 397.1829528808594 C 333.7309265136719 397.08343505859375 334.1963806152344 397.03399658203125 335.1272888183594 396.9356994628906 C 336.0581970214844 396.83740234375 336.5236511230469 396.7886047363281 337.4545593261719 396.6915283203125 C 338.3854675292969 396.5944519042969 338.8509216308594 396.54620361328125 339.7818298339844 396.4503173828125 C 340.7127380371094 396.35443115234375 341.1781921386719 396.30682373046875 342.1091003417969 396.21209716796875 C 343.0400085449219 396.11737060546875 343.5054626464844 396.0702819824219 344.4363708496094 395.9766845703125 C 345.3672790527344 395.8830871582031 345.832763671875 395.83660888671875 346.763671875 395.744140625 C 347.694580078125 395.65167236328125 348.1600036621094 395.605712890625 349.0909118652344 395.51434326171875 C 350.0218200683594 395.4229736328125 350.4873046875 395.3775634765625 351.418212890625 395.2872314453125 C 352.34912109375 395.1968994140625 352.8145446777344 395.1520080566406 353.7454528808594 395.062744140625 C 354.6763610839844 394.9734802246094 355.141845703125 394.92913818359375 356.07275390625 394.84088134765625 C 357.003662109375 394.75262451171875 357.4691162109375 394.7087707519531 358.4000244140625 394.62152099609375 C 359.3309326171875 394.5342712402344 359.79638671875 394.49090576171875 360.727294921875 394.4046630859375 C 361.658203125 394.31842041015625 362.1236572265625 394.2755432128906 363.0545654296875 394.19024658203125 C 363.9854736328125 394.1049499511719 364.450927734375 394.0625305175781 365.3818359375 393.9781799316406 C 366.312744140625 393.8938293457031 366.7781982421875 393.8519287109375 367.7091064453125 393.76849365234375 C 368.6400146484375 393.68505859375 369.10546875 393.6435852050781 370.036376953125 393.5610656738281 C 370.96728515625 393.4785461425781 371.4327392578125 393.4375305175781 372.3636474609375 393.35589599609375 C 373.2945556640625 393.2742614746094 373.760009765625 393.23370361328125 374.69091796875 393.1529541015625 C 375.621826171875 393.07220458984375 376.0873107910156 393.03204345703125 377.0182189941406 392.9521484375 C 377.9491271972656 392.87225341796875 378.41455078125 392.83251953125 379.345458984375 392.75347900390625 C 380.2763671875 392.6744384765625 380.7418518066406 392.6351013183594 381.6727600097656 392.556884765625 C 382.6036682128906 392.4786682128906 383.069091796875 392.4397888183594 384 392.36236572265625 C 384.930908203125 392.2849426269531 385.3963928222656 392.2464599609375 386.3273010253906 392.1698303222656 C 387.2582092285156 392.09320068359375 387.7236633300781 392.05511474609375 388.6545715332031 391.9792785644531 C 389.5854797363281 391.9034423828125 390.0509033203125 391.86572265625 390.9818115234375 391.7906494140625 C 391.9127197265625 391.715576171875 392.37823486328125 391.6782531738281 393.30914306640625 391.60394287109375 C 394.24005126953125 391.5296325683594 394.7054748535156 391.4926452636719 395.6363830566406 391.4190673828125 C 396.5672912597656 391.3454895019531 397.0327453613281 391.3089294433594 397.9636535644531 391.236083984375 C 398.8945617675781 391.1632385253906 399.3600158691406 391.12701416015625 400.2909240722656 391.05487060546875 C 401.2218322753906 390.98272705078125 401.687255859375 390.9468688964844 402.6181640625 390.87542724609375 C 403.549072265625 390.8039855957031 404.01458740234375 390.7684326171875 404.94549560546875 390.69769287109375 C 405.87640380859375 390.626953125 406.3418273925781 390.591796875 407.2727355957031 390.521728515625 C 408.2036437988281 390.45166015625 408.6690979003906 390.41680908203125 409.6000061035156 390.347412109375 C 410.5309143066406 390.27801513671875 410.99639892578125 390.24346923828125 411.92730712890625 390.17474365234375 C 412.85821533203125 390.10601806640625 413.3236389160156 390.0718078613281 414.2545471191406 390.00372314453125 C 415.1854553222656 389.9356384277344 415.6509704589844 389.9017333984375 416.5818786621094 389.83428955078125 C 417.5127868652344 389.766845703125 417.97821044921875 389.7332763671875 418.90911865234375 389.66644287109375 C 419.84002685546875 389.599609375 420.30548095703125 389.56634521484375 421.23638916015625 389.5001220703125 C 422.16729736328125 389.43389892578125 422.63275146484375 389.40093994140625 423.56365966796875 389.3353271484375 C 424.49456787109375 389.26971435546875 424.9600524902344 389.237060546875 425.8909606933594 389.1720275878906 C 426.8218688964844 389.10699462890625 427.28729248046875 389.07464599609375 428.21820068359375 389.0102233886719 C 429.14910888671875 388.94580078125 429.61456298828125 388.9137268066406 430.54547119140625 388.849853515625 C 431.47637939453125 388.7859802246094 431.94183349609375 388.7541809082031 432.87274169921875 388.6908874511719 C 433.80364990234375 388.6275939941406 434.2691345214844 388.5960998535156 435.2000427246094 388.5333557128906 C 436.1309509277344 388.4706115722656 436.5964050292969 388.43939208984375 437.5273132324219 388.377197265625 C 438.4582214355469 388.31500244140625 438.92364501953125 388.2840576171875 439.85455322265625 388.222412109375 C 440.78546142578125 388.1607666015625 441.25091552734375 388.13006591796875 442.18182373046875 388.0689392089844 C 443.11273193359375 388.0078125 443.5782165527344 387.9774169921875 444.5091247558594 387.91680908203125 C 445.4400329589844 387.856201171875 445.9054870605469 387.8260192871094 446.8363952636719 387.76593017578125 C 447.7673034667969 387.7058410644531 448.2327575683594 387.67596435546875 449.1636657714844 387.61639404296875 C 450.0945739746094 387.55682373046875 450.55999755859375 387.52716064453125 451.49090576171875 387.46807861328125 C 452.42181396484375 387.40899658203125 452.8872985839844 387.3796081542969 453.8182067871094 387.3210144042969 C 454.7491149902344 387.2624206542969 455.2145690917969 387.2332763671875 456.1454772949219 387.1751708984375 C 457.0763854980469 387.1170654296875 457.5418395996094 387.088134765625 458.4727478027344 387.030517578125 C 459.4036560058594 386.972900390625 459.869140625 386.9442138671875 460.800048828125 386.8870849609375 C 461.73095703125 386.8299560546875 462.1963806152344 386.8014831542969 463.1272888183594 386.74481201171875 C 464.0581970214844 386.6881408691406 464.5236511230469 386.659912109375 465.4545593261719 386.60369873046875 C 466.3854675292969 386.5474853515625 466.8509216308594 386.51947021484375 467.7818298339844 386.46368408203125 C 468.7127380371094 386.40789794921875 469.17822265625 386.3801574707031 470.109130859375 386.3248291015625 C 471.0400390625 386.2695007324219 471.5054931640625 386.241943359375 472.4364013671875 386.1870422363281 C 473.3673095703125 386.13214111328125 473.8327331542969 386.1048278808594 474.7636413574219 386.0503845214844 C 475.6945495605469 385.9959411621094 476.1600036621094 385.96881103515625 477.0909118652344 385.914794921875 C 478.0218200683594 385.86077880859375 478.4873046875 385.8338623046875 479.418212890625 385.7802429199219 C 480.34912109375 385.72662353515625 480.8145751953125 385.6999206542969 481.7454833984375 385.646728515625 C 482.6763916015625 385.5935363769531 483.141845703125 385.5670471191406 484.07275390625 385.5142517089844 C 485.003662109375 385.4614562988281 485.4690856933594 385.4351806640625 486.3999938964844 385.3828125 C 487.3309020996094 385.3304443359375 487.79638671875 385.3043518066406 488.727294921875 385.2523498535156 C 489.658203125 385.2003479003906 490.1236572265625 385.1744689941406 491.0545654296875 385.12286376953125 C 491.9854736328125 385.0712585449219 492.450927734375 385.04559326171875 493.3818359375 384.994384765625 C 494.312744140625 384.94317626953125 494.7782287597656 384.91766357421875 495.7091369628906 384.8668518066406 C 496.6400451660156 384.8160400390625 497.10546875 384.79071044921875 498.036376953125 384.7402648925781 C 498.96728515625 384.6898193359375 499.4327392578125 384.6647033691406 500.3636474609375 384.6146240234375 C 501.2945556640625 384.5645446777344 501.760009765625 384.53961181640625 502.69091796875 384.4898986816406 C 503.621826171875 384.440185546875 504.0873107910156 384.4154357910156 505.0182189941406 384.3660888671875 C 505.9491271972656 384.3167419433594 506.4145812988281 384.2921447753906 507.3454895019531 384.2431640625 C 508.2763977050781 384.1941833496094 508.7418212890625 384.1697998046875 509.6727294921875 384.12115478515625 C 510.6036376953125 384.072509765625 511.5345458984375 384.02423095703125 512 384 " fill="none" fill-opacity="1" stroke="#0000FF" stroke-opacity="1" stroke-width="2" opacity="1" />
<line x1="46.54545593261719" y1="0" x2="46.54545593261719" y2="512" stroke="#000000" stroke-opacity="1" stroke-width="2" stroke-linecap="butt" opacity="1" />
<rect x="0" y="0" width="512" height="512" rx="auto" ry="auto" fill="none" fill-opacity="1.0e+00" stroke="#000000" stroke-opacity="1.0e+00" stroke-width="4" opacity="1.0e+00" />
<text x="46.54545593261719" y="522" dx="0" dy="0" textLength="none" fill="#000000" fill-opacity="1" stroke="none" stroke-opacity="1" stroke-width="1" opacity="1" font-family="sans-serif" font-size="10px" font-weight="normal" text-anchor="middle" dominant-baseline="hanging" >0.00</text>
<text x="139.6363525390625" y="522" dx="0" dy="0" textLength="none" fill="#000000" fill-opacity="1" stroke="none" stroke-opacity="1" stroke-width="1" opacity="1" font-family="sans-serif" font-size="10px" font-weight="normal" text-anchor="middle" dominant-baseline="hanging" >2.00</text>
<text x="232.72726440429688" y="522" dx="0" dy="0" textLength="none" fill="#000000" fill-opacity="1" stroke="none" stroke-opacity="1" stroke-width="1" opacity="1" font-family="sans-serif" font-size="10px" font-weight="normal" text-anchor="middle" dominant-baseline="hanging" >4.00</text>
<text x="325.81817626953125" y="522" dx="0" dy="0" textLength="none" fill="#000000" fill-opacity="1" stroke="none" stroke-opacity="1" stroke-width="1" opacity="1" font-family="sans-serif" font-size="10px" font-weight="normal" text-anchor="middle" dominant-baseline="hanging" >6.00</text>
<text x="418.9090576171875" y="522" dx="0" dy="0" textLength="none" fill="#000000" fill-opacity="1" stroke="none" stroke-opacity="1" stroke-width="1" opacity="1" font-family="sans-serif" font-size="10px" font-weight="normal" text-anchor="middle" dominant-baseline="hanging" >8.00</text>
<text x="512" y="522" dx="0" dy="0" textLength="none" fill="#000000" fill-opacity="1" stroke="none" stroke-opacity="1" stroke-width="1" opacity="1" font-family="sans-serif" font-size="10px" font-weight="normal" text-anchor="middle" dominant-baseline="hanging" >10.00</text>
<text x="-10" y="512" dx="0" dy="0" textLength="none" fill="#000000" fill-opacity="1" stroke="none" stroke-opacity="1" stroke-width="1" opacity="1" font-family="sans-serif" font-size="10px" font-weight="normal" text-anchor="end" dominant-baseline="middle" >0.10</text>
<text x="-10" y="384" dx="0" dy="0" textLength="none" fill="#000000" fill-opacity="1" stroke="none" stroke-opacity="1" stroke-width="1" opacity="1" font-family="sans-serif" font-size="10px" font-weight="normal" text-anchor="end" dominant-baseline="middle" >1.00</text>
<text x="-10" y="256" dx="0" dy="0" textLength="none" fill="#000000" fill-opacity="1" stroke="none" stroke-opacity="1" stroke-width="1" opacity="1" font-family="sans-serif" font-size="10px" font-weight="normal" text-anchor="end" dominant-baseline="middle" >10.00</text>
<text x="-10" y="128" dx="0" dy="0" textLength="none" fill="#000000" fill-opacity="1" stroke="none" stroke-opacity="1" stroke-width="1" opacity="1" font-family="sans-serif" font-size="10px" font-weight="normal" text-anchor="end" dominant-baseline="middle" >100.00</text>
<text x="-10" y="0.000030517578125" dx="0" dy="0" textLength="none" fill="#000000" fill-opacity="1" stroke="none" stroke-opacity="1" stroke-width="1" opacity="1" font-family="sans-serif" font-size="10px" font-weight="normal" text-anchor="end" dominant-baseline="middle" >1000.00</text>
</svg>