<?xml version="1.0" encoding="UTF-8" standalone="no"?>
<!DOCTYPE svg PUBLIC "-//W3C//DTD SVG 1.1//EN" "http://www.w3.org/Graphics/SVG/1.1/DTD/svg11.dtd">
<svg width="612" height="612" viewBox="-50 -50 612 612" xmlns="http://www.w3.org/2000/svg" xmlns:xlink="http://www.w3.org/1999/xlink">
<rect x="-50" y="-50" width="612" height="612" rx="auto" ry="auto" fill="#FFFFFF" fill-opacity="1e0" stroke="none" stroke-opacity="1e0" stroke-width="1" opacity="1e0" />
<line x1="46.545456" y1="0" x2="46.545456" y2="512" stroke="#000000" stroke-opacity="1" stroke-width="2" stroke-linecap="butt" opacity="0.2" />
<line x1="139.63635" y1="0" x2="139.63635" y2="512" stroke="#000000" stroke-opacity="1" stroke-width="2" stroke-linecap="butt" opacity="0.2" />
<line x1="232.72726" y1="0" x2="232.72726" y2="512" stroke="#000000" stroke-opacity="1" stroke-width="2" stroke-linecap="butt" opacity="0.2" />
<line x1="325.81818" y1="0" x2="325.81818" y2="512" stroke="#000000" stroke-opacity="1" stroke-width="2" stroke-linecap="butt" opacity="0.2" />
<line x1="418.90906" y1="0" x2="418.90906" y2="512" stroke="#000000" stroke-opacity="1" stroke-width="2" stroke-linecap="butt" opacity="0.2" />
<line x1="512" y1="0" x2="512" y2="512" stroke="#000000" stroke-opacity="1" stroke-width="2" stroke-linecap="butt" opacity="0.2" />
<line x1="0" y1="512" x2="512" y2="512" stroke="#000000" stroke-opacity="1" stroke-width="2" stroke-linecap="butt" opacity="0.2" />
<line x1="0" y1="384" x2="512" y2="384" stroke="#000000" stroke-opacity="1" stroke-width="2" stroke-linecap="butt" opacity="0.2" />
<line x1="0" y1="256" x2="512" y2="256" stroke="#000000" stroke-opacity="1" stroke-width="2" stroke-linecap="butt" opacity="0.2" />
<line x1="0" y1="128" x2="512" y2="128" stroke="#000000" stroke-opacity="1" stroke-width="2" stroke-linecap="butt" opacity="0.2" />
<line x1="0" y1="0.000030517578" x2="512" y2="0.000030517578" stroke="#000000" stroke-opacity="1" stroke-width="2" stroke-linecap="butt" opacity="0.2" />
<path d="M 0 512 C 0.46545467 510.72 1.3963646 508.16 2.3272734 505.6 C 3.258182 503.04 3.7236352 501.76 4.654544 499.2 C 5.5854526 496.64 6.050908 495.36 6.9818172 492.8 C 7.9127264 490.24 8.378181 488.96 9.309091 486.4 C 10.24 483.84 10.705455 482.56 11.636364 480 C 12.567273 477.44 13.032728 476.16 13.963637 473.6 C 14.8945465 471.04 15.36 469.76 16.290909 467.2 C 17.221817 464.64 17.687271 463.36002 18.618181 460.80002 C 19.549091 458.24002 20.014545 456.96 20.945456 454.4 C 21.876366 451.84 22.34182 450.56 23.272728 448 C 24.203636 445.44 24.669088 444.16 25.599998 441.6 C 26.530909 439.04 26.996365 437.76 27.927275 435.2 C 28.858185 432.64 29.323637 431.36 30.254545 428.8 C 31.185453 426.24 31.650908 424.96002 32.581818 422.40002 C 33.512726 419.84003 33.978184 418.56 34.909092 416 C 35.84 413.44 36.305458 412.16 37.236366 409.6 C 38.167274 407.04 38.63273 405.76 39.563637 403.2 C 40.494545 400.64 40.960003 399.36002 41.89091 396.80002 C 42.82182 394.24002 43.287273 392.96002 44.21818 390.40002 C 45.14909 387.84003 45.614548 386.56 46.545456 384 C 47.476364 381.44 47.94182 380.16 48.872726 377.6 C 49.803635 375.04 50.269093 373.76 51.2 371.2 C 52.13091 368.64 52.596367 367.36 53.527275 364.8 C 54.458183 362.24 54.92364 360.96 55.85455 358.4 C 56.785458 355.84 57.25091 354.56 58.18182 352 C 59.11273 349.44 59.578182 348.16 60.50909 345.6 C 61.44 343.04 61.905457 341.76 62.836365 339.2 C 63.767273 336.64 64.23273 335.36002 65.163635 332.80002 C 66.09454 330.24002 66.560005 328.96 67.49091 326.4 C 68.42182 323.84 68.887276 322.56 69.818184 320 C 70.74909 317.44 71.21455 316.16003 72.145454 313.60004 C 73.07636 311.04004 73.541824 309.76 74.47273 307.2 C 75.40364 304.64 75.869095 303.36 76.8 300.8 C 77.73091 298.24 78.196365 296.96002 79.12727 294.40002 C 80.05818 291.84003 80.523636 290.56 81.454544 288 C 82.38545 285.44 82.850914 284.16003 83.78182 281.60004 C 84.71273 279.04004 85.178185 277.76 86.10909 275.2 C 87.04 272.64 87.50546 271.36 88.43637 268.8 C 89.36728 266.24 89.83273 264.96002 90.76364 262.40002 C 91.69455 259.84003 92.16 258.56 93.09091 256 C 94.02182 253.44 94.48728 252.16 95.41819 249.6 C 96.3491 247.04001 96.814545 245.76001 97.74545 243.20001 C 98.67636 240.64001 99.14182 239.35999 100.07273 236.79999 C 101.00364 234.23999 101.46909 232.96002 102.4 230.40002 C 103.33091 227.84003 103.79637 226.56001 104.72728 224 C 105.65819 221.43999 106.12365 220.15997 107.05456 217.59998 C 107.985466 215.03998 108.45091 213.76004 109.38182 211.20004 C 110.31273 208.64005 110.77819 207.36 111.7091 204.79999 C 112.64001 202.23997 113.10546 200.95999 114.03637 198.4 C 114.96728 195.84 115.43273 194.56003 116.36364 192.00003 C 117.29455 189.44003 117.76001 188.15997 118.69092 185.59998 C 119.621826 183.03998 120.08727 181.76001 121.01818 179.20001 C 121.94909 176.64001 122.41455 175.36002 123.34546 172.80002 C 124.27637 170.24002 124.74182 168.95999 125.67273 166.4 C 126.60364 163.84 127.06909 162.56 128 160 C 128.93091 157.44 129.39638 156.16 130.32729 153.6 C 131.2582 151.04001 131.72363 149.76001 132.65454 147.20001 C 133.58545 144.64001 134.05092 143.35999 134.98183 140.79999 C 135.91273 138.23999 136.37819 136.96002 137.3091 134.40002 C 138.24 131.84003 138.70546 130.56 139.63637 128 C 140.56728 125.44 141.03273 124.160034 141.96364 121.60004 C 142.89455 119.04004 143.36002 117.76002 144.29092 115.20001 C 145.22183 112.64001 145.68729 111.360016 146.6182 108.80002 C 147.5491 106.24002 148.01456 104.96002 148.94547 102.400024 C 149.87637 99.84003 150.34183 98.56003 151.27274 96.00003 C 152.20364 93.44003 152.6691 92.16004 153.6 89.60004 C 154.53091 87.04003 154.99637 85.76002 155.92728 83.20001 C 156.85818 80.64001 157.32364 79.360016 158.25455 76.80002 C 159.18546 74.24002 159.65091 72.96002 160.58182 70.400024 C 161.51273 67.84003 161.97818 66.56003 162.90909 64.00003 C 163.84 61.440033 164.30547 60.16004 165.23637 57.600037 C 166.16728 55.04003 166.63274 53.760017 167.56364 51.200012 C 168.49455 48.640007 168.96 47.360016 169.89091 44.80002 C 170.82182 42.24002 171.28728 40.960022 172.21819 38.400024 C 173.1491 35.840027 173.61455 34.560028 174.54546 32.00003 C 175.47636 29.440033 175.94182 28.16004 176.87273 25.600037 C 177.80363 23.040033 178.2691 21.760015 179.20001 19.200012 C 180.13092 16.640009 180.59637 15.360016 181.52728 12.800018 C 182.45819 10.240021 182.92365 8.960022 183.85455 6.4000244 C 184.78546 3.8400269 185.25092 2.560028 186.18182 0.000030517578 " fill="none" fill-opacity="1" stroke="#FF0000" stroke-opacity="1" stroke-width="2" opacity="1" />
<path d="M 51.2 512 C 52.13091 499.7857 52.596367 497.1667 53.527275 489.46033 C 54.458183 481.75397 54.92364 479.1475 55.85455 473.46817 C 56.785458 467.78885 57.25091 465.57162 58.18182 461.0637 C 59.11273 456.55576 59.578182 454.66934 60.50909 450.92847 C 61.44 447.1876 61.905457 445.5577 62.836365 442.35928 C 63.767273 439.16086 64.23273 437.73044 65.163635 434.93634 C 66.09454 432.14224 66.560005 430.8697 67.49091 428.3888 C 68.42182 425.9079 68.887276 424.7629 69.818184 422.53186 C 70.74909 420.3008 71.21455 419.26062 72.145454 417.23358 C 73.07636 415.20654 73.541824 414.25394 74.47273 412.39664 C 75.40364 410.53934 75.869095 409.66092 76.8 407.94708 C 77.73091 406.23325 78.196365 405.41843 79.12727 403.82745 C 80.05818 402.23648 80.523636 401.47675 81.454544 399.99216 C 82.38545 398.50757 82.850914 397.79602 83.78182 396.40448 C 84.71273 395.01294 85.178185 394.3439 86.10909 393.0344 C 87.04 391.72488 87.50546 391.09357 88.43637 389.85696 C 89.36728 388.62036 89.83273 388.02277 90.76364 386.85138 C 91.69455 385.68 92.16 385.11273 93.09091 384 C 94.02182 382.88727 94.48728 382.34744 95.41819 381.28778 C 96.3491 380.22812 96.814545 379.71313 97.74545 378.70172 C 98.67636 377.6903 99.14182 377.19806 100.07273 376.23068 C 101.00364 375.2633 101.46909 374.79184 102.4 373.8648 C 103.33091 372.93777 103.79637 372.48544 104.72728 371.59552 C 105.65819 370.7056 106.12365 370.2709 107.05456 369.41525 C 107.985466 368.5596 108.45091 368.14117 109.38182 367.31726 C 110.31273 366.49335 110.77819 366.0901 111.7091 365.29562 C 112.64001 364.50116 113.10546 364.11197 114.03637 363.3449 C 114.96728 362.57785 115.43273 362.20178 116.36364 361.46033 C 117.29455 360.71887 117.76001 360.3551 118.69092 359.63757 C 119.621826 358.92004 120.08727 358.56778 121.01818 357.87268 C 121.94909 357.17758 122.41455 356.83606 123.34546 356.16205 C 124.27637 355.48804 124.74182 355.15674 125.67273 354.50256 C 126.60364 353.8484 127.06909 353.5266 128 352.8911 C 128.93091 352.2556 129.39638 351.94296 130.32729 351.32513 C 131.2582 350.7073 131.72363 350.40317 132.65454 349.80203 C 133.58545 349.2009 134.05092 348.90482 134.98183 348.31952 C 135.91273 347.73422 136.37819 347.44586 137.3091 346.87558 C 138.24 346.3053 138.70546 346.02414 139.63637 345.46814 C 140.56728 344.91214 141.03273 344.63797 141.96364 344.09552 C 142.89455 343.55307 143.36002 343.28546 144.29092 342.75592 C 145.22183 342.22638 145.68729 341.9651 146.6182 341.44788 C 147.5491 340.93066 148.01456 340.67532 148.94547 340.1699 C 149.87637 339.66446 150.34183 339.41486 151.27274 338.92065 C 152.20364 338.42645 152.6691 338.1823 153.6 337.69885 C 154.53091 337.2154 154.99637 336.9765 155.92728 336.50333 C 156.85818 336.03015 157.32364 335.7963 158.25455 335.33298 C 159.18546 334.86966 159.65091 334.64062 160.58182 334.18677 C 161.51273 333.7329 161.97818 333.50845 162.90909 333.0637 C 163.84 332.61893 164.30547 332.39896 165.23637 331.9629 C 166.16728 331.52682 166.63274 331.3111 167.56364 330.88342 C 168.49455 330.45575 168.96 330.2441 169.89091 329.82452 C 170.82182 329.40494 171.28728 329.19727 172.21819 328.78546 C 173.1491 328.37366 173.61455 328.16977 174.54546 327.76544 C 175.47636 327.3611 175.94182 327.16092 176.87273 326.7638 C 177.80363 326.36667 178.2691 326.16998 179.20001 325.77985 C 180.13092 325.3897 180.59637 325.19647 181.52728 324.81305 C 182.45819 324.42963 182.92365 324.23972 183.85455 323.8628 C 184.78546 323.48587 185.25092 323.29913 186.18182 322.9285 C 187.11273 322.55786 187.5782 322.3742 188.50911 322.00964 C 189.44002 321.64508 189.90547 321.4644 190.83638 321.1057 C 191.76729 320.74704 192.23274 320.5692 193.16365 320.21625 C 194.09456 319.86328 194.56 319.6883 195.4909 319.34082 C 196.42181 318.99335 196.88728 318.82104 197.81819 318.47894 C 198.7491 318.13684 199.21455 317.9672 200.14546 317.63025 C 201.07637 317.2933 201.54184 317.1262 202.47275 316.79428 C 203.40366 316.46237 203.8691 316.29773 204.8 315.9707 C 205.73091 315.64368 206.19637 315.48145 207.12727 315.15918 C 208.05818 314.8369 208.52365 314.677 209.45456 314.3593 C 210.38547 314.04163 210.85092 313.884 211.78183 313.5708 C 212.71274 313.2576 213.1782 313.1021 214.10912 312.79327 C 215.04002 312.48444 215.50546 312.33118 216.43637 312.02655 C 217.36728 311.72192 217.83273 311.57068 218.76364 311.27017 C 219.69455 310.96967 220.16 310.82047 221.09091 310.524 C 222.02182 310.2275 222.48729 310.08032 223.4182 309.78772 C 224.3491 309.49512 224.81458 309.34982 225.74548 309.06104 C 226.67639 308.77225 227.14183 308.62885 228.07274 308.34375 C 229.00365 308.05865 229.46909 307.91705 230.4 307.63556 C 231.3309 307.35406 231.79637 307.2143 232.72728 306.93634 C 233.65819 306.6584 234.12366 306.52032 235.05457 306.2458 C 235.98547 305.97125 236.45091 305.83484 237.38182 305.56366 C 238.31273 305.29248 238.7782 305.15775 239.7091 304.88983 C 240.64001 304.62192 241.10547 304.4888 242.03638 304.2241 C 242.96729 303.95938 243.43274 303.82782 244.36365 303.56622 C 245.29456 303.30463 245.76001 303.17465 246.69092 302.91608 C 247.62183 302.6575 248.08728 302.529 249.01819 302.27338 C 249.9491 302.01776 250.41455 301.89075 251.34546 301.63806 C 252.27637 301.38538 252.74184 301.2598 253.67274 301.00995 C 254.60365 300.7601 255.06909 300.63586 256 300.3888 C 256.9309 300.14172 257.3964 300.0189 258.3273 299.77454 C 259.2582 299.53018 259.72363 299.4087 260.65454 299.167 C 261.58545 298.9253 262.05093 298.80515 262.98184 298.56604 C 263.91275 298.32693 264.3782 298.20804 265.3091 297.97147 C 266.24002 297.7349 266.70547 297.6173 267.63638 297.38324 C 268.5673 297.14917 269.03275 297.03275 269.96365 296.80112 C 270.89456 296.5695 271.36002 296.45435 272.29092 296.2251 C 273.22183 295.99585 273.6873 295.8818 274.6182 295.6549 C 275.5491 295.428 276.01456 295.31516 276.94547 295.09055 C 277.87637 294.86594 278.34183 294.75424 279.27274 294.53186 C 280.20364 294.30948 280.6691 294.19885 281.6 293.9787 C 282.5309 293.75854 282.99637 293.64905 283.92728 293.43103 C 284.8582 293.213 285.32364 293.10455 286.25455 292.88867 C 287.18546 292.6728 287.65094 292.56537 288.58185 292.35156 C 289.51276 292.13776 289.97818 292.0314 290.9091 291.81964 C 291.84 291.60788 292.30548 291.5025 293.2364 291.29272 C 294.1673 291.08295 294.63272 290.97858 295.56363 290.77075 C 296.49454 290.56293 296.96002 290.4595 297.89093 290.2536 C 298.82184 290.0477 299.2873 289.94528 300.2182 289.74127 C 301.1491 289.53726 301.61456 289.43573 302.54547 289.23358 C 303.47638 289.03143 303.94183 288.93085 304.87274 288.73053 C 305.80365 288.5302 306.2691 288.43048 307.2 288.23193 C 308.13092 288.0334 308.59637 287.93457 309.52728 287.7378 C 310.4582 287.54102 310.92365 287.4431 311.85455 287.24805 C 312.78546 287.05298 313.25092 286.95587 314.18182 286.7625 C 315.11273 286.56915 315.5782 286.4729 316.5091 286.28122 C 317.44 286.08954 317.90546 285.99414 318.83636 285.80408 C 319.76727 285.614 320.23273 285.51938 321.16364 285.33093 C 322.09454 285.1425 322.56003 285.04868 323.49094 284.86182 C 324.42184 284.67496 324.88727 284.58197 325.81818 284.39667 C 326.74908 284.21136 327.21457 284.11908 328.14548 283.9353 C 329.0764 283.75153 329.54184 283.66003 330.47275 283.47778 C 331.40366 283.29553 331.8691 283.20477 332.80002 283.024 C 333.73093 282.8432 334.19638 282.75317 335.1273 282.57385 C 336.0582 282.39453 336.52365 282.30527 337.45456 282.12738 C 338.38547 281.9495 338.85092 281.8609 339.78183 281.68442 C 340.71274 281.50793 341.1782 281.42007 342.1091 281.245 C 343.04 281.06992 343.50546 280.9827 344.43637 280.80896 C 345.36728 280.63522 345.83276 280.54874 346.76367 280.37637 C 347.69458 280.204 348.16 280.11813 349.0909 279.94708 C 350.02182 279.77603 350.4873 279.69086 351.4182 279.52112 C 352.34912 279.35138 352.81454 279.26685 353.74545 279.0984 C 354.67636 278.92993 355.14185 278.84604 356.07275 278.67883 C 357.00366 278.51163 357.46912 278.42838 358.40002 278.26242 C 359.33093 278.09647 359.7964 278.01382 360.7273 277.84912 C 361.6582 277.68442 362.12366 277.6024 363.05457 277.43887 C 363.98547 277.27536 364.45093 277.19394 365.38184 277.03162 C 366.31274 276.8693 366.7782 276.78845 367.7091 276.62732 C 368.64 276.4662 369.10547 276.38593 370.03638 276.22595 C 370.9673 276.06598 371.43274 275.9863 372.36365 275.82745 C 373.29456 275.6686 373.76 275.5895 374.69092 275.4318 C 375.62183 275.27408 376.0873 275.19553 377.01822 275.03894 C 377.94913 274.88235 378.41455 274.80435 379.34546 274.64886 C 380.27637 274.49338 380.74185 274.4159 381.67276 274.26147 C 382.60367 274.10706 383.0691 274.03012 384 273.87677 C 384.9309 273.72342 385.3964 273.647 386.3273 273.4947 C 387.2582 273.34238 387.72366 273.2665 388.65457 273.11523 C 389.58548 272.96396 390.0509 272.88858 390.9818 272.73834 C 391.91272 272.5881 392.37823 272.51324 393.30914 272.364 C 394.24005 272.21478 394.70547 272.14044 395.63638 271.9922 C 396.5673 271.84393 397.03275 271.77008 397.96365 271.6228 C 398.89456 271.47552 399.36002 271.40216 400.29092 271.25586 C 401.22183 271.10956 401.68726 271.03668 402.61816 270.89136 C 403.54907 270.74603 404.0146 270.67358 404.9455 270.52917 C 405.8764 270.38477 406.34183 270.31284 407.27274 270.16937 C 408.20364 270.0259 408.6691 269.95444 409.6 269.8119 C 410.5309 269.66934 410.9964 269.59833 411.9273 269.4567 C 412.85822 269.31506 413.32364 269.2445 414.25455 269.10376 C 415.18546 268.963 415.65097 268.89288 416.58188 268.75302 C 417.5128 268.61316 417.9782 268.54346 418.90912 268.40448 C 419.84003 268.2655 420.30548 268.1963 421.2364 268.05817 C 422.1673 267.92004 422.63275 267.8512 423.56366 267.71393 C 424.49457 267.57666 424.96005 267.50824 425.89096 267.37183 C 426.82187 267.2354 427.2873 267.16745 428.2182 267.03186 C 429.1491 266.89627 429.61456 266.82867 430.54547 266.6939 C 431.47638 266.55914 431.94183 266.49197 432.87274 266.35803 C 433.80365 266.2241 434.26913 266.15732 435.20004 266.02417 C 436.13095 265.89102 436.5964 265.82462 437.5273 265.69226 C 438.45822 265.5599 438.92365 265.49396 439.85455 265.36237 C 440.78546 265.23077 441.25092 265.16516 442.18182 265.03436 C 443.11273 264.90356 443.57822 264.8384 444.50912 264.70837 C 445.44003 264.57834 445.9055 264.5135 446.8364 264.38422 C 447.7673 264.25494 448.23276 264.1905 449.16367 264.06195 C 450.09457 263.9334 450.56 263.86935 451.4909 263.74155 C 452.4218 263.61374 452.8873 263.55005 453.8182 263.42297 C 454.7491 263.2959 455.21457 263.23254 456.14548 263.1062 C 457.0764 262.97986 457.54184 262.91687 458.47275 262.79126 C 459.40366 262.66565 459.86914 262.603 460.80005 262.4781 C 461.73096 262.35318 462.19638 262.2909 463.1273 262.1667 C 464.0582 262.04248 464.52365 261.98053 465.45456 261.857 C 466.38547 261.73346 466.85092 261.67188 467.78183 261.549 C 468.71274 261.42615 469.17822 261.36493 470.10913 261.24274 C 471.04004 261.12054 471.5055 261.05963 472.4364 260.9381 C 473.3673 260.8166 473.83273 260.75604 474.76364 260.6352 C 475.69455 260.51434 476.16 260.45407 477.0909 260.33386 C 478.02182 260.21365 478.4873 260.15372 479.4182 260.03418 C 480.34912 259.91464 480.81458 259.855 481.74548 259.7361 C 482.6764 259.61722 483.14185 259.55792 484.07275 259.43964 C 485.00366 259.32135 485.4691 259.2624 486.4 259.14474 C 487.3309 259.0271 487.7964 258.9684 488.7273 258.85138 C 489.6582 258.73434 490.12366 258.676 491.05457 258.55957 C 491.98547 258.44315 492.45093 258.3851 493.38184 258.2693 C 494.31274 258.15347 494.77823 258.09573 495.70914 257.98053 C 496.64005 257.86533 497.10547 257.80786 498.03638 257.69324 C 498.9673 257.5786 499.43274 257.52145 500.36365 257.4074 C 501.29456 257.29337 501.76 257.2365 502.69092 257.12308 C 503.62183 257.00964 504.0873 256.95306 505.01822 256.84018 C 505.94913 256.7273 506.41458 256.67102 507.3455 256.55872 C 508.2764 256.4464 508.74182 256.39044 509.67273 256.2787 C 510.60364 256.16693 511.53455 256.05573 512 256 " fill="none" fill-opacity="1" stroke="#00FF00" stroke-opacity="1" stroke-width="2" opacity="1" />
<path d="M 102.4 512 C 105.65819 512.2936 106.12365 508.03824 107.05456 504.7438 C 107.985466 501.44937 108.45091 500.03864 109.38182 497.2727 C 110.31273 494.50677 110.77819 493.2888 111.7091 490.91412 C 112.64001 488.53946 113.10546 487.47308 114.03637 485.39938 C 114.96728 483.32568 115.43273 482.38092 116.36364 480.54556 C 117.29455 478.7102 117.76001 477.86475 118.69092 476.22256 C 119.621826 474.58038 120.08727 473.8173 121.01818 472.33466 C 121.94909 470.85202 122.41455 470.15817 123.34546 468.80933 C 124.27637 467.46048 124.74182 466.8256 125.67273 465.59045 C 126.60364 464.35532 127.06909 463.7711 128 462.6337 C 128.93091 461.4963 129.39638 460.95605 130.32729 459.90347 C 131.2582 458.8509 131.72363 458.34915 132.65454 457.37082 C 133.58545 456.3925 134.05092 455.92465 134.98183 455.01178 C 135.91273 454.0989 136.37819 453.6612 137.3091 452.80643 C 138.24 451.95166 138.70546 451.5408 139.63637 450.73795 C 140.56728 449.9351 141.03273 449.54834 141.96364 448.79208 C 142.89455 448.03583 143.36002 447.67084 144.29092 446.9566 C 145.22183 446.24237 145.68729 445.89706 146.6182 445.22095 C 147.5491 444.54483 148.01456 444.21744 148.94547 443.576 C 149.87637 442.93454 150.34183 442.6235 151.27274 442.01373 C 152.20364 441.40396 152.6691 441.10785 153.6 440.5271 C 154.53091 439.94635 154.99637 439.66403 155.92728 439.11 C 156.85818 438.55594 157.32364 438.28625 158.25455 437.7568 C 159.18546 437.22736 159.65091 436.9694 160.58182 436.4627 C 161.51273 435.95602 161.97818 435.70892 162.90909 435.22333 C 163.84 434.73773 164.30547 434.50073 165.23637 434.03476 C 166.16728 433.5688 166.63274 433.34116 167.56364 432.89343 C 168.49455 432.4457 168.96 432.22684 169.89091 431.79614 C 170.82182 431.36545 171.28728 431.15475 172.21819 430.74002 C 173.1491 430.3253 173.61455 430.12225 174.54546 429.72244 C 175.47636 429.32263 175.94182 429.12674 176.87273 428.74097 C 177.80363 428.3552 178.2691 428.1661 179.20001 427.79352 C 180.13092 427.42093 180.59637 427.23816 181.52728 426.87796 C 182.45819 426.51776 182.92365 426.34103 183.85455 425.99255 C 184.78546 425.64407 185.25092 425.47293 186.18182 425.1355 C 187.11273 424.79807 187.5782 424.63232 188.50911 424.30536 C 189.44002 423.9784 189.90547 423.81772 190.83638 423.50064 C 191.76729 423.18356 192.23274 423.02768 193.16365 422.72 C 194.09456 422.41232 194.56 422.261 195.4909 421.96222 C 196.42181 421.66345 196.88728 421.51642 197.81819 421.2261 C 198.7491 420.9358 199.21455 420.79294 200.14546 420.51068 C 201.07637 420.22842 201.54184 420.08945 202.47275 419.81488 C 203.40366 419.5403 203.8691 419.40506 204.8 419.1378 C 205.73091 418.8705 206.19637 418.73886 207.12727 418.47858 C 208.05818 418.2183 208.52365 418.09 209.45456 417.8364 C 210.38547 417.5828 210.85092 417.45776 211.78183 417.2105 C 212.71274 416.96326 213.1782 416.84134 214.10912 416.6002 C 215.04002 416.35904 215.50546 416.24008 216.43637 416.0048 C 217.36728 415.7695 217.83273 415.65338 218.76364 415.42368 C 219.69455 415.19397 220.16 415.0806 221.09091 414.85626 C 222.02182 414.63193 222.48729 414.52118 223.4182 414.30197 C 224.3491 414.08276 224.81458 413.97452 225.74548 413.76028 C 226.67639 413.54605 227.14183 413.44025 228.07274 413.23074 C 229.00365 413.02124 229.46909 412.91776 230.4 412.71283 C 231.3309 412.5079 231.79637 412.40665 232.72728 412.20612 C 233.65819 412.00558 234.12366 411.9065 235.05457 411.7102 C 235.98547 411.51392 236.45091 411.41687 237.38182 411.22467 C 238.31273 411.03247 238.7782 410.9374 239.7091 410.74915 C 240.64001 410.56088 241.10547 410.46777 242.03638 410.2833 C 242.96729 410.09882 243.43274 410.00757 244.36365 409.82675 C 245.29456 409.64594 245.76001 409.5565 246.69092 409.3792 C 247.62183 409.20193 248.08728 409.1142 249.01819 408.94034 C 249.9491 408.76648 250.41455 408.68045 251.34546 408.5099 C 252.27637 408.33932 252.74184 408.25488 253.67274 408.08752 C 254.60365 407.92017 255.06909 407.8373 256 407.67303 C 256.9309 407.50876 257.3964 407.4274 258.3273 407.2661 C 259.2582 407.10483 259.72363 407.02496 260.65454 406.86658 C 261.58545 406.7082 262.05093 406.62976 262.98184 406.47418 C 263.91275 406.3186 264.3782 406.24152 265.3091 406.08865 C 266.24002 405.9358 266.70547 405.86008 267.63638 405.70984 C 268.5673 405.5596 269.03275 405.48517 269.96365 405.3375 C 270.89456 405.18982 271.36002 405.11664 272.29092 404.97144 C 273.22183 404.82623 273.6873 404.7543 274.6182 404.6115 C 275.5491 404.46872 276.01456 404.39798 276.94547 404.25754 C 277.87637 404.1171 278.34183 404.0475 279.27274 403.9093 C 280.20364 403.77112 280.6691 403.70264 281.6 403.56668 C 282.5309 403.43073 282.99637 403.3633 283.92728 403.2295 C 284.8582 403.09567 285.32364 403.02933 286.25455 402.8976 C 287.18546 402.7659 287.65094 402.7006 288.58185 402.5709 C 289.51276 402.4412 289.97818 402.37686 290.9091 402.24915 C 291.84 402.12143 292.30548 402.05807 293.2364 401.93228 C 294.1673 401.8065 294.63272 401.7441 295.56363 401.62018 C 296.49454 401.49625 296.96002 401.43478 297.89093 401.31268 C 298.82184 401.19058 299.2873 401.13 300.2182 401.0097 C 301.1491 400.8894 301.61456 400.8297 302.54547 400.71112 C 303.47638 400.59253 303.94183 400.53366 304.87274 400.41678 C 305.80365 400.2999 306.2691 400.24188 307.2 400.12665 C 308.13092 400.0114 308.59637 399.9542 309.52728 399.84055 C 310.4582 399.7269 310.92365 399.6705 311.85455 399.5584 C 312.78546 399.44632 313.25092 399.3907 314.18182 399.28015 C 315.11273 399.16962 315.5782 399.11472 316.5091 399.00568 C 317.44 398.89664 317.90546 398.8425 318.83636 398.7349 C 319.76727 398.6273 320.23273 398.57388 321.16364 398.4677 C 322.09454 398.36154 322.56003 398.3088 323.49094 398.20404 C 324.42184 398.09927 324.88727 398.04724 325.81818 397.94382 C 326.74908 397.8404 327.21457 397.78903 328.14548 397.68695 C 329.0764 397.58487 329.54184 397.53415 330.47275 397.43335 C 331.40366 397.33255 331.8691 397.28247 332.80002 397.18295 C 333.73093 397.08344 334.19638 397.034 335.1273 396.9357 C 336.0582 396.8374 336.52365 396.7886 337.45456 396.69153 C 338.38547 396.59445 338.85092 396.5462 339.78183 396.45032 C 340.71274 396.35443 341.1782 396.30682 342.1091 396.2121 C 343.04 396.11737 343.50546 396.07028 344.43637 395.97668 C 345.36728 395.8831 345.83276 395.8366 346.76367 395.74414 C 347.69458 395.65167 348.16 395.6057 349.0909 395.51434 C 350.02182 395.42297 350.4873 395.37756 351.4182 395.28723 C 352.34912 395.1969 352.81454 395.152 353.74545 395.06274 C 354.67636 394.97348 355.14185 394.92914 356.07275 394.84088 C 357.00366 394.75262 357.46912 394.70877 358.40002 394.62152 C 359.33093 394.53427 359.7964 394.4909 360.7273 394.40466 C 361.6582 394.31842 362.12366 394.27554 363.05457 394.19025 C 363.98547 394.10495 364.45093 394.06253 365.38184 393.97818 C 366.31274 393.89383 366.7782 393.85193 367.7091 393.7685 C 368.64 393.68506 369.10547 393.6436 370.03638 393.56107 C 370.9673 393.47855 371.43274 393.43753 372.36365 393.3559 C 373.29456 393.27426 373.76 393.2337 374.69092 393.15295 C 375.62183 393.0722 376.0873 393.03204 377.01822 392.95215 C 377.94913 392.87225 378.41455 392.83252 379.34546 392.75348 C 380.27637 392.67444 380.74185 392.6351 381.67276 392.5569 C 382.60367 392.47867 383.0691 392.4398 384 392.36237 C 384.9309 392.28494 385.3964 392.24646 386.3273 392.16983 C 387.2582 392.0932 387.72366 392.0551 388.65457 391.97928 C 389.58548 391.90344 390.0509 391.86572 390.9818 391.79065 C 391.91272 391.71558 392.37823 391.67825 393.30914 391.60394 C 394.24005 391.52963 394.70547 391.49265 395.63638 391.41907 C 396.5673 391.3455 397.03275 391.30893 397.96365 391.23608 C 398.89456 391.16324 399.36002 391.127 400.29092 391.05487 C 401.22183 390.98273 401.68726 390.94687 402.61816 390.87543 C 403.54907 390.804 404.0146 390.76843 404.9455 390.6977 C 405.8764 390.62695 406.34183 390.5918 407.27274 390.52173 C 408.20364 390.45166 408.6691 390.4168 409.6 390.3474 C 410.5309 390.278 410.9964 390.24347 411.9273 390.17474 C 412.85822 390.10602 413.32364 390.0718 414.25455 390.00372 C 415.18546 389.93564 415.65097 389.90173 416.58188 389.8343 C 417.5128 389.76685 417.9782 389.73328 418.90912 389.66644 C 419.84003 389.5996 420.30548 389.56635 421.2364 389.50012 C 422.1673 389.4339 422.63275 389.40094 423.56366 389.33533 C 424.49457 389.2697 424.96005 389.23706 425.89096 389.17203 C 426.82187 389.107 427.2873 389.07465 428.2182 389.01022 C 429.1491 388.9458 429.61456 388.91373 430.54547 388.84985 C 431.47638 388.78598 431.94183 388.75418 432.87274 388.6909 C 433.80365 388.6276 434.26913 388.5961 435.20004 388.53336 C 436.13095 388.4706 436.5964 388.4394 437.5273 388.3772 C 438.45822 388.315 438.92365 388.28406 439.85455 388.2224 C 440.78546 388.16077 441.25092 388.13007 442.18182 388.06894 C 443.11273 388.0078 443.57822 387.97742 444.50912 387.9168 C 445.44003 387.8562 445.9055 387.82602 446.8364 387.76593 C 447.7673 387.70584 448.23276 387.67596 449.16367 387.6164 C 450.09457 387.55682 450.56 387.52716 451.4909 387.46808 C 452.4218 387.409 452.8873 387.3796 453.8182 387.321 C 454.7491 387.26242 455.21457 387.23328 456.14548 387.17517 C 457.0764 387.11707 457.54184 387.08813 458.47275 387.03052 C 459.40366 386.9729 459.86914 386.9442 460.80005 386.8871 C 461.73096 386.82996 462.19638 386.80148 463.1273 386.7448 C 464.0582 386.68814 464.52365 386.6599 465.45456 386.6037 C 466.38547 386.5475 466.85092 386.51947 467.78183 386.46368 C 468.71274 386.4079 469.17822 386.38016 470.10913 386.32483 C 471.04004 386.2695 471.5055 386.24194 472.4364 386.18704 C 473.3673 386.13214 473.83273 386.10483 474.76364 386.05038 C 475.69455 385.99594 476.16 385.9688 477.0909 385.9148 C 478.02182 385.86078 478.4873 385.83386 479.4182 385.78024 C 480.34912 385.72662 480.81458 385.69992 481.74548 385.64673 C 482.6764 385.59354 483.14185 385.56705 484.07275 385.51425 C 485.00366 385.46146 485.4691 385.43518 486.4 385.3828 C 487.3309 385.33044 487.7964 385.30435 488.7273 385.25235 C 489.6582 385.20035 490.12366 385.17447 491.05457 385.12286 C 491.98547 385.07126 492.45093 385.0456 493.38184 384.9944 C 494.31274 384.94318 494.77823 384.91766 495.70914 384.86685 C 496.64005 384.81604 497.10547 384.7907 498.03638 384.74026 C 498.9673 384.68982 499.43274 384.6647 500.36365 384.61462 C 501.29456 384.56454 501.76 384.5396 502.69092 384.4899 C 503.62183 384.4402 504.0873 384.41544 505.01822 384.3661 C 505.94913 384.31674 506.41458 384.29214 507.3455 384.24316 C 508.2764 384.19418 508.74182 384.1698 509.67273 384.12115 C 510.60364 384.0725 511.53455 384.02423 512 384 " fill="none" fill-opacity="1" stroke="#0000FF" stroke-opacity="1" stroke-width="2" opacity="1" />
<line x1="46.545456" y1="0" x2="46.545456" y2="512" stroke="#000000" stroke-opacity="1" stroke-width="2" stroke-linecap="butt" opacity="1" />
<rect x="0" y="0" width="512" height="512" rx="auto" ry="auto" fill="none" fill-opacity="1e0" stroke="#000000" stroke-opacity="1e0" stroke-width="4" opacity="1e0" />
<text x="46.545456" y="522" dx="0" dy="0" textLength="none" fill="#000000" fill-opacity="1" stroke="none" stroke-opacity="1" stroke-width="1" opacity="1" font-family="sans-serif" font-size="10px" font-weight="normal" text-anchor="middle" dominant-baseline="hanging" >0.00</text>
<text x="139.63635" y="522" dx="0" dy="0" textLength="none" fill="#000000" fill-opacity="1" stroke="none" stroke-opacity="1" stroke-width="1" opacity="1" font-family="sans-serif" font-size="10px" font-weight="normal" text-anchor="middle" dominant-baseline="hanging" >2.00</text>
<text x="232.72726" y="522" dx="0" dy="0" textLength="none" fill="#000000" fill-opacity="1" stroke="none" stroke-opacity="1" stroke-width="1" opacity="1" font-family="sans-serif" font-size="10px" font-weight="normal" text-anchor="middle" dominant-baseline="hanging" >4.00</text>
<text x="325.81818" y="522" dx="0" dy="0" textLength="none" fill="#000000" fill-opacity="1" stroke="none" stroke-opacity="1" stroke-width="1" opacity="1" font-family="sans-serif" font-size="10px" font-weight="normal" text-anchor="middle" dominant-baseline="hanging" >6.00</text>
<text x="418.90906" y="522" dx="0" dy="0" textLength="none" fill="#000000" fill-opacity="1" stroke="none" stroke-opacity="1" stroke-width="1" opacity="1" font-family="sans-serif" font-size="10px" font-weight="normal" text-anchor="middle" dominant-baseline="hanging" >8.00</text>
<text x="512" y="522" dx="0" dy="0" textLength="none" fill="#000000" fill-opacity="1" stroke="none" stroke-opacity="1" stroke-width="1" opacity="1" font-family="sans-serif" font-size="10px" font-weight="normal" text-anchor="middle" dominant-baseline="hanging" >10.00</text>
<text x="-10" y="512" dx="0" dy="0" textLength="none" fill="#000000" fill-opacity="1" stroke="none" stroke-opacity="1" stroke-width="1" opacity="1" font-family="sans-serif" font-size="10px" font-weight="normal" text-anchor="end" dominant-baseline="middle" >0.10</text>
<text x="-10" y="384" dx="0" dy="0" textLength="none" fill="#000000" fill-opacity="1" stroke="none" stroke-opacity="1" stroke-width="1" opacity="1" font-family="sans-serif" font-size="10px" font-weight="normal" text-anchor="end" dominant-baseline="middle" >1.00</text>
<text x="-10" y="256" dx="0" dy="0" textLength="none" fill="#000000" fill-opacity="1" stroke="none" stroke-opacity="1" stroke-width="1" opacity="1" font-family="sans-serif" font-size="10px" font-weight="normal" text-anchor="end" dominant-baseline="middle" >10.00</text>
<text x="-10" y="128" dx="0" dy="0" textLength="none" fill="#000000" fill-opacity="1" stroke="none" stroke-opacity="1" stroke-width="1" opacity="1" font-family="sans-serif" font-size="10px" font-weight="normal" text-anchor="end" dominant-baseline="middle" >100.00</text>
<text x="-10" y="0.000030517578" dx="0" dy="0" textLength="none" fill="#000000" fill-opacity="1" stroke="none" stroke-opacity="1" stroke-width="1" opacity="1" font-family="sans-serif" font-size="10px" font-weight="normal" text-anchor="end" dominant-baseline="middle" >1000.00</text>
</svg>