<?xml version="1.0" encoding="UTF-8" standalone="no"?>
<!DOCTYPE svg PUBLIC "-//W3C//DTD SVG 1.1//EN" "http://www.w3.org/Graphics/SVG/1.1/DTD/svg11.dtd">
<svg width="612" height="612" viewBox="-50 -50 612 612" xmlns="http://www.w3.org/2000/svg" xmlns:xlink="http://www.w3.org/1999/xlink">
<rect x="-50" y="-50" width="612" height="612" rx="auto" ry="auto" fill="#FFFFFF" fill-opacity="1e0" stroke="none" stroke-opacity="1e0" stroke-width="1" opacity="1e0" />
<line x1="17.655172" y1="0" x2="17.655172" y2="512" stroke="#000000" stroke-opacity="1" stroke-width="2" stroke-linecap="butt" opacity="0.2" />
<line x1="100.045975" y1="0" x2="100.045975" y2="512" stroke="#000000" stroke-opacity="1" stroke-width="2" stroke-linecap="butt" opacity="0.2" />
<line x1="182.43677" y1="0" x2="182.43677" y2="512" stroke="#000000" stroke-opacity="1" stroke-width="2" stroke-linecap="butt" opacity="0.2" />
<line x1="264.82758" y1="0" x2="264.82758" y2="512" stroke="#000000" stroke-opacity="1" stroke-width="2" stroke-linecap="butt" opacity="0.2" />
<line x1="347.21838" y1="0" x2="347.21838" y2="512" stroke="#000000" stroke-opacity="1" stroke-width="2" stroke-linecap="butt" opacity="0.2" />
<line x1="429.6092" y1="0" x2="429.6092" y2="512" stroke="#000000" stroke-opacity="1" stroke-width="2" stroke-linecap="butt" opacity="0.2" />
<line x1="0" y1="512" x2="512" y2="512" stroke="#000000" stroke-opacity="1" stroke-width="2" stroke-linecap="butt" opacity="0.2" />
<line x1="0" y1="426.66666" x2="512" y2="426.66666" stroke="#000000" stroke-opacity="1" stroke-width="2" stroke-linecap="butt" opacity="0.2" />
<line x1="0" y1="341.3333" x2="512" y2="341.3333" stroke="#000000" stroke-opacity="1" stroke-width="2" stroke-linecap="butt" opacity="0.2" />
<line x1="0" y1="256" x2="512" y2="256" stroke="#000000" stroke-opacity="1" stroke-width="2" stroke-linecap="butt" opacity="0.2" />
<line x1="0" y1="170.66666" x2="512" y2="170.66666" stroke="#000000" stroke-opacity="1" stroke-width="2" stroke-linecap="butt" opacity="0.2" />
<line x1="0" y1="85.33331" x2="512" y2="85.33331" stroke="#000000" stroke-opacity="1" stroke-width="2" stroke-linecap="butt" opacity="0.2" />
<circle cx="17.655172" cy="454.45404" r="4" fill="#0000FF" fill-opacity="1" stroke="none" stroke-opacity="1" stroke-width="0" opacity="1" />
<circle cx="35.310345" cy="506.91113" r="4" fill="#0000FF" fill-opacity="1" stroke="none" stroke-opacity="1" stroke-width="0" opacity="1" />
<circle cx="52.965515" cy="465.55908" r="4" fill="#0000FF" fill-opacity="1" stroke="none" stroke-opacity="1" stroke-width="0" opacity="1" />
<circle cx="70.62069" cy="502.8381" r="4" fill="#0000FF" fill-opacity="1" stroke="none" stroke-opacity="1" stroke-width="0" opacity="1" />
<circle cx="88.27586" cy="418.27612" r="4" fill="#0000FF" fill-opacity="1" stroke="none" stroke-opacity="1" stroke-width="0" opacity="1" />
<circle cx="105.93103" cy="480.8195" r="4" fill="#0000FF" fill-opacity="1" stroke="none" stroke-opacity="1" stroke-width="0" opacity="1" />
<circle cx="123.586205" cy="485.7663" r="4" fill="#0000FF" fill-opacity="1" stroke="none" stroke-opacity="1" stroke-width="0" opacity="1" />
<circle cx="141.24138" cy="370.56995" r="4" fill="#0000FF" fill-opacity="1" stroke="none" stroke-opacity="1" stroke-width="0" opacity="1" />
<circle cx="158.89655" cy="440.2534" r="4" fill="#0000FF" fill-opacity="1" stroke="none" stroke-opacity="1" stroke-width="0" opacity="1" />
<circle cx="176.55173" cy="386.3784" r="4" fill="#0000FF" fill-opacity="1" stroke="none" stroke-opacity="1" stroke-width="0" opacity="1" />
<circle cx="194.2069" cy="304.8541" r="4" fill="#0000FF" fill-opacity="1" stroke="none" stroke-opacity="1" stroke-width="0" opacity="1" />
<circle cx="211.86206" cy="348.3094" r="4" fill="#0000FF" fill-opacity="1" stroke="none" stroke-opacity="1" stroke-width="0" opacity="1" />
<circle cx="229.51724" cy="252.53735" r="4" fill="#0000FF" fill-opacity="1" stroke="none" stroke-opacity="1" stroke-width="0" opacity="1" />
<circle cx="247.17241" cy="300.47668" r="4" fill="#0000FF" fill-opacity="1" stroke="none" stroke-opacity="1" stroke-width="0" opacity="1" />
<circle cx="264.82758" cy="239.81454" r="4" fill="#0000FF" fill-opacity="1" stroke="none" stroke-opacity="1" stroke-width="0" opacity="1" />
<circle cx="282.48276" cy="208.62466" r="4" fill="#0000FF" fill-opacity="1" stroke="none" stroke-opacity="1" stroke-width="0" opacity="1" />
<circle cx="300.13794" cy="315.24384" r="4" fill="#0000FF" fill-opacity="1" stroke="none" stroke-opacity="1" stroke-width="0" opacity="1" />
<circle cx="317.7931" cy="222.08542" r="4" fill="#0000FF" fill-opacity="1" stroke="none" stroke-opacity="1" stroke-width="0" opacity="1" />
<circle cx="335.44827" cy="247.61838" r="4" fill="#0000FF" fill-opacity="1" stroke="none" stroke-opacity="1" stroke-width="0" opacity="1" />
<circle cx="353.10345" cy="176.06552" r="4" fill="#0000FF" fill-opacity="1" stroke="none" stroke-opacity="1" stroke-width="0" opacity="1" />
<circle cx="370.7586" cy="130.23886" r="4" fill="#0000FF" fill-opacity="1" stroke="none" stroke-opacity="1" stroke-width="0" opacity="1" />
<circle cx="388.4138" cy="227.75967" r="4" fill="#0000FF" fill-opacity="1" stroke="none" stroke-opacity="1" stroke-width="0" opacity="1" />
<circle cx="406.06897" cy="116.44409" r="4" fill="#0000FF" fill-opacity="1" stroke="none" stroke-opacity="1" stroke-width="0" opacity="1" />
<circle cx="423.72412" cy="222.18033" r="4" fill="#0000FF" fill-opacity="1" stroke="none" stroke-opacity="1" stroke-width="0" opacity="1" />
<circle cx="441.3793" cy="69.1134" r="4" fill="#0000FF" fill-opacity="1" stroke="none" stroke-opacity="1" stroke-width="0" opacity="1" />
<circle cx="459.0345" cy="50.686676" r="4" fill="#0000FF" fill-opacity="1" stroke="none" stroke-opacity="1" stroke-width="0" opacity="1" />
<circle cx="476.68967" cy="168.06195" r="4" fill="#0000FF" fill-opacity="1" stroke="none" stroke-opacity="1" stroke-width="0" opacity="1" />
<circle cx="494.34482" cy="47.693817" r="4" fill="#0000FF" fill-opacity="1" stroke="none" stroke-opacity="1" stroke-width="0" opacity="1" />
<polyline points="17.655172 506.59644 13.655172 510.59644 17.655172 514.59644 21.655172 510.59644 17.655172 506.59644 " fill="#FF0000" fill-opacity="1" stroke="none" stroke-opacity="1" stroke-width="1" opacity="1" />
<polyline points="35.310345 504.13513 31.310345 508.13513 35.310345 512.13513 39.310345 508.13513 35.310345 504.13513 " fill="#FF0000" fill-opacity="1" stroke="none" stroke-opacity="1" stroke-width="1" opacity="1" />
<polyline points="52.965515 482.91202 48.965515 486.91202 52.965515 490.91202 56.965515 486.91202 52.965515 482.91202 " fill="#FF0000" fill-opacity="1" stroke="none" stroke-opacity="1" stroke-width="1" opacity="1" />
<polyline points="70.62069 477.4151 66.62069 481.4151 70.62069 485.4151 74.62069 481.4151 70.62069 477.4151 " fill="#FF0000" fill-opacity="1" stroke="none" stroke-opacity="1" stroke-width="1" opacity="1" />
<polyline points="88.27586 447.55 84.27586 451.55 88.27586 455.55 92.27586 451.55 88.27586 447.55 " fill="#FF0000" fill-opacity="1" stroke="none" stroke-opacity="1" stroke-width="1" opacity="1" />
<polyline points="105.93103 447.10593 101.93103 451.10593 105.93103 455.10593 109.93103 451.10593 105.93103 447.10593 " fill="#FF0000" fill-opacity="1" stroke="none" stroke-opacity="1" stroke-width="1" opacity="1" />
<polyline points="123.586205 435.14258 119.586205 439.14258 123.586205 443.14258 127.586205 439.14258 123.586205 435.14258 " fill="#FF0000" fill-opacity="1" stroke="none" stroke-opacity="1" stroke-width="1" opacity="1" />
<polyline points="141.24138 399.1506 137.24138 403.1506 141.24138 407.1506 145.24138 403.1506 141.24138 399.1506 " fill="#FF0000" fill-opacity="1" stroke="none" stroke-opacity="1" stroke-width="1" opacity="1" />
<polyline points="158.89655 400.13455 154.89655 404.13455 158.89655 408.13455 162.89655 404.13455 158.89655 400.13455 " fill="#FF0000" fill-opacity="1" stroke="none" stroke-opacity="1" stroke-width="1" opacity="1" />
<polyline points="176.55173 376.40683 172.55173 380.40683 176.55173 384.40683 180.55173 380.40683 176.55173 376.40683 " fill="#FF0000" fill-opacity="1" stroke="none" stroke-opacity="1" stroke-width="1" opacity="1" />
<polyline points="194.2069 347.14923 190.2069 351.14923 194.2069 355.14923 198.2069 351.14923 194.2069 347.14923 " fill="#FF0000" fill-opacity="1" stroke="none" stroke-opacity="1" stroke-width="1" opacity="1" />
<polyline points="211.86206 342.88757 207.86206 346.88757 211.86206 350.88757 215.86206 346.88757 211.86206 342.88757 " fill="#FF0000" fill-opacity="1" stroke="none" stroke-opacity="1" stroke-width="1" opacity="1" />
<polyline points="229.51724 310.78046 225.51724 314.78046 229.51724 318.78046 233.51724 314.78046 229.51724 310.78046 " fill="#FF0000" fill-opacity="1" stroke="none" stroke-opacity="1" stroke-width="1" opacity="1" />
<polyline points="247.17241 307.4156 243.17241 311.4156 247.17241 315.4156 251.17241 311.4156 247.17241 307.4156 " fill="#FF0000" fill-opacity="1" stroke="none" stroke-opacity="1" stroke-width="1" opacity="1" />
<polyline points="264.82758 282.33047 260.82758 286.33047 264.82758 290.33047 268.82758 286.33047 264.82758 282.33047 " fill="#FF0000" fill-opacity="1" stroke="none" stroke-opacity="1" stroke-width="1" opacity="1" />
<polyline points="282.48276 263.13977 278.48276 267.13977 282.48276 271.13977 286.48276 267.13977 282.48276 263.13977 " fill="#FF0000" fill-opacity="1" stroke="none" stroke-opacity="1" stroke-width="1" opacity="1" />
<polyline points="300.13794 271.5109 296.13794 275.5109 300.13794 279.5109 304.13794 275.5109 300.13794 271.5109 " fill="#FF0000" fill-opacity="1" stroke="none" stroke-opacity="1" stroke-width="1" opacity="1" />
<polyline points="317.7931 239.92648 313.7931 243.92648 317.7931 247.92648 321.7931 243.92648 317.7931 239.92648 " fill="#FF0000" fill-opacity="1" stroke="none" stroke-opacity="1" stroke-width="1" opacity="1" />
<polyline points="335.44827 232.08035 331.44827 236.08035 335.44827 240.08035 339.44827 236.08035 335.44827 232.08035 " fill="#FF0000" fill-opacity="1" stroke="none" stroke-opacity="1" stroke-width="1" opacity="1" />
<polyline points="353.10345 204.81708 349.10345 208.81708 353.10345 212.81708 357.10345 208.81708 353.10345 204.81708 " fill="#FF0000" fill-opacity="1" stroke="none" stroke-opacity="1" stroke-width="1" opacity="1" />
<polyline points="370.7586 182.69904 366.7586 186.69904 370.7586 190.69904 374.7586 186.69904 370.7586 182.69904 " fill="#FF0000" fill-opacity="1" stroke="none" stroke-opacity="1" stroke-width="1" opacity="1" />
<polyline points="388.4138 189.25046 384.4138 193.25046 388.4138 197.25046 392.4138 193.25046 388.4138 189.25046 " fill="#FF0000" fill-opacity="1" stroke="none" stroke-opacity="1" stroke-width="1" opacity="1" />
<polyline points="406.06897 154.03464 402.06897 158.03464 406.06897 162.03464 410.06897 158.03464 406.06897 154.03464 " fill="#FF0000" fill-opacity="1" stroke="none" stroke-opacity="1" stroke-width="1" opacity="1" />
<polyline points="423.72412 162.22916 419.72412 166.22916 423.72412 170.22916 427.72412 166.22916 423.72412 162.22916 " fill="#FF0000" fill-opacity="1" stroke="none" stroke-opacity="1" stroke-width="1" opacity="1" />
<polyline points="441.3793 118.663055 437.3793 122.663055 441.3793 126.663055 445.3793 122.663055 441.3793 118.663055 " fill="#FF0000" fill-opacity="1" stroke="none" stroke-opacity="1" stroke-width="1" opacity="1" />
<polyline points="459.0345 102.024994 455.0345 106.024994 459.0345 110.024994 463.0345 106.024994 459.0345 102.024994 " fill="#FF0000" fill-opacity="1" stroke="none" stroke-opacity="1" stroke-width="1" opacity="1" />
<polyline points="476.68967 112.5473 472.68967 116.5473 476.68967 120.5473 480.68967 116.5473 476.68967 112.5473 " fill="#FF0000" fill-opacity="1" stroke="none" stroke-opacity="1" stroke-width="1" opacity="1" />
<polyline points="494.34482 75.520966 490.34482 79.520966 494.34482 83.520966 498.34482 79.520966 494.34482 75.520966 " fill="#FF0000" fill-opacity="1" stroke="none" stroke-opacity="1" stroke-width="1" opacity="1" />
<rect x="0" y="0" width="512" height="512" rx="auto" ry="auto" fill="none" fill-opacity="1e0" stroke="#000000" stroke-opacity="1e0" stroke-width="4" opacity="1e0" />
<text x="17.655172" y="522" dx="0" dy="0" textLength="none" fill="#000000" fill-opacity="1" stroke="none" stroke-opacity="1" stroke-width="1" opacity="1" font-family="sans-serif" font-size="10px" font-weight="normal" text-anchor="middle" dominant-baseline="hanging" >0.00</text>
<text x="100.045975" y="522" dx="0" dy="0" textLength="none" fill="#000000" fill-opacity="1" stroke="none" stroke-opacity="1" stroke-width="1" opacity="1" font-family="sans-serif" font-size="10px" font-weight="normal" text-anchor="middle" dominant-baseline="hanging" >4.67</text>
<text x="182.43677" y="522" dx="0" dy="0" textLength="none" fill="#000000" fill-opacity="1" stroke="none" stroke-opacity="1" stroke-width="1" opacity="1" font-family="sans-serif" font-size="10px" font-weight="normal" text-anchor="middle" dominant-baseline="hanging" >9.33</text>
<text x="264.82758" y="522" dx="0" dy="0" textLength="none" fill="#000000" fill-opacity="1" stroke="none" stroke-opacity="1" stroke-width="1" opacity="1" font-family="sans-serif" font-size="10px" font-weight="normal" text-anchor="middle" dominant-baseline="hanging" >14.00</text>
<text x="347.21838" y="522" dx="0" dy="0" textLength="none" fill="#000000" fill-opacity="1" stroke="none" stroke-opacity="1" stroke-width="1" opacity="1" font-family="sans-serif" font-size="10px" font-weight="normal" text-anchor="middle" dominant-baseline="hanging" >18.67</text>
<text x="429.6092" y="522" dx="0" dy="0" textLength="none" fill="#000000" fill-opacity="1" stroke="none" stroke-opacity="1" stroke-width="1" opacity="1" font-family="sans-serif" font-size="10px" font-weight="normal" text-anchor="middle" dominant-baseline="hanging" >23.33</text>
<text x="-10" y="512" dx="0" dy="0" textLength="none" fill="#000000" fill-opacity="1" stroke="none" stroke-opacity="1" stroke-width="1" opacity="1" font-family="sans-serif" font-size="10px" font-weight="normal" text-anchor="end" dominant-baseline="middle" >0.78</text>
<text x="-10" y="426.66666" dx="0" dy="0" textLength="none" fill="#000000" fill-opacity="1" stroke="none" stroke-opacity="1" stroke-width="1" opacity="1" font-family="sans-serif" font-size="10px" font-weight="normal" text-anchor="end" dominant-baseline="middle" >6.05</text>
<text x="-10" y="341.3333" dx="0" dy="0" textLength="none" fill="#000000" fill-opacity="1" stroke="none" stroke-opacity="1" stroke-width="1" opacity="1" font-family="sans-serif" font-size="10px" font-weight="normal" text-anchor="end" dominant-baseline="middle" >11.32</text>
<text x="-10" y="256" dx="0" dy="0" textLength="none" fill="#000000" fill-opacity="1" stroke="none" stroke-opacity="1" stroke-width="1" opacity="1" font-family="sans-serif" font-size="10px" font-weight="normal" text-anchor="end" dominant-baseline="middle" >16.59</text>
<text x="-10" y="170.66666" dx="0" dy="0" textLength="none" fill="#000000" fill-opacity="1" stroke="none" stroke-opacity="1" stroke-width="1" opacity="1" font-family="sans-serif" font-size="10px" font-weight="normal" text-anchor="end" dominant-baseline="middle" >21.86</text>
<text x="-10" y="85.33331" dx="0" dy="0" textLength="none" fill="#000000" fill-opacity="1" stroke="none" stroke-opacity="1" stroke-width="1" opacity="1" font-family="sans-serif" font-size="10px" font-weight="normal" text-anchor="end" dominant-baseline="middle" >27.13</text>
</svg>