<?xml version="1.0" encoding="UTF-8" standalone="no"?>
<!DOCTYPE svg PUBLIC "-//W3C//DTD SVG 1.1//EN" "http://www.w3.org/Graphics/SVG/1.1/DTD/svg11.dtd">
<svg width="612" height="612" viewBox="-50 -50 612 612" xmlns="http://www.w3.org/2000/svg" xmlns:xlink="http://www.w3.org/1999/xlink">
<rect x="-50" y="-50" width="612" height="612" rx="auto" ry="auto" fill="#FFFFFF" fill-opacity="1e0" stroke="none" stroke-opacity="1e0" stroke-width="1" opacity="1e0" />
<text x="256" y="-8" dx="0" dy="0" textLength="none" fill="#000000" fill-opacity="1" stroke="none" stroke-opacity="1" stroke-width="1" opacity="1" font-family="sans-serif" font-size="20px" font-weight="bold" text-anchor="middle" dominant-baseline="text-after-edge" >Example plot</text>
<line x1="88.27586" y1="0" x2="88.27586" y2="512" stroke="#000000" stroke-opacity="1" stroke-width="2" stroke-linecap="butt" opacity="0.2" />
<line x1="158.89655" y1="0" x2="158.89655" y2="512" stroke="#000000" stroke-opacity="1" stroke-width="2" stroke-linecap="butt" opacity="0.2" />
<line x1="229.51724" y1="0" x2="229.51724" y2="512" stroke="#000000" stroke-opacity="1" stroke-width="2" stroke-linecap="butt" opacity="0.2" />
<line x1="300.13794" y1="0" x2="300.13794" y2="512" stroke="#000000" stroke-opacity="1" stroke-width="2" stroke-linecap="butt" opacity="0.2" />
<line x1="370.7586" y1="0" x2="370.7586" y2="512" stroke="#000000" stroke-opacity="1" stroke-width="2" stroke-linecap="butt" opacity="0.2" />
<line x1="441.37933" y1="0" x2="441.37933" y2="512" stroke="#000000" stroke-opacity="1" stroke-width="2" stroke-linecap="butt" opacity="0.2" />
<line x1="17.655174" y1="0" x2="17.655174" y2="512" stroke="#000000" stroke-opacity="1" stroke-width="2" stroke-linecap="butt" opacity="0.2" />
<line x1="0" y1="365.7143" x2="512" y2="365.7143" stroke="#000000" stroke-opacity="1" stroke-width="2" stroke-linecap="butt" opacity="0.2" />
<line x1="0" y1="304.7619" x2="512" y2="304.7619" stroke="#000000" stroke-opacity="1" stroke-width="2" stroke-linecap="butt" opacity="0.2" />
<line x1="0" y1="243.80954" x2="512" y2="243.80954" stroke="#000000" stroke-opacity="1" stroke-width="2" stroke-linecap="butt" opacity="0.2" />
<line x1="0" y1="182.85715" x2="512" y2="182.85715" stroke="#000000" stroke-opacity="1" stroke-width="2" stroke-linecap="butt" opacity="0.2" />
<line x1="0" y1="121.90477" x2="512" y2="121.90477" stroke="#000000" stroke-opacity="1" stroke-width="2" stroke-linecap="butt" opacity="0.2" />
<line x1="0" y1="60.952393" x2="512" y2="60.952393" stroke="#000000" stroke-opacity="1" stroke-width="2" stroke-linecap="butt" opacity="0.2" />
<line x1="0" y1="426.6667" x2="512" y2="426.6667" stroke="#000000" stroke-opacity="1" stroke-width="2" stroke-linecap="butt" opacity="0.2" />
<line x1="0" y1="487.61905" x2="512" y2="487.61905" stroke="#000000" stroke-opacity="1" stroke-width="2" stroke-linecap="butt" opacity="0.2" />
<polyline points="88.27586 365.7143 88.27586 365.7143 105.93103 332.46753 123.586205 299.22076 141.24138 265.974 158.89655 232.7273 176.55173 199.48053 194.2069 166.23376 211.86206 132.98703 229.51724 99.740265 247.17241 66.4935 264.82758 33.246765 282.48276 66.4935 300.13794 99.740265 317.7931 132.98703 335.44827 166.23376 353.10345 199.48053 370.7586 232.7273 388.4138 265.974 406.06897 299.22076 423.72412 332.46753 441.3793 365.7143 459.0345 398.96103 476.68967 432.2078 494.34482 465.45453 512 498.7013 512 365.7143 " fill="#0000FF" fill-opacity="0.5" stroke="#0000FF" stroke-opacity="1" stroke-width="2" opacity="1" />
<polyline points="87.77586 363.7143 88.77586 363.7143 88.77586 365.2143 90.27586 365.2143 90.27586 366.2143 88.77586 366.2143 88.77586 367.7143 87.77586 367.7143 87.77586 366.2143 86.27586 366.2143 86.27586 365.2143 87.77586 365.2143 87.77586 363.7143 " fill="#FF0000" fill-opacity="1" stroke="none" stroke-opacity="1" stroke-width="1" opacity="1" />
<polyline points="105.43103 347.09088 106.43103 347.09088 106.43103 348.59088 107.93103 348.59088 107.93103 349.59088 106.43103 349.59088 106.43103 351.09088 105.43103 351.09088 105.43103 349.59088 103.93103 349.59088 103.93103 348.59088 105.43103 348.59088 105.43103 347.09088 " fill="#FF0000" fill-opacity="1" stroke="none" stroke-opacity="1" stroke-width="1" opacity="1" />
<polyline points="123.086205 330.46753 124.086205 330.46753 124.086205 331.96753 125.586205 331.96753 125.586205 332.96753 124.086205 332.96753 124.086205 334.46753 123.086205 334.46753 123.086205 332.96753 121.586205 332.96753 121.586205 331.96753 123.086205 331.96753 123.086205 330.46753 " fill="#FF0000" fill-opacity="1" stroke="none" stroke-opacity="1" stroke-width="1" opacity="1" />
<polyline points="140.74138 313.84415 141.74138 313.84415 141.74138 315.34415 143.24138 315.34415 143.24138 316.34415 141.74138 316.34415 141.74138 317.84415 140.74138 317.84415 140.74138 316.34415 139.24138 316.34415 139.24138 315.34415 140.74138 315.34415 140.74138 313.84415 " fill="#FF0000" fill-opacity="1" stroke="none" stroke-opacity="1" stroke-width="1" opacity="1" />
<polyline points="158.39655 297.22076 159.39655 297.22076 159.39655 298.72076 160.89655 298.72076 160.89655 299.72076 159.39655 299.72076 159.39655 301.22076 158.39655 301.22076 158.39655 299.72076 156.89655 299.72076 156.89655 298.72076 158.39655 298.72076 158.39655 297.22076 " fill="#FF0000" fill-opacity="1" stroke="none" stroke-opacity="1" stroke-width="1" opacity="1" />
<polyline points="176.05173 280.5974 177.05173 280.5974 177.05173 282.0974 178.55173 282.0974 178.55173 283.0974 177.05173 283.0974 177.05173 284.5974 176.05173 284.5974 176.05173 283.0974 174.55173 283.0974 174.55173 282.0974 176.05173 282.0974 176.05173 280.5974 " fill="#FF0000" fill-opacity="1" stroke="none" stroke-opacity="1" stroke-width="1" opacity="1" />
<polyline points="193.7069 263.974 194.7069 263.974 194.7069 265.474 196.2069 265.474 196.2069 266.474 194.7069 266.474 194.7069 267.974 193.7069 267.974 193.7069 266.474 192.2069 266.474 192.2069 265.474 193.7069 265.474 193.7069 263.974 " fill="#FF0000" fill-opacity="1" stroke="none" stroke-opacity="1" stroke-width="1" opacity="1" />
<polyline points="211.36206 247.35065 212.36206 247.35065 212.36206 248.85065 213.86206 248.85065 213.86206 249.85065 212.36206 249.85065 212.36206 251.35065 211.36206 251.35065 211.36206 249.85065 209.86206 249.85065 209.86206 248.85065 211.36206 248.85065 211.36206 247.35065 " fill="#FF0000" fill-opacity="1" stroke="none" stroke-opacity="1" stroke-width="1" opacity="1" />
<polyline points="229.01724 230.7273 230.01724 230.7273 230.01724 232.2273 231.51724 232.2273 231.51724 233.2273 230.01724 233.2273 230.01724 234.7273 229.01724 234.7273 229.01724 233.2273 227.51724 233.2273 227.51724 232.2273 229.01724 232.2273 229.01724 230.7273 " fill="#FF0000" fill-opacity="1" stroke="none" stroke-opacity="1" stroke-width="1" opacity="1" />
<polyline points="246.67241 214.10391 247.67241 214.10391 247.67241 215.60391 249.17241 215.60391 249.17241 216.60391 247.67241 216.60391 247.67241 218.10391 246.67241 218.10391 246.67241 216.60391 245.17241 216.60391 245.17241 215.60391 246.67241 215.60391 246.67241 214.10391 " fill="#FF0000" fill-opacity="1" stroke="none" stroke-opacity="1" stroke-width="1" opacity="1" />
<polyline points="264.32758 197.48053 265.32758 197.48053 265.32758 198.98053 266.82758 198.98053 266.82758 199.98053 265.32758 199.98053 265.32758 201.48053 264.32758 201.48053 264.32758 199.98053 262.82758 199.98053 262.82758 198.98053 264.32758 198.98053 264.32758 197.48053 " fill="#FF0000" fill-opacity="1" stroke="none" stroke-opacity="1" stroke-width="1" opacity="1" />
<polyline points="281.98276 197.48053 282.98276 197.48053 282.98276 198.98053 284.48276 198.98053 284.48276 199.98053 282.98276 199.98053 282.98276 201.48053 281.98276 201.48053 281.98276 199.98053 280.48276 199.98053 280.48276 198.98053 281.98276 198.98053 281.98276 197.48053 " fill="#FF0000" fill-opacity="1" stroke="none" stroke-opacity="1" stroke-width="1" opacity="1" />
<polyline points="299.63794 197.48053 300.63794 197.48053 300.63794 198.98053 302.13794 198.98053 302.13794 199.98053 300.63794 199.98053 300.63794 201.48053 299.63794 201.48053 299.63794 199.98053 298.13794 199.98053 298.13794 198.98053 299.63794 198.98053 299.63794 197.48053 " fill="#FF0000" fill-opacity="1" stroke="none" stroke-opacity="1" stroke-width="1" opacity="1" />
<polyline points="317.2931 197.48053 318.2931 197.48053 318.2931 198.98053 319.7931 198.98053 319.7931 199.98053 318.2931 199.98053 318.2931 201.48053 317.2931 201.48053 317.2931 199.98053 315.7931 199.98053 315.7931 198.98053 317.2931 198.98053 317.2931 197.48053 " fill="#FF0000" fill-opacity="1" stroke="none" stroke-opacity="1" stroke-width="1" opacity="1" />
<polyline points="334.94827 197.48053 335.94827 197.48053 335.94827 198.98053 337.44827 198.98053 337.44827 199.98053 335.94827 199.98053 335.94827 201.48053 334.94827 201.48053 334.94827 199.98053 333.44827 199.98053 333.44827 198.98053 334.94827 198.98053 334.94827 197.48053 " fill="#FF0000" fill-opacity="1" stroke="none" stroke-opacity="1" stroke-width="1" opacity="1" />
<polyline points="352.60345 197.48053 353.60345 197.48053 353.60345 198.98053 355.10345 198.98053 355.10345 199.98053 353.60345 199.98053 353.60345 201.48053 352.60345 201.48053 352.60345 199.98053 351.10345 199.98053 351.10345 198.98053 352.60345 198.98053 352.60345 197.48053 " fill="#FF0000" fill-opacity="1" stroke="none" stroke-opacity="1" stroke-width="1" opacity="1" />
<polyline points="370.2586 197.48053 371.2586 197.48053 371.2586 198.98053 372.7586 198.98053 372.7586 199.98053 371.2586 199.98053 371.2586 201.48053 370.2586 201.48053 370.2586 199.98053 368.7586 199.98053 368.7586 198.98053 370.2586 198.98053 370.2586 197.48053 " fill="#FF0000" fill-opacity="1" stroke="none" stroke-opacity="1" stroke-width="1" opacity="1" />
<polyline points="387.9138 197.48053 388.9138 197.48053 388.9138 198.98053 390.4138 198.98053 390.4138 199.98053 388.9138 199.98053 388.9138 201.48053 387.9138 201.48053 387.9138 199.98053 386.4138 199.98053 386.4138 198.98053 387.9138 198.98053 387.9138 197.48053 " fill="#FF0000" fill-opacity="1" stroke="none" stroke-opacity="1" stroke-width="1" opacity="1" />
<polyline points="405.56897 197.48053 406.56897 197.48053 406.56897 198.98053 408.06897 198.98053 408.06897 199.98053 406.56897 199.98053 406.56897 201.48053 405.56897 201.48053 405.56897 199.98053 404.06897 199.98053 404.06897 198.98053 405.56897 198.98053 405.56897 197.48053 " fill="#FF0000" fill-opacity="1" stroke="none" stroke-opacity="1" stroke-width="1" opacity="1" />
<polyline points="423.22412 197.48053 424.22412 197.48053 424.22412 198.98053 425.72412 198.98053 425.72412 199.98053 424.22412 199.98053 424.22412 201.48053 423.22412 201.48053 423.22412 199.98053 421.72412 199.98053 421.72412 198.98053 423.22412 198.98053 423.22412 197.48053 " fill="#FF0000" fill-opacity="1" stroke="none" stroke-opacity="1" stroke-width="1" opacity="1" />
<polyline points="440.8793 197.48053 441.8793 197.48053 441.8793 198.98053 443.3793 198.98053 443.3793 199.98053 441.8793 199.98053 441.8793 201.48053 440.8793 201.48053 440.8793 199.98053 439.3793 199.98053 439.3793 198.98053 440.8793 198.98053 440.8793 197.48053 " fill="#FF0000" fill-opacity="1" stroke="none" stroke-opacity="1" stroke-width="1" opacity="1" />
<polyline points="458.5345 197.48053 459.5345 197.48053 459.5345 198.98053 461.0345 198.98053 461.0345 199.98053 459.5345 199.98053 459.5345 201.48053 458.5345 201.48053 458.5345 199.98053 457.0345 199.98053 457.0345 198.98053 458.5345 198.98053 458.5345 197.48053 " fill="#FF0000" fill-opacity="1" stroke="none" stroke-opacity="1" stroke-width="1" opacity="1" />
<polyline points="476.18967 197.48053 477.18967 197.48053 477.18967 198.98053 478.68967 198.98053 478.68967 199.98053 477.18967 199.98053 477.18967 201.48053 476.18967 201.48053 476.18967 199.98053 474.68967 199.98053 474.68967 198.98053 476.18967 198.98053 476.18967 197.48053 " fill="#FF0000" fill-opacity="1" stroke="none" stroke-opacity="1" stroke-width="1" opacity="1" />
<polyline points="493.84482 197.48053 494.84482 197.48053 494.84482 198.98053 496.34482 198.98053 496.34482 199.98053 494.84482 199.98053 494.84482 201.48053 493.84482 201.48053 493.84482 199.98053 492.34482 199.98053 492.34482 198.98053 493.84482 198.98053 493.84482 197.48053 " fill="#FF0000" fill-opacity="1" stroke="none" stroke-opacity="1" stroke-width="1" opacity="1" />
<polyline points="511.5 197.48053 512.5 197.48053 512.5 198.98053 514 198.98053 514 199.98053 512.5 199.98053 512.5 201.48053 511.5 201.48053 511.5 199.98053 510 199.98053 510 198.98053 511.5 198.98053 511.5 197.48053 " fill="#FF0000" fill-opacity="1" stroke="none" stroke-opacity="1" stroke-width="1" opacity="1" />
<path d="M 88.27586 365.7143 C 88.27586 365.7143 105.93103 365.7143 105.93103 365.7143 C 105.93103 365.7143 123.586205 365.7143 123.586205 365.7143 C 123.586205 365.7143 141.24138 365.7143 141.24138 365.7143 C 141.24138 365.7143 158.89655 365.7143 158.89655 365.7143 C 158.89655 365.7143 176.55173 365.7143 176.55173 365.7143 C 176.55173 365.7143 194.2069 365.7143 194.2069 365.7143 C 194.2069 365.7143 211.86206 365.7143 211.86206 365.7143 C 211.86206 365.7143 229.51724 365.7143 229.51724 365.7143 C 229.51724 365.7143 247.17241 357.4026 247.17241 357.4026 C 247.17241 357.4026 264.82758 349.09088 264.82758 349.09088 C 264.82758 349.09088 282.48276 340.77924 282.48276 340.77924 C 282.48276 340.77924 300.13794 332.46753 300.13794 332.46753 C 300.13794 332.46753 317.7931 324.15582 317.7931 324.15582 C 317.7931 324.15582 335.44827 315.84415 335.44827 315.84415 C 335.44827 315.84415 353.10345 307.53247 353.10345 307.53247 C 353.10345 307.53247 370.7586 299.22076 370.7586 299.22076 C 370.7586 299.22076 388.4138 290.9091 388.4138 290.9091 C 388.4138 290.9091 406.06897 282.5974 406.06897 282.5974 C 406.06897 282.5974 423.72412 274.2857 423.72412 274.2857 C 423.72412 274.2857 441.3793 265.974 441.3793 265.974 C 441.3793 265.974 459.0345 257.66235 459.0345 257.66235 C 459.0345 257.66235 476.68967 249.35065 476.68967 249.35065 C 476.68967 249.35065 494.34482 241.03897 494.34482 241.03897 C 494.34482 241.03897 512 232.7273 512 232.7273 " fill="none" fill-opacity="1" stroke="#00FF00" stroke-opacity="1" stroke-width="2" opacity="1" />
<polyline points="0 365.7143 0 282.5974 88.27586 315.84415 176.55173 282.5974 176.55173 365.7143 " fill="#FF00FF" fill-opacity="0.5" stroke="#FF00FF" stroke-opacity="1" stroke-width="2" opacity="1" />
<polyline points="0 365.7143 0 448.83118 88.27586 415.5844 176.55173 448.83118 176.55173 365.7143 " fill="#FFFF00" fill-opacity="0.5" stroke="#FFFF00" stroke-opacity="1" stroke-width="2" opacity="1" />
<line x1="88.27586" y1="0" x2="88.27586" y2="512" stroke="#000000" stroke-opacity="1" stroke-width="2" stroke-linecap="butt" opacity="1" />
<line x1="0" y1="365.7143" x2="512" y2="365.7143" stroke="#000000" stroke-opacity="1" stroke-width="2" stroke-linecap="butt" opacity="1" />
<rect x="0" y="0" width="512" height="512" rx="auto" ry="auto" fill="none" fill-opacity="1e0" stroke="#000000" stroke-opacity="1e0" stroke-width="4" opacity="1e0" />
<text x="88.27586" y="522" dx="0" dy="0" textLength="none" fill="#000000" fill-opacity="1" stroke="none" stroke-opacity="1" stroke-width="1" opacity="1" font-family="sans-serif" font-size="10px" font-weight="normal" text-anchor="middle" dominant-baseline="hanging" >0.00</text>
<text x="158.89655" y="522" dx="0" dy="0" textLength="none" fill="#000000" fill-opacity="1" stroke="none" stroke-opacity="1" stroke-width="1" opacity="1" font-family="sans-serif" font-size="10px" font-weight="normal" text-anchor="middle" dominant-baseline="hanging" >4.00</text>
<text x="229.51724" y="522" dx="0" dy="0" textLength="none" fill="#000000" fill-opacity="1" stroke="none" stroke-opacity="1" stroke-width="1" opacity="1" font-family="sans-serif" font-size="10px" font-weight="normal" text-anchor="middle" dominant-baseline="hanging" >8.00</text>
<text x="300.13794" y="522" dx="0" dy="0" textLength="none" fill="#000000" fill-opacity="1" stroke="none" stroke-opacity="1" stroke-width="1" opacity="1" font-family="sans-serif" font-size="10px" font-weight="normal" text-anchor="middle" dominant-baseline="hanging" >12.00</text>
<text x="370.7586" y="522" dx="0" dy="0" textLength="none" fill="#000000" fill-opacity="1" stroke="none" stroke-opacity="1" stroke-width="1" opacity="1" font-family="sans-serif" font-size="10px" font-weight="normal" text-anchor="middle" dominant-baseline="hanging" >16.00</text>
<text x="441.37933" y="522" dx="0" dy="0" textLength="none" fill="#000000" fill-opacity="1" stroke="none" stroke-opacity="1" stroke-width="1" opacity="1" font-family="sans-serif" font-size="10px" font-weight="normal" text-anchor="middle" dominant-baseline="hanging" >20.00</text>
<text x="17.655174" y="522" dx="0" dy="0" textLength="none" fill="#000000" fill-opacity="1" stroke="none" stroke-opacity="1" stroke-width="1" opacity="1" font-family="sans-serif" font-size="10px" font-weight="normal" text-anchor="middle" dominant-baseline="hanging" >-4.00</text>
<text x="-10" y="365.7143" dx="0" dy="0" textLength="none" fill="#000000" fill-opacity="1" stroke="none" stroke-opacity="1" stroke-width="1" opacity="1" font-family="sans-serif" font-size="10px" font-weight="normal" text-anchor="end" dominant-baseline="middle" >-0.00</text>
<text x="-10" y="304.7619" dx="0" dy="0" textLength="none" fill="#000000" fill-opacity="1" stroke="none" stroke-opacity="1" stroke-width="1" opacity="1" font-family="sans-serif" font-size="10px" font-weight="normal" text-anchor="end" dominant-baseline="middle" >3.67</text>
<text x="-10" y="243.80954" dx="0" dy="0" textLength="none" fill="#000000" fill-opacity="1" stroke="none" stroke-opacity="1" stroke-width="1" opacity="1" font-family="sans-serif" font-size="10px" font-weight="normal" text-anchor="end" dominant-baseline="middle" >7.33</text>
<text x="-10" y="182.85715" dx="0" dy="0" textLength="none" fill="#000000" fill-opacity="1" stroke="none" stroke-opacity="1" stroke-width="1" opacity="1" font-family="sans-serif" font-size="10px" font-weight="normal" text-anchor="end" dominant-baseline="middle" >11.00</text>
<text x="-10" y="121.90477" dx="0" dy="0" textLength="none" fill="#000000" fill-opacity="1" stroke="none" stroke-opacity="1" stroke-width="1" opacity="1" font-family="sans-serif" font-size="10px" font-weight="normal" text-anchor="end" dominant-baseline="middle" >14.67</text>
<text x="-10" y="60.952393" dx="0" dy="0" textLength="none" fill="#000000" fill-opacity="1" stroke="none" stroke-opacity="1" stroke-width="1" opacity="1" font-family="sans-serif" font-size="10px" font-weight="normal" text-anchor="end" dominant-baseline="middle" >18.33</text>
<text x="-10" y="426.6667" dx="0" dy="0" textLength="none" fill="#000000" fill-opacity="1" stroke="none" stroke-opacity="1" stroke-width="1" opacity="1" font-family="sans-serif" font-size="10px" font-weight="normal" text-anchor="end" dominant-baseline="middle" >-3.67</text>
<text x="-10" y="487.61905" dx="0" dy="0" textLength="none" fill="#000000" fill-opacity="1" stroke="none" stroke-opacity="1" stroke-width="1" opacity="1" font-family="sans-serif" font-size="10px" font-weight="normal" text-anchor="end" dominant-baseline="middle" >-7.33</text>
</svg>