<?xml version="1.0" encoding="UTF-8" standalone="no"?>
<!DOCTYPE svg PUBLIC "-//W3C//DTD SVG 1.1//EN" "http://www.w3.org/Graphics/SVG/1.1/DTD/svg11.dtd">
<svg width="612" height="612" viewBox="-50 -50 612 612" xmlns="http://www.w3.org/2000/svg" xmlns:xlink="http://www.w3.org/1999/xlink">
<rect x="-50" y="-50" width="612" height="612" rx="auto" ry="auto" fill="#FFFFFF" fill-opacity="1.0e+00" stroke="none" stroke-opacity="1.0e+00" stroke-width="1" opacity="1.0e+00" />
<line x1="88.27586364746094" y1="0" x2="88.27586364746094" y2="512" stroke="#000000" stroke-opacity="1" stroke-width="2" stroke-linecap="butt" opacity="0.20000000298023224" />
<line x1="158.89654541015625" y1="0" x2="158.89654541015625" y2="512" stroke="#000000" stroke-opacity="1" stroke-width="2" stroke-linecap="butt" opacity="0.20000000298023224" />
<line x1="229.51724243164062" y1="0" x2="229.51724243164062" y2="512" stroke="#000000" stroke-opacity="1" stroke-width="2" stroke-linecap="butt" opacity="0.20000000298023224" />
<line x1="300.137939453125" y1="0" x2="300.137939453125" y2="512" stroke="#000000" stroke-opacity="1" stroke-width="2" stroke-linecap="butt" opacity="0.20000000298023224" />
<line x1="370.75860595703125" y1="0" x2="370.75860595703125" y2="512" stroke="#000000" stroke-opacity="1" stroke-width="2" stroke-linecap="butt" opacity="0.20000000298023224" />
<line x1="441.37933349609375" y1="0" x2="441.37933349609375" y2="512" stroke="#000000" stroke-opacity="1" stroke-width="2" stroke-linecap="butt" opacity="0.20000000298023224" />
<line x1="17.655174255371094" y1="0" x2="17.655174255371094" y2="512" stroke="#000000" stroke-opacity="1" stroke-width="2" stroke-linecap="butt" opacity="0.20000000298023224" />
<line x1="0" y1="365.71429443359375" x2="512" y2="365.71429443359375" stroke="#000000" stroke-opacity="1" stroke-width="2" stroke-linecap="butt" opacity="0.20000000298023224" />
<line x1="0" y1="304.76190185546875" x2="512" y2="304.76190185546875" stroke="#000000" stroke-opacity="1" stroke-width="2" stroke-linecap="butt" opacity="0.20000000298023224" />
<line x1="0" y1="243.80953979492188" x2="512" y2="243.80953979492188" stroke="#000000" stroke-opacity="1" stroke-width="2" stroke-linecap="butt" opacity="0.20000000298023224" />
<line x1="0" y1="182.85714721679688" x2="512" y2="182.85714721679688" stroke="#000000" stroke-opacity="1" stroke-width="2" stroke-linecap="butt" opacity="0.20000000298023224" />
<line x1="0" y1="121.90476989746094" x2="512" y2="121.90476989746094" stroke="#000000" stroke-opacity="1" stroke-width="2" stroke-linecap="butt" opacity="0.20000000298023224" />
<line x1="0" y1="60.952392578125" x2="512" y2="60.952392578125" stroke="#000000" stroke-opacity="1" stroke-width="2" stroke-linecap="butt" opacity="0.20000000298023224" />
<line x1="0" y1="426.66668701171875" x2="512" y2="426.66668701171875" stroke="#000000" stroke-opacity="1" stroke-width="2" stroke-linecap="butt" opacity="0.20000000298023224" />
<line x1="0" y1="487.6190490722656" x2="512" y2="487.6190490722656" stroke="#000000" stroke-opacity="1" stroke-width="2" stroke-linecap="butt" opacity="0.20000000298023224" />
<polyline points="0 365.71429443359375 88.27586364746094 365.71429443359375 105.9310302734375 332.467529296875 123.5862045288086 299.22076416015625 141.2413787841797 265.9739990234375 158.89654541015625 232.727294921875 176.55172729492188 199.48052978515625 194.20689392089844 166.2337646484375 211.862060546875 132.98703002929688 229.51724243164062 99.74026489257812 247.1724090576172 66.49349975585938 264.82757568359375 33.24676513671875 282.4827575683594 66.49349975585938 300.137939453125 99.74026489257812 317.7930908203125 132.98703002929688 335.4482727050781 166.2337646484375 353.10345458984375 199.48052978515625 370.75860595703125 232.727294921875 388.4137878417969 265.9739990234375 406.0689697265625 299.22076416015625 423.72412109375 332.467529296875 441.3793029785156 365.71429443359375 459.03448486328125 398.9610290527344 476.6896667480469 432.2077941894531 494.3448181152344 465.45452880859375 512 498.7012939453125 512 365.71429443359375 " fill="#0000FF" fill-opacity="0.5" stroke="#0000FF" stroke-opacity="1" stroke-width="2" opacity="1" />
<polyline points="87.77586364746094 363.71429443359375 88.77586364746094 363.71429443359375 88.77586364746094 365.21429443359375 90.27586364746094 365.21429443359375 90.27586364746094 366.21429443359375 88.77586364746094 366.21429443359375 88.77586364746094 367.71429443359375 87.77586364746094 367.71429443359375 87.77586364746094 366.21429443359375 86.27586364746094 366.21429443359375 86.27586364746094 365.21429443359375 87.77586364746094 365.21429443359375 87.77586364746094 363.71429443359375 " fill="#FF0000" fill-opacity="1" stroke="none" stroke-opacity="1" stroke-width="1" opacity="1" />
<polyline points="105.4310302734375 347.09088134765625 106.4310302734375 347.09088134765625 106.4310302734375 348.59088134765625 107.9310302734375 348.59088134765625 107.9310302734375 349.59088134765625 106.4310302734375 349.59088134765625 106.4310302734375 351.09088134765625 105.4310302734375 351.09088134765625 105.4310302734375 349.59088134765625 103.9310302734375 349.59088134765625 103.9310302734375 348.59088134765625 105.4310302734375 348.59088134765625 105.4310302734375 347.09088134765625 " fill="#FF0000" fill-opacity="1" stroke="none" stroke-opacity="1" stroke-width="1" opacity="1" />
<polyline points="123.0862045288086 330.467529296875 124.0862045288086 330.467529296875 124.0862045288086 331.967529296875 125.5862045288086 331.967529296875 125.5862045288086 332.967529296875 124.0862045288086 332.967529296875 124.0862045288086 334.467529296875 123.0862045288086 334.467529296875 123.0862045288086 332.967529296875 121.5862045288086 332.967529296875 121.5862045288086 331.967529296875 123.0862045288086 331.967529296875 123.0862045288086 330.467529296875 " fill="#FF0000" fill-opacity="1" stroke="none" stroke-opacity="1" stroke-width="1" opacity="1" />
<polyline points="140.7413787841797 313.8441467285156 141.7413787841797 313.8441467285156 141.7413787841797 315.3441467285156 143.2413787841797 315.3441467285156 143.2413787841797 316.3441467285156 141.7413787841797 316.3441467285156 141.7413787841797 317.8441467285156 140.7413787841797 317.8441467285156 140.7413787841797 316.3441467285156 139.2413787841797 316.3441467285156 139.2413787841797 315.3441467285156 140.7413787841797 315.3441467285156 140.7413787841797 313.8441467285156 " fill="#FF0000" fill-opacity="1" stroke="none" stroke-opacity="1" stroke-width="1" opacity="1" />
<polyline points="158.39654541015625 297.22076416015625 159.39654541015625 297.22076416015625 159.39654541015625 298.72076416015625 160.89654541015625 298.72076416015625 160.89654541015625 299.72076416015625 159.39654541015625 299.72076416015625 159.39654541015625 301.22076416015625 158.39654541015625 301.22076416015625 158.39654541015625 299.72076416015625 156.89654541015625 299.72076416015625 156.89654541015625 298.72076416015625 158.39654541015625 298.72076416015625 158.39654541015625 297.22076416015625 " fill="#FF0000" fill-opacity="1" stroke="none" stroke-opacity="1" stroke-width="1" opacity="1" />
<polyline points="176.05172729492188 280.597412109375 177.05172729492188 280.597412109375 177.05172729492188 282.097412109375 178.55172729492188 282.097412109375 178.55172729492188 283.097412109375 177.05172729492188 283.097412109375 177.05172729492188 284.597412109375 176.05172729492188 284.597412109375 176.05172729492188 283.097412109375 174.55172729492188 283.097412109375 174.55172729492188 282.097412109375 176.05172729492188 282.097412109375 176.05172729492188 280.597412109375 " fill="#FF0000" fill-opacity="1" stroke="none" stroke-opacity="1" stroke-width="1" opacity="1" />
<polyline points="193.70689392089844 263.9739990234375 194.70689392089844 263.9739990234375 194.70689392089844 265.4739990234375 196.20689392089844 265.4739990234375 196.20689392089844 266.4739990234375 194.70689392089844 266.4739990234375 194.70689392089844 267.9739990234375 193.70689392089844 267.9739990234375 193.70689392089844 266.4739990234375 192.20689392089844 266.4739990234375 192.20689392089844 265.4739990234375 193.70689392089844 265.4739990234375 193.70689392089844 263.9739990234375 " fill="#FF0000" fill-opacity="1" stroke="none" stroke-opacity="1" stroke-width="1" opacity="1" />
<polyline points="211.362060546875 247.35064697265625 212.362060546875 247.35064697265625 212.362060546875 248.85064697265625 213.862060546875 248.85064697265625 213.862060546875 249.85064697265625 212.362060546875 249.85064697265625 212.362060546875 251.35064697265625 211.362060546875 251.35064697265625 211.362060546875 249.85064697265625 209.862060546875 249.85064697265625 209.862060546875 248.85064697265625 211.362060546875 248.85064697265625 211.362060546875 247.35064697265625 " fill="#FF0000" fill-opacity="1" stroke="none" stroke-opacity="1" stroke-width="1" opacity="1" />
<polyline points="229.01724243164062 230.727294921875 230.01724243164062 230.727294921875 230.01724243164062 232.227294921875 231.51724243164062 232.227294921875 231.51724243164062 233.227294921875 230.01724243164062 233.227294921875 230.01724243164062 234.727294921875 229.01724243164062 234.727294921875 229.01724243164062 233.227294921875 227.51724243164062 233.227294921875 227.51724243164062 232.227294921875 229.01724243164062 232.227294921875 229.01724243164062 230.727294921875 " fill="#FF0000" fill-opacity="1" stroke="none" stroke-opacity="1" stroke-width="1" opacity="1" />
<polyline points="246.6724090576172 214.10391235351562 247.6724090576172 214.10391235351562 247.6724090576172 215.60391235351562 249.1724090576172 215.60391235351562 249.1724090576172 216.60391235351562 247.6724090576172 216.60391235351562 247.6724090576172 218.10391235351562 246.6724090576172 218.10391235351562 246.6724090576172 216.60391235351562 245.1724090576172 216.60391235351562 245.1724090576172 215.60391235351562 246.6724090576172 215.60391235351562 246.6724090576172 214.10391235351562 " fill="#FF0000" fill-opacity="1" stroke="none" stroke-opacity="1" stroke-width="1" opacity="1" />
<polyline points="264.32757568359375 197.48052978515625 265.32757568359375 197.48052978515625 265.32757568359375 198.98052978515625 266.82757568359375 198.98052978515625 266.82757568359375 199.98052978515625 265.32757568359375 199.98052978515625 265.32757568359375 201.48052978515625 264.32757568359375 201.48052978515625 264.32757568359375 199.98052978515625 262.82757568359375 199.98052978515625 262.82757568359375 198.98052978515625 264.32757568359375 198.98052978515625 264.32757568359375 197.48052978515625 " fill="#FF0000" fill-opacity="1" stroke="none" stroke-opacity="1" stroke-width="1" opacity="1" />
<polyline points="281.9827575683594 197.48052978515625 282.9827575683594 197.48052978515625 282.9827575683594 198.98052978515625 284.4827575683594 198.98052978515625 284.4827575683594 199.98052978515625 282.9827575683594 199.98052978515625 282.9827575683594 201.48052978515625 281.9827575683594 201.48052978515625 281.9827575683594 199.98052978515625 280.4827575683594 199.98052978515625 280.4827575683594 198.98052978515625 281.9827575683594 198.98052978515625 281.9827575683594 197.48052978515625 " fill="#FF0000" fill-opacity="1" stroke="none" stroke-opacity="1" stroke-width="1" opacity="1" />
<polyline points="299.637939453125 197.48052978515625 300.637939453125 197.48052978515625 300.637939453125 198.98052978515625 302.137939453125 198.98052978515625 302.137939453125 199.98052978515625 300.637939453125 199.98052978515625 300.637939453125 201.48052978515625 299.637939453125 201.48052978515625 299.637939453125 199.98052978515625 298.137939453125 199.98052978515625 298.137939453125 198.98052978515625 299.637939453125 198.98052978515625 299.637939453125 197.48052978515625 " fill="#FF0000" fill-opacity="1" stroke="none" stroke-opacity="1" stroke-width="1" opacity="1" />
<polyline points="317.2930908203125 197.48052978515625 318.2930908203125 197.48052978515625 318.2930908203125 198.98052978515625 319.7930908203125 198.98052978515625 319.7930908203125 199.98052978515625 318.2930908203125 199.98052978515625 318.2930908203125 201.48052978515625 317.2930908203125 201.48052978515625 317.2930908203125 199.98052978515625 315.7930908203125 199.98052978515625 315.7930908203125 198.98052978515625 317.2930908203125 198.98052978515625 317.2930908203125 197.48052978515625 " fill="#FF0000" fill-opacity="1" stroke="none" stroke-opacity="1" stroke-width="1" opacity="1" />
<polyline points="334.9482727050781 197.48052978515625 335.9482727050781 197.48052978515625 335.9482727050781 198.98052978515625 337.4482727050781 198.98052978515625 337.4482727050781 199.98052978515625 335.9482727050781 199.98052978515625 335.9482727050781 201.48052978515625 334.9482727050781 201.48052978515625 334.9482727050781 199.98052978515625 333.4482727050781 199.98052978515625 333.4482727050781 198.98052978515625 334.9482727050781 198.98052978515625 334.9482727050781 197.48052978515625 " fill="#FF0000" fill-opacity="1" stroke="none" stroke-opacity="1" stroke-width="1" opacity="1" />
<polyline points="352.60345458984375 197.48052978515625 353.60345458984375 197.48052978515625 353.60345458984375 198.98052978515625 355.10345458984375 198.98052978515625 355.10345458984375 199.98052978515625 353.60345458984375 199.98052978515625 353.60345458984375 201.48052978515625 352.60345458984375 201.48052978515625 352.60345458984375 199.98052978515625 351.10345458984375 199.98052978515625 351.10345458984375 198.98052978515625 352.60345458984375 198.98052978515625 352.60345458984375 197.48052978515625 " fill="#FF0000" fill-opacity="1" stroke="none" stroke-opacity="1" stroke-width="1" opacity="1" />
<polyline points="370.25860595703125 197.48052978515625 371.25860595703125 197.48052978515625 371.25860595703125 198.98052978515625 372.75860595703125 198.98052978515625 372.75860595703125 199.98052978515625 371.25860595703125 199.98052978515625 371.25860595703125 201.48052978515625 370.25860595703125 201.48052978515625 370.25860595703125 199.98052978515625 368.75860595703125 199.98052978515625 368.75860595703125 198.98052978515625 370.25860595703125 198.98052978515625 370.25860595703125 197.48052978515625 " fill="#FF0000" fill-opacity="1" stroke="none" stroke-opacity="1" stroke-width="1" opacity="1" />
<polyline points="387.9137878417969 197.48052978515625 388.9137878417969 197.48052978515625 388.9137878417969 198.98052978515625 390.4137878417969 198.98052978515625 390.4137878417969 199.98052978515625 388.9137878417969 199.98052978515625 388.9137878417969 201.48052978515625 387.9137878417969 201.48052978515625 387.9137878417969 199.98052978515625 386.4137878417969 199.98052978515625 386.4137878417969 198.98052978515625 387.9137878417969 198.98052978515625 387.9137878417969 197.48052978515625 " fill="#FF0000" fill-opacity="1" stroke="none" stroke-opacity="1" stroke-width="1" opacity="1" />
<polyline points="405.5689697265625 197.48052978515625 406.5689697265625 197.48052978515625 406.5689697265625 198.98052978515625 408.0689697265625 198.98052978515625 408.0689697265625 199.98052978515625 406.5689697265625 199.98052978515625 406.5689697265625 201.48052978515625 405.5689697265625 201.48052978515625 405.5689697265625 199.98052978515625 404.0689697265625 199.98052978515625 404.0689697265625 198.98052978515625 405.5689697265625 198.98052978515625 405.5689697265625 197.48052978515625 " fill="#FF0000" fill-opacity="1" stroke="none" stroke-opacity="1" stroke-width="1" opacity="1" />
<polyline points="423.22412109375 197.48052978515625 424.22412109375 197.48052978515625 424.22412109375 198.98052978515625 425.72412109375 198.98052978515625 425.72412109375 199.98052978515625 424.22412109375 199.98052978515625 424.22412109375 201.48052978515625 423.22412109375 201.48052978515625 423.22412109375 199.98052978515625 421.72412109375 199.98052978515625 421.72412109375 198.98052978515625 423.22412109375 198.98052978515625 423.22412109375 197.48052978515625 " fill="#FF0000" fill-opacity="1" stroke="none" stroke-opacity="1" stroke-width="1" opacity="1" />
<polyline points="440.8793029785156 197.48052978515625 441.8793029785156 197.48052978515625 441.8793029785156 198.98052978515625 443.3793029785156 198.98052978515625 443.3793029785156 199.98052978515625 441.8793029785156 199.98052978515625 441.8793029785156 201.48052978515625 440.8793029785156 201.48052978515625 440.8793029785156 199.98052978515625 439.3793029785156 199.98052978515625 439.3793029785156 198.98052978515625 440.8793029785156 198.98052978515625 440.8793029785156 197.48052978515625 " fill="#FF0000" fill-opacity="1" stroke="none" stroke-opacity="1" stroke-width="1" opacity="1" />
<polyline points="458.53448486328125 197.48052978515625 459.53448486328125 197.48052978515625 459.53448486328125 198.98052978515625 461.03448486328125 198.98052978515625 461.03448486328125 199.98052978515625 459.53448486328125 199.98052978515625 459.53448486328125 201.48052978515625 458.53448486328125 201.48052978515625 458.53448486328125 199.98052978515625 457.03448486328125 199.98052978515625 457.03448486328125 198.98052978515625 458.53448486328125 198.98052978515625 458.53448486328125 197.48052978515625 " fill="#FF0000" fill-opacity="1" stroke="none" stroke-opacity="1" stroke-width="1" opacity="1" />
<polyline points="476.1896667480469 197.48052978515625 477.1896667480469 197.48052978515625 477.1896667480469 198.98052978515625 478.6896667480469 198.98052978515625 478.6896667480469 199.98052978515625 477.1896667480469 199.98052978515625 477.1896667480469 201.48052978515625 476.1896667480469 201.48052978515625 476.1896667480469 199.98052978515625 474.6896667480469 199.98052978515625 474.6896667480469 198.98052978515625 476.1896667480469 198.98052978515625 476.1896667480469 197.48052978515625 " fill="#FF0000" fill-opacity="1" stroke="none" stroke-opacity="1" stroke-width="1" opacity="1" />
<polyline points="493.8448181152344 197.48052978515625 494.8448181152344 197.48052978515625 494.8448181152344 198.98052978515625 496.3448181152344 198.98052978515625 496.3448181152344 199.98052978515625 494.8448181152344 199.98052978515625 494.8448181152344 201.48052978515625 493.8448181152344 201.48052978515625 493.8448181152344 199.98052978515625 492.3448181152344 199.98052978515625 492.3448181152344 198.98052978515625 493.8448181152344 198.98052978515625 493.8448181152344 197.48052978515625 " fill="#FF0000" fill-opacity="1" stroke="none" stroke-opacity="1" stroke-width="1" opacity="1" />
<polyline points="511.5 197.48052978515625 512.5 197.48052978515625 512.5 198.98052978515625 514 198.98052978515625 514 199.98052978515625 512.5 199.98052978515625 512.5 201.48052978515625 511.5 201.48052978515625 511.5 199.98052978515625 510 199.98052978515625 510 198.98052978515625 511.5 198.98052978515625 511.5 197.48052978515625 " fill="#FF0000" fill-opacity="1" stroke="none" stroke-opacity="1" stroke-width="1" opacity="1" />
<line x1="88.27586364746094" y1="365.71429443359375" x2="105.9310302734375" y2="365.71429443359375" stroke="#00FF00" stroke-opacity="1" stroke-width="2" stroke-linecap="butt" opacity="1" />
<line x1="105.9310302734375" y1="365.71429443359375" x2="123.5862045288086" y2="365.71429443359375" stroke="#00FF00" stroke-opacity="1" stroke-width="2" stroke-linecap="butt" opacity="1" />
<line x1="123.5862045288086" y1="365.71429443359375" x2="141.2413787841797" y2="365.71429443359375" stroke="#00FF00" stroke-opacity="1" stroke-width="2" stroke-linecap="butt" opacity="1" />
<line x1="141.2413787841797" y1="365.71429443359375" x2="158.89654541015625" y2="365.71429443359375" stroke="#00FF00" stroke-opacity="1" stroke-width="2" stroke-linecap="butt" opacity="1" />
<line x1="158.89654541015625" y1="365.71429443359375" x2="176.55172729492188" y2="365.71429443359375" stroke="#00FF00" stroke-opacity="1" stroke-width="2" stroke-linecap="butt" opacity="1" />
<line x1="176.55172729492188" y1="365.71429443359375" x2="194.20689392089844" y2="365.71429443359375" stroke="#00FF00" stroke-opacity="1" stroke-width="2" stroke-linecap="butt" opacity="1" />
<line x1="194.20689392089844" y1="365.71429443359375" x2="211.862060546875" y2="365.71429443359375" stroke="#00FF00" stroke-opacity="1" stroke-width="2" stroke-linecap="butt" opacity="1" />
<line x1="211.862060546875" y1="365.71429443359375" x2="229.51724243164062" y2="365.71429443359375" stroke="#00FF00" stroke-opacity="1" stroke-width="2" stroke-linecap="butt" opacity="1" />
<line x1="229.51724243164062" y1="365.71429443359375" x2="247.1724090576172" y2="357.402587890625" stroke="#00FF00" stroke-opacity="1" stroke-width="2" stroke-linecap="butt" opacity="1" />
<line x1="247.1724090576172" y1="357.402587890625" x2="264.82757568359375" y2="349.09088134765625" stroke="#00FF00" stroke-opacity="1" stroke-width="2" stroke-linecap="butt" opacity="1" />
<line x1="264.82757568359375" y1="349.09088134765625" x2="282.4827575683594" y2="340.77923583984375" stroke="#00FF00" stroke-opacity="1" stroke-width="2" stroke-linecap="butt" opacity="1" />
<line x1="282.4827575683594" y1="340.77923583984375" x2="300.137939453125" y2="332.467529296875" stroke="#00FF00" stroke-opacity="1" stroke-width="2" stroke-linecap="butt" opacity="1" />
<line x1="300.137939453125" y1="332.467529296875" x2="317.7930908203125" y2="324.15582275390625" stroke="#00FF00" stroke-opacity="1" stroke-width="2" stroke-linecap="butt" opacity="1" />
<line x1="317.7930908203125" y1="324.15582275390625" x2="335.4482727050781" y2="315.8441467285156" stroke="#00FF00" stroke-opacity="1" stroke-width="2" stroke-linecap="butt" opacity="1" />
<line x1="335.4482727050781" y1="315.8441467285156" x2="353.10345458984375" y2="307.532470703125" stroke="#00FF00" stroke-opacity="1" stroke-width="2" stroke-linecap="butt" opacity="1" />
<line x1="353.10345458984375" y1="307.532470703125" x2="370.75860595703125" y2="299.22076416015625" stroke="#00FF00" stroke-opacity="1" stroke-width="2" stroke-linecap="butt" opacity="1" />
<line x1="370.75860595703125" y1="299.22076416015625" x2="388.4137878417969" y2="290.9090881347656" stroke="#00FF00" stroke-opacity="1" stroke-width="2" stroke-linecap="butt" opacity="1" />
<line x1="388.4137878417969" y1="290.9090881347656" x2="406.0689697265625" y2="282.597412109375" stroke="#00FF00" stroke-opacity="1" stroke-width="2" stroke-linecap="butt" opacity="1" />
<line x1="406.0689697265625" y1="282.597412109375" x2="423.72412109375" y2="274.28570556640625" stroke="#00FF00" stroke-opacity="1" stroke-width="2" stroke-linecap="butt" opacity="1" />
<line x1="423.72412109375" y1="274.28570556640625" x2="441.3793029785156" y2="265.9739990234375" stroke="#00FF00" stroke-opacity="1" stroke-width="2" stroke-linecap="butt" opacity="1" />
<line x1="441.3793029785156" y1="265.9739990234375" x2="459.03448486328125" y2="257.662353515625" stroke="#00FF00" stroke-opacity="1" stroke-width="2" stroke-linecap="butt" opacity="1" />
<line x1="459.03448486328125" y1="257.662353515625" x2="476.6896667480469" y2="249.35064697265625" stroke="#00FF00" stroke-opacity="1" stroke-width="2" stroke-linecap="butt" opacity="1" />
<line x1="476.6896667480469" y1="249.35064697265625" x2="494.3448181152344" y2="241.03897094726562" stroke="#00FF00" stroke-opacity="1" stroke-width="2" stroke-linecap="butt" opacity="1" />
<line x1="494.3448181152344" y1="241.03897094726562" x2="512" y2="232.727294921875" stroke="#00FF00" stroke-opacity="1" stroke-width="2" stroke-linecap="butt" opacity="1" />
<polyline points="0 365.71429443359375 0 282.597412109375 88.27586364746094 315.8441467285156 176.55172729492188 282.597412109375 176.55172729492188 365.71429443359375 " fill="#FF00FF" fill-opacity="0.5" stroke="#FF00FF" stroke-opacity="1" stroke-width="2" opacity="1" />
<polyline points="0 365.71429443359375 0 448.8311767578125 88.27586364746094 415.58441162109375 176.55172729492188 448.8311767578125 176.55172729492188 365.71429443359375 " fill="#FFFF00" fill-opacity="0.5" stroke="#FFFF00" stroke-opacity="1" stroke-width="2" opacity="1" />
<line x1="88.27586364746094" y1="0" x2="88.27586364746094" y2="512" stroke="#000000" stroke-opacity="1" stroke-width="2" stroke-linecap="butt" opacity="1" />
<line x1="0" y1="365.71429443359375" x2="512" y2="365.71429443359375" stroke="#000000" stroke-opacity="1" stroke-width="2" stroke-linecap="butt" opacity="1" />
<rect x="0" y="0" width="512" height="512" rx="auto" ry="auto" fill="none" fill-opacity="1.0e+00" stroke="#000000" stroke-opacity="1.0e+00" stroke-width="4" opacity="1.0e+00" />
<text x="88.27586364746094" y="522" dx="0" dy="0" textLength="none" fill="#000000" fill-opacity="1" stroke="none" stroke-opacity="1" stroke-width="1" opacity="1" font-family="sans-serif" font-size="10px" font-weight="normal" text-anchor="middle" dominant-baseline="hanging" >0.00</text>
<text x="158.89654541015625" y="522" dx="0" dy="0" textLength="none" fill="#000000" fill-opacity="1" stroke="none" stroke-opacity="1" stroke-width="1" opacity="1" font-family="sans-serif" font-size="10px" font-weight="normal" text-anchor="middle" dominant-baseline="hanging" >4.00</text>
<text x="229.51724243164062" y="522" dx="0" dy="0" textLength="none" fill="#000000" fill-opacity="1" stroke="none" stroke-opacity="1" stroke-width="1" opacity="1" font-family="sans-serif" font-size="10px" font-weight="normal" text-anchor="middle" dominant-baseline="hanging" >8.00</text>
<text x="300.137939453125" y="522" dx="0" dy="0" textLength="none" fill="#000000" fill-opacity="1" stroke="none" stroke-opacity="1" stroke-width="1" opacity="1" font-family="sans-serif" font-size="10px" font-weight="normal" text-anchor="middle" dominant-baseline="hanging" >12.00</text>
<text x="370.75860595703125" y="522" dx="0" dy="0" textLength="none" fill="#000000" fill-opacity="1" stroke="none" stroke-opacity="1" stroke-width="1" opacity="1" font-family="sans-serif" font-size="10px" font-weight="normal" text-anchor="middle" dominant-baseline="hanging" >16.00</text>
<text x="441.37933349609375" y="522" dx="0" dy="0" textLength="none" fill="#000000" fill-opacity="1" stroke="none" stroke-opacity="1" stroke-width="1" opacity="1" font-family="sans-serif" font-size="10px" font-weight="normal" text-anchor="middle" dominant-baseline="hanging" >20.00</text>
<text x="17.655174255371094" y="522" dx="0" dy="0" textLength="none" fill="#000000" fill-opacity="1" stroke="none" stroke-opacity="1" stroke-width="1" opacity="1" font-family="sans-serif" font-size="10px" font-weight="normal" text-anchor="middle" dominant-baseline="hanging" >-4.00</text>
<text x="-10" y="365.71429443359375" dx="0" dy="0" textLength="none" fill="#000000" fill-opacity="1" stroke="none" stroke-opacity="1" stroke-width="1" opacity="1" font-family="sans-serif" font-size="10px" font-weight="normal" text-anchor="end" dominant-baseline="middle" >-0.00</text>
<text x="-10" y="304.76190185546875" dx="0" dy="0" textLength="none" fill="#000000" fill-opacity="1" stroke="none" stroke-opacity="1" stroke-width="1" opacity="1" font-family="sans-serif" font-size="10px" font-weight="normal" text-anchor="end" dominant-baseline="middle" >3.67</text>
<text x="-10" y="243.80953979492188" dx="0" dy="0" textLength="none" fill="#000000" fill-opacity="1" stroke="none" stroke-opacity="1" stroke-width="1" opacity="1" font-family="sans-serif" font-size="10px" font-weight="normal" text-anchor="end" dominant-baseline="middle" >7.33</text>
<text x="-10" y="182.85714721679688" dx="0" dy="0" textLength="none" fill="#000000" fill-opacity="1" stroke="none" stroke-opacity="1" stroke-width="1" opacity="1" font-family="sans-serif" font-size="10px" font-weight="normal" text-anchor="end" dominant-baseline="middle" >11.00</text>
<text x="-10" y="121.90476989746094" dx="0" dy="0" textLength="none" fill="#000000" fill-opacity="1" stroke="none" stroke-opacity="1" stroke-width="1" opacity="1" font-family="sans-serif" font-size="10px" font-weight="normal" text-anchor="end" dominant-baseline="middle" >14.67</text>
<text x="-10" y="60.952392578125" dx="0" dy="0" textLength="none" fill="#000000" fill-opacity="1" stroke="none" stroke-opacity="1" stroke-width="1" opacity="1" font-family="sans-serif" font-size="10px" font-weight="normal" text-anchor="end" dominant-baseline="middle" >18.33</text>
<text x="-10" y="426.66668701171875" dx="0" dy="0" textLength="none" fill="#000000" fill-opacity="1" stroke="none" stroke-opacity="1" stroke-width="1" opacity="1" font-family="sans-serif" font-size="10px" font-weight="normal" text-anchor="end" dominant-baseline="middle" >-3.67</text>
<text x="-10" y="487.6190490722656" dx="0" dy="0" textLength="none" fill="#000000" fill-opacity="1" stroke="none" stroke-opacity="1" stroke-width="1" opacity="1" font-family="sans-serif" font-size="10px" font-weight="normal" text-anchor="end" dominant-baseline="middle" >-7.33</text>
</svg>